<?xml version="1.0" encoding="utf-8"?>
<!-- Generator: Adobe Illustrator 23.0.2, SVG Export Plug-In . SVG Version: 6.00 Build 0)  -->
<svg version="1.1" id="HEAD-Layer_1" xmlns="http://www.w3.org/2000/svg" xmlns:xlink="http://www.w3.org/1999/xlink" x="0px" y="0px"
	 width="225px" height="100.5px" viewBox="0 0 225 100.5" style="enable-background:new 0 0 225 100.5;" xml:space="preserve">
<g>
	<g>
		<defs>
			<path id="HEAD-SVGID_1_" d="M40.2,0c-15.8,0-29.5,9.1-36,22.4l0.1-0.1c-1.9,3.9-1.7,4-1.5,10.9c0.4,14.7,11.3,26.9,26,28.1
				c7.9,0.6,14.1-1.5,19.4-5.3l0,0c-5.4,1.8-9.5,0.7-9.5,0.7s-7.1-1.6-11.1-8.2s-1.1-13.6-1.1-13.6s3.7-16.4,25.2-18
				c21.5-1.6,28.7,23.3,28.7,23.3c0-2.2-0.2-4.4-0.5-6.6C76.7,14.5,60.1,0,40.2,0z"/>
		</defs>
		<clipPath id="HEAD-SVGID_2_">
			<use xlink:href="#SVGID_1_"  style="overflow:visible;"/>
		</clipPath>
		
			<linearGradient id="HEAD-SVGID_3_" gradientUnits="userSpaceOnUse" x1="86.4699" y1="59.8626" x2="92.0547" y2="59.8626" gradientTransform="matrix(13.9121 0 0 -13.9121 -1200.3514 863.7764)">
			<stop  offset="0" style="stop-color:#101243"/>
			<stop  offset="0.1676" style="stop-color:#232E6B"/>
			<stop  offset="0.3557" style="stop-color:#364A94"/>
			<stop  offset="0.6181" style="stop-color:#2F81BF"/>
			<stop  offset="0.8733" style="stop-color:#29B1E5"/>
			<stop  offset="1" style="stop-color:#27C3F3"/>
		</linearGradient>
		<rect x="2.4" style="clip-path:url(#SVGID_2_);fill:url(#SVGID_3_);" width="77.9" height="61.9"/>
	</g>
	<g>
		<defs>
			<path id="HEAD-SVGID_4_" d="M39.6,56.8c1.8,0.3,3.6,0.3,5.4-0.1C42.5,57.2,40.6,57,39.6,56.8 M38.6,56.7c0,0,0.3,0.1,0.9,0.2
				c-0.5-0.1-0.9-0.2-1.4-0.3C38.5,56.6,38.6,56.7,38.6,56.7 M45.8,56.6c-0.3,0.1-0.6,0.2-0.9,0.2c1-0.2,2.1-0.4,3.2-0.8L45.8,56.6z
				 M48.1,56L48.1,56C48.1,56,48.1,56,48.1,56 M45.3,69.4c-10.2,16.6-5.9,31.1-5.9,31.1s17.9-14.3,26.9-28.3c0,0,3.9-4.8-3.7-10.5
				c-5.2-3.9-7.7-5.7-9.4-6.3C53.1,56.1,51.7,58.9,45.3,69.4 M53.2,55.4C53.2,55.4,53.2,55.4,53.2,55.4L53.2,55.4L53.2,55.4z
				 M51.1,55.3l-3,0.7l0,0l5.1-0.7c-0.4-0.1-0.8-0.2-1.1-0.2C51.7,55.1,51.4,55.2,51.1,55.3 M38.2,56.5c-1.5-0.4-6.1-2.1-9.4-6.4
				C31.1,53.3,34.5,55.6,38.2,56.5 M80.3,40.1L80.3,40.1v-0.3C80.3,40,80.3,40.1,80.3,40.1 M51.6,16.8c-21.5,1.6-25.2,18-25.2,18
				s-2.9,7,1.1,13.6c0.4,0.6,0.8,1.2,1.2,1.7c-1.3-1.7-2.2-3.6-2.8-5.8c-0.7-2.9-0.6-5.8,0.2-8.4c1.5-7,7.7-12.2,15.2-12.2
				c8.6,0,15.5,6.9,15.5,15.5v5.1c-0.1,2.1,1.5,3.3,8.3,9.1c6.8,5.8,10.4,1.1,10.4,1.1c3-4,4.7-9,4.8-14.4
				c-0.1-0.4-6.9-23.4-26.7-23.4C52.9,16.8,52.3,16.8,51.6,16.8"/>
		</defs>
		<clipPath id="HEAD-SVGID_5_">
			<use xlink:href="#SVGID_4_"  style="overflow:visible;"/>
		</clipPath>
		
			<linearGradient id="HEAD-SVGID_6_" gradientUnits="userSpaceOnUse" x1="92.3562" y1="55.8802" x2="97.941" y2="55.8802" gradientTransform="matrix(-5.2056 14.3022 14.3022 5.2056 -252.3685 -1592.0166)">
			<stop  offset="0" style="stop-color:#101243"/>
			<stop  offset="0.1676" style="stop-color:#232E6B"/>
			<stop  offset="0.3557" style="stop-color:#364A94"/>
			<stop  offset="0.6181" style="stop-color:#2F81BF"/>
			<stop  offset="0.8733" style="stop-color:#29B1E5"/>
			<stop  offset="1" style="stop-color:#27C3F3"/>
		</linearGradient>
		<polygon style="clip-path:url(#SVGID_5_);fill:url(#SVGID_6_);" points="107.2,26.6 73.7,118.8 -3.4,90.7 30.2,-1.5 		"/>
	</g>
	<g>
		<defs>
			<path id="HEAD-SVGID_7_" d="M4.2,22.4C1.5,27.7,0,33.1,0,39.5c0,0.3,0,0.6,0,0.9v0.8c0,2.8,0.4,4.7,1.2,7.9c0.8,3.3,2,6.5,3.4,9.4
				c11.8,28.2,34.8,42.1,34.8,42.1c-0.1-17.8,4.2-27.1,9.5-35.7c5.3-8.6,4.3-9.4,4.3-9.4l-0.6-0.2c-0.6-0.2-2,0.2-2.9,0.4
				c-0.4,0.1-1.4,0.3-1.5,0.4c-0.4,0.3-0.8,0.6-0.8,0.6c-4.6,3-10,4.6-15.9,4.6c-15.9,0-28.8-13.5-28.8-28.6c0-4.4,0.1-7.3,1.9-11
				L4.2,22.4z"/>
		</defs>
		<clipPath id="HEAD-SVGID_8_">
			<use xlink:href="#SVGID_7_"  style="overflow:visible;"/>
		</clipPath>
		
			<linearGradient id="HEAD-SVGID_9_" gradientUnits="userSpaceOnUse" x1="98.1678" y1="59.7435" x2="103.7526" y2="59.7435" gradientTransform="matrix(-9.536 0 0 9.536 989.3796 -508.6692)">
			<stop  offset="0" style="stop-color:#101243"/>
			<stop  offset="0.1676" style="stop-color:#232E6B"/>
			<stop  offset="0.3557" style="stop-color:#364A94"/>
			<stop  offset="0.6181" style="stop-color:#2F81BF"/>
			<stop  offset="0.8733" style="stop-color:#29B1E5"/>
			<stop  offset="1" style="stop-color:#27C3F3"/>
		</linearGradient>
		<rect y="21.6" style="clip-path:url(#SVGID_8_);fill:url(#SVGID_9_);" width="54.2" height="79"/>
	</g>
	<g>
		<defs>
			<rect id="HEAD-SVGID_10_" width="225" height="100.5"/>
		</defs>
		<clipPath id="HEAD-SVGID_11_">
			<use xlink:href="#SVGID_10_"  style="overflow:visible;"/>
		</clipPath>
		<path style="clip-path:url(#SVGID_11_);fill:#101243;" d="M113.5,22.4c7.3,0,13.5,2.8,17.4,7.7c1.2,1.5,0.7,2.9-1,3.8l-3.5,1.6
			c-1.5,0.8-2.7,0.4-3.8-0.9c-2.2-2.5-5.1-3.8-8.7-3.8c-6.7,0-11.9,5-11.9,14.4c0,9.4,5.3,14.4,11.9,14.4c3.5,0,6.4-1.3,8.7-3.8
			c1.2-1.3,2.3-1.7,3.8-0.9l3.5,1.6c1.7,0.8,2.2,2.3,1,3.8c-4,4.9-10.1,7.7-17.4,7.7c-13.1,0-21.9-9-21.9-22.7
			C91.6,31.3,100.4,22.4,113.5,22.4"/>
		<path style="clip-path:url(#SVGID_11_);fill:#101243;" d="M143.7,31.3c-3.2,0-5.8-2.4-5.8-5.5c0-3.1,2.6-5.5,5.8-5.5
			c3.2,0,5.8,2.4,5.8,5.5C149.5,28.9,146.9,31.3,143.7,31.3 M141.7,34.5h4.1c1.8,0,2.8,1,2.8,2.8v27c0,1.8-1,2.8-2.8,2.8h-4.1
			c-1.8,0-2.8-1-2.8-2.8v-27C138.9,35.5,139.9,34.5,141.7,34.5"/>
		<path style="clip-path:url(#SVGID_11_);fill:#101243;" d="M165.3,64.8l-10.1-27.1c-0.7-1.9,0.3-3.2,2.3-3.2h4.2
			c1.7,0,2.6,0.8,3.1,2.3l6.7,21.1l6.7-21.1c0.5-1.5,1.5-2.3,3.1-2.3h4.2c2.1,0,3,1.3,2.3,3.2l-10.1,27.1c-0.6,1.5-1.6,2.2-3.2,2.2
			h-6.2C166.9,67,165.9,66.3,165.3,64.8"/>
		<path style="clip-path:url(#SVGID_11_);fill:#101243;" d="M200.1,77.1l4-10.7l-11.9-28.7c-0.8-1.9,0.1-3.2,2.2-3.2h4
			c1.6,0,2.6,0.8,3.2,2.2l7,18.4l6.7-18.4c0.5-1.5,1.7-2.2,3.3-2.2h3.9c2,0,2.9,1.3,2.2,3.2l-15.3,40.4c-0.6,1.5-1.6,2.2-3.2,2.2
			h-3.9C200.3,80.3,199.4,79,200.1,77.1"/>
		<path style="clip-path:url(#SVGID_11_);fill:#010101;" d="M92.2,70.4h5.1c0.4,0,0.6,0.2,0.6,0.6v0.5c0,0.4-0.2,0.6-0.6,0.6h-3.6v2
			h3.1c0.4,0,0.6,0.2,0.6,0.6v0.5c0,0.4-0.2,0.6-0.6,0.6h-3.1V78h3.7c0.4,0,0.6,0.2,0.6,0.6v0.5c0,0.4-0.2,0.6-0.6,0.6h-5.3
			c-0.4,0-0.6-0.2-0.6-0.6V71C91.6,70.6,91.8,70.4,92.2,70.4"/>
		<path style="clip-path:url(#SVGID_11_);fill:#010101;" d="M101.5,75v4.1c0,0.4-0.2,0.6-0.6,0.6h-0.9c-0.4,0-0.6-0.2-0.6-0.6v-5.7
			c0-0.4,0.2-0.6,0.6-0.6h0.9c0.4,0,0.6,0.2,0.6,0.6v0.2c0.5-0.5,1.3-0.9,2.3-0.9c1.5,0,2.5,0.9,2.5,2.6v3.8c0,0.4-0.2,0.6-0.6,0.6
			h-0.9c-0.4,0-0.6-0.2-0.6-0.6v-3.6c0-0.8-0.4-1.3-1.1-1.3C102.5,74.3,101.9,74.6,101.5,75"/>
		<path style="clip-path:url(#SVGID_11_);fill:#010101;" d="M113.3,72.8h0.9c0.4,0,0.6,0.2,0.6,0.6v5.9c0,2.2-1.3,3.4-3.5,3.4
			c-1.1,0-2.1-0.3-2.8-0.9c-0.3-0.3-0.3-0.6,0.1-0.8l0.4-0.3c0.3-0.2,0.6-0.2,0.8,0.1c0.4,0.3,0.8,0.5,1.3,0.5
			c0.9,0,1.5-0.5,1.5-1.6V79c-0.5,0.5-1.3,0.8-2.1,0.8c-1.8,0-3-1.3-3-3.6s1.2-3.6,3-3.6c0.8,0,1.5,0.3,2.1,0.8v-0.3
			C112.7,73,112.9,72.8,113.3,72.8 M112.7,77.6v-2.8c-0.3-0.4-0.9-0.6-1.4-0.6c-1,0-1.6,0.7-1.6,2c0,1.3,0.5,2,1.6,2
			C111.8,78.2,112.4,78,112.7,77.6"/>
		<path style="clip-path:url(#SVGID_11_);fill:#010101;" d="M119.2,74.3c-0.4,0-0.8,0.1-1.2,0.3c-0.3,0.2-0.6,0.2-0.8-0.1l-0.3-0.3
			c-0.3-0.3-0.3-0.6,0-0.8c0.7-0.4,1.6-0.7,2.5-0.7c2.3,0,3.1,1.2,3.1,2.9v3.5c0,0.4-0.2,0.6-0.6,0.6h-0.8c-0.4,0-0.6-0.2-0.6-0.5
			c-0.5,0.4-1.1,0.6-2,0.6c-1.4,0-2.6-0.8-2.6-2.2s1.2-2.2,2.6-2.2c0.8,0,1.5,0.2,2,0.6v-0.5C120.7,74.7,120.2,74.3,119.2,74.3
			 M119.2,76.8c-0.7,0-1.1,0.3-1.1,0.8c0,0.5,0.4,0.8,1.1,0.8c0.5,0,1-0.2,1.4-0.5v-0.5C120.3,77,119.8,76.8,119.2,76.8"/>
		<path style="clip-path:url(#SVGID_11_);fill:#010101;" d="M129.6,72.8h0.9c0.4,0,0.6,0.2,0.6,0.6v5.9c0,2.2-1.3,3.4-3.5,3.4
			c-1.1,0-2.1-0.3-2.8-0.9c-0.3-0.3-0.3-0.6,0.1-0.8l0.4-0.3c0.3-0.2,0.6-0.2,0.8,0.1c0.4,0.3,0.8,0.5,1.3,0.5
			c0.9,0,1.5-0.5,1.5-1.6V79c-0.5,0.5-1.3,0.8-2.1,0.8c-1.8,0-3-1.3-3-3.6s1.2-3.6,3-3.6c0.8,0,1.5,0.3,2.1,0.8v-0.3
			C129.1,73,129.3,72.8,129.6,72.8 M129.1,77.6v-2.8c-0.4-0.4-0.9-0.6-1.4-0.6c-1,0-1.6,0.7-1.6,2c0,1.3,0.5,2,1.6,2
			C128.1,78.2,128.7,78,129.1,77.6"/>
		<path style="clip-path:url(#SVGID_11_);fill:#010101;" d="M134,72.2c-0.7,0-1.2-0.5-1.2-1.2s0.5-1.2,1.2-1.2
			c0.7,0,1.2,0.5,1.2,1.2S134.6,72.2,134,72.2 M133.5,72.8h0.9c0.4,0,0.6,0.2,0.6,0.6v5.7c0,0.4-0.2,0.6-0.6,0.6h-0.9
			c-0.4,0-0.6-0.2-0.6-0.6v-5.7C132.9,73.1,133.1,72.8,133.5,72.8"/>
		<path style="clip-path:url(#SVGID_11_);fill:#010101;" d="M138.8,75v4.1c0,0.4-0.2,0.6-0.6,0.6h-0.9c-0.4,0-0.6-0.2-0.6-0.6v-5.7
			c0-0.4,0.2-0.6,0.6-0.6h0.9c0.4,0,0.6,0.2,0.6,0.6v0.2c0.5-0.5,1.3-0.9,2.3-0.9c1.5,0,2.5,0.9,2.5,2.6v3.8c0,0.4-0.2,0.6-0.6,0.6
			h-0.9c-0.4,0-0.6-0.2-0.6-0.6v-3.6c0-0.8-0.4-1.3-1.1-1.3C139.8,74.3,139.2,74.6,138.8,75"/>
		<path style="clip-path:url(#SVGID_11_);fill:#010101;" d="M150.6,72.8h0.9c0.4,0,0.6,0.2,0.6,0.6v5.9c0,2.2-1.3,3.4-3.5,3.4
			c-1.1,0-2-0.3-2.8-0.9c-0.3-0.3-0.3-0.6,0.1-0.8l0.4-0.3c0.3-0.2,0.6-0.2,0.8,0.1c0.4,0.3,0.8,0.5,1.3,0.5c0.9,0,1.5-0.5,1.5-1.6
			V79c-0.5,0.5-1.3,0.8-2.1,0.8c-1.8,0-3-1.3-3-3.6s1.2-3.6,3-3.6c0.8,0,1.5,0.3,2.1,0.8v-0.3C150,73,150.2,72.8,150.6,72.8
			 M150,77.6v-2.8c-0.3-0.4-0.9-0.6-1.4-0.6c-1,0-1.6,0.7-1.6,2c0,1.3,0.5,2,1.6,2C149.1,78.2,149.7,78,150,77.6"/>
		<path style="clip-path:url(#SVGID_11_);fill:#010101;" d="M162.1,70.3c1.5,0,2.8,0.6,3.7,1.6c0.2,0.3,0.2,0.6-0.2,0.8l-0.7,0.3
			c-0.3,0.2-0.6,0.1-0.8-0.2c-0.5-0.5-1.1-0.8-1.8-0.8c-1.4,0-2.5,1-2.5,3c0,2,1.1,3,2.5,3c0.7,0,1.3-0.3,1.8-0.8
			c0.2-0.3,0.5-0.4,0.8-0.2l0.7,0.3c0.4,0.2,0.5,0.5,0.2,0.8c-0.8,1-2.1,1.6-3.7,1.6c-2.8,0-4.6-1.9-4.6-4.8
			C157.5,72.2,159.4,70.3,162.1,70.3"/>
		<path style="clip-path:url(#SVGID_11_);fill:#010101;" d="M168.5,72.2c-0.7,0-1.2-0.5-1.2-1.2s0.5-1.2,1.2-1.2
			c0.7,0,1.2,0.5,1.2,1.2S169.2,72.2,168.5,72.2 M168.1,72.8h0.9c0.4,0,0.6,0.2,0.6,0.6v5.7c0,0.4-0.2,0.6-0.6,0.6h-0.9
			c-0.4,0-0.6-0.2-0.6-0.6v-5.7C167.5,73.1,167.7,72.8,168.1,72.8"/>
		<path style="clip-path:url(#SVGID_11_);fill:#010101;" d="M171.9,77v-2.6h-0.6c-0.4,0-0.6-0.2-0.6-0.6v-0.4c0-0.4,0.2-0.6,0.6-0.6
			h0.6v-1.5c0-0.4,0.2-0.6,0.6-0.6h0.9c0.4,0,0.6,0.2,0.6,0.6v1.5h1.1c0.4,0,0.6,0.2,0.6,0.6v0.4c0,0.4-0.2,0.6-0.6,0.6h-1.1v2.8
			c0,0.8,0.3,1,1.1,1c0,0,0.6,0.2,0.6,0.6v0.4c0,0.4-0.2,0.6-0.5,0.6c-0.2,0-0.4,0-0.6,0C172.5,79.8,171.9,79,171.9,77"/>
		<path style="clip-path:url(#SVGID_11_);fill:#010101;" d="M177.9,72.2c-0.7,0-1.2-0.5-1.2-1.2s0.5-1.2,1.2-1.2
			c0.7,0,1.2,0.5,1.2,1.2S178.6,72.2,177.9,72.2 M177.5,72.8h0.9c0.4,0,0.6,0.2,0.6,0.6v5.7c0,0.4-0.2,0.6-0.6,0.6h-0.9
			c-0.4,0-0.6-0.2-0.6-0.6v-5.7C176.9,73.1,177.1,72.8,177.5,72.8"/>
		<path style="clip-path:url(#SVGID_11_);fill:#010101;" d="M187.4,76.3c0,0.4-0.2,0.6-0.6,0.6h-4.4c0.1,0.9,0.8,1.4,1.8,1.4
			c0.5,0,0.8-0.1,1.1-0.4c0.3-0.2,0.5-0.3,0.8-0.1l0.4,0.3c0.3,0.2,0.4,0.5,0.1,0.8c-0.7,0.6-1.6,0.9-2.6,0.9
			c-2.3,0-3.7-1.5-3.7-3.6c0-2.1,1.4-3.6,3.5-3.6C186,72.7,187.4,74.2,187.4,76.3L187.4,76.3z M182.4,75.6h2.9
			c-0.1-0.8-0.7-1.3-1.5-1.3C183.1,74.3,182.5,74.7,182.4,75.6"/>
		<path style="clip-path:url(#SVGID_11_);fill:#010101;" d="M191.3,72.7c0.9,0,1.8,0.3,2.5,0.7c0.3,0.2,0.3,0.6,0,0.8l-0.3,0.2
			c-0.3,0.2-0.5,0.2-0.8,0c-0.3-0.2-0.7-0.3-1-0.3c-0.6,0-0.9,0.1-0.9,0.4c0,0.3,0.3,0.5,1.6,0.9c1.4,0.4,2.2,1.1,2.2,2.2
			c0,1.2-1,2.1-2.9,2.1c-1.1,0-2.1-0.3-2.9-0.9c-0.3-0.3-0.3-0.6,0.1-0.8l0.4-0.3c0.3-0.2,0.5-0.2,0.8,0c0.4,0.3,0.9,0.5,1.4,0.5
			c0.6,0,1-0.2,1-0.5c0-0.4-0.3-0.6-1.4-0.9c-1.7-0.5-2.4-1.2-2.4-2.3C188.6,73.5,189.6,72.7,191.3,72.7"/>
	</g>
</g>
</svg>
