<?xml version="1.0" encoding="utf-8"?>
<!-- Generator: Adobe Illustrator 23.0.2, SVG Export Plug-In . SVG Version: 6.00 Build 0)  -->
<svg version="1.1" id="Layer_1" xmlns="http://www.w3.org/2000/svg" xmlns:xlink="http://www.w3.org/1999/xlink" x="0px" y="0px"
	 width="225px" height="100.5px" viewBox="0 0 225 100.5" style="enable-background:new 0 0 225 100.5;" xml:space="preserve">
<style type="text/css">
	.st0{clip-path:url(#SVGID_2_);}
	.st1{fill:url(#SVGID_3_);}
	.st2{clip-path:url(#SVGID_5_);}
	.st3{fill:url(#SVGID_6_);}
	.st4{clip-path:url(#SVGID_8_);}
	.st5{fill:url(#SVGID_9_);}
	.st6{clip-path:url(#SVGID_11_);}
	.st7{fill:#101243;}
	.st8{fill:#010101;}
</style>
<title>civy</title>
<g>
	<defs>
		<path id="SVGID_1_" d="M40.2,0c-15.3,0-29.2,8.7-36,22.4l0.1-0.1c-1.9,3.9-1.7,4-1.5,10.9c0.4,14.7,11.3,26.9,26,28.1
			c6.9,0.7,13.8-1.2,19.4-5.3l0,0c-3.1,1.1-6.4,1.3-9.5,0.6c-4.5-1.3-8.5-4.2-11-8.2c-4-6.6-1.1-13.6-1.1-13.6s3.7-16.4,25.2-18
			s28.6,23.3,28.6,23.3C80.3,18,62.3,0,40.2,0z"/>
	</defs>
	<clipPath id="SVGID_2_">
		<use xlink:href="#SVGID_1_"  style="overflow:visible;"/>
	</clipPath>
	<g class="st0">
		
			<linearGradient id="SVGID_3_" gradientUnits="userSpaceOnUse" x1="191.1902" y1="140.6913" x2="196.7802" y2="140.6913" gradientTransform="matrix(13.91 0 0 -13.91 -2657.0662 1987.9813)">
			<stop  offset="0" style="stop-color:#101243"/>
			<stop  offset="0.17" style="stop-color:#232E6B"/>
			<stop  offset="0.36" style="stop-color:#364A94"/>
			<stop  offset="0.62" style="stop-color:#2F81BF"/>
			<stop  offset="0.87" style="stop-color:#29B1E5"/>
			<stop  offset="1" style="stop-color:#27C3F3"/>
		</linearGradient>
		<rect x="2.4" y="0" class="st1" width="77.9" height="61.9"/>
	</g>
</g>
<g>
	<defs>
		<path id="SVGID_4_" d="M39.6,56.8c1.8,0.3,3.6,0.3,5.4-0.1C43.2,57.1,41.4,57.1,39.6,56.8 M38.6,56.6c0.3,0.1,0.6,0.1,0.9,0.2
			c-0.5-0.1-0.9-0.2-1.4-0.3L38.6,56.6 M45.8,56.5c-0.3,0.1-0.6,0.2-0.9,0.2c1.1-0.2,2.2-0.4,3.2-0.8L45.8,56.5z M48.1,56L48.1,56
			 M45.3,69.4c-10.2,16.6-5.8,31.1-5.8,31.1s18-14.2,26.9-28.3c0,0,3.9-4.8-3.7-10.5c-5.3-3.9-7.7-5.8-9.4-6.3
			C53.1,56.1,51.7,59,45.3,69.4L45.3,69.4z M51.1,55.3l-3,0.7l0,0l5.1-0.7c-0.4-0.1-0.8-0.2-1.1-0.2C51.7,55.1,51.4,55.2,51.1,55.3
			 M38.2,56.5c-3.7-1.2-7-3.4-9.5-6.4C31.1,53.2,34.4,55.5,38.2,56.5 M80.3,40.1L80.3,40.1 M51.6,16.8c-21.5,1.6-25.2,18-25.2,18
			s-2.9,7,1.1,13.6c0.4,0.6,0.8,1.2,1.2,1.7c-1.3-1.7-2.2-3.7-2.7-5.8c-0.7-2.8-0.6-5.7,0.2-8.4c1.8-8.4,10.1-13.7,18.5-11.8
			c7.1,1.6,12.2,7.9,12.2,15.1v5.1c-0.1,2.1,1.5,3.3,8.3,9.1s10.4,1.1,10.4,1.1c3-4.2,4.7-9.2,4.7-14.4c-0.1-0.4-6.9-23.4-26.7-23.4
			C52.9,16.7,52.3,16.8,51.6,16.8"/>
	</defs>
	<clipPath id="SVGID_5_">
		<use xlink:href="#SVGID_4_"  style="overflow:visible;"/>
	</clipPath>
	<g class="st2">
		
			<linearGradient id="SVGID_6_" gradientUnits="userSpaceOnUse" x1="207.4065" y1="128.5027" x2="212.9965" y2="128.5027" gradientTransform="matrix(-5.1747 14.3027 14.3027 5.1747 -698.4844 -3612.6042)">
			<stop  offset="0" style="stop-color:#101243"/>
			<stop  offset="0.17" style="stop-color:#232E6B"/>
			<stop  offset="0.36" style="stop-color:#364A94"/>
			<stop  offset="0.62" style="stop-color:#2F81BF"/>
			<stop  offset="0.87" style="stop-color:#29B1E5"/>
			<stop  offset="1" style="stop-color:#27C3F3"/>
		</linearGradient>
		<polygon class="st3" points="-3.4,90.7 30,-1.6 107.1,26.3 73.7,118.6 		"/>
	</g>
</g>
<g>
	<defs>
		<path id="SVGID_7_" d="M4.2,22.4C1.4,27.7,0,33.5,0,39.5v1.7c0.1,2.7,0.5,5.3,1.2,7.9c0.8,3.3,1.9,6.4,3.5,9.4
			c7.2,17.1,19.3,31.7,34.8,42.1c-0.1-17.9,4.2-27.1,9.5-35.7s4.3-9.5,4.3-9.5l-0.7-0.2c-1,0-1.9,0.1-2.9,0.5
			c-0.3,0.1-1.3,0.3-1.5,0.4c-0.3,0.2-0.6,0.4-0.8,0.6c-4.7,3.1-10.2,4.7-15.9,4.7c-15.9,0-28.8-13.6-28.8-28.6
			c0-4.5,0.1-7.3,1.9-11L4.2,22.4z"/>
	</defs>
	<clipPath id="SVGID_8_">
		<use xlink:href="#SVGID_7_"  style="overflow:visible;"/>
	</clipPath>
	<g class="st4">
		
			<linearGradient id="SVGID_9_" gradientUnits="userSpaceOnUse" x1="223.4768" y1="138.6826" x2="229.0568" y2="138.6826" gradientTransform="matrix(-9.54 0 0 9.54 2184.854 -1261.9822)">
			<stop  offset="0" style="stop-color:#101243"/>
			<stop  offset="0.17" style="stop-color:#232E6B"/>
			<stop  offset="0.36" style="stop-color:#364A94"/>
			<stop  offset="0.62" style="stop-color:#2F81BF"/>
			<stop  offset="0.87" style="stop-color:#29B1E5"/>
			<stop  offset="1" style="stop-color:#27C3F3"/>
		</linearGradient>
		<rect x="0" y="21.6" class="st5" width="54.2" height="79"/>
	</g>
</g>
<g>
	<defs>
		<rect id="SVGID_10_" width="225" height="100.5"/>
	</defs>
	<clipPath id="SVGID_11_">
		<use xlink:href="#SVGID_10_"  style="overflow:visible;"/>
	</clipPath>
	<g class="st6">
		<path class="st7" d="M113.5,22.4c7.3,0,13.5,2.8,17.4,7.7c1.1,1.5,0.7,2.9-1,3.8l-3.5,1.6c-1.5,0.8-2.7,0.4-3.8-0.9
			c-2.2-2.5-5.3-3.9-8.7-3.8c-6.7,0-11.9,5-11.9,14.4s5.3,14.4,11.9,14.4c3.3,0.1,6.5-1.3,8.7-3.8c1.2-1.3,2.3-1.7,3.8-0.9l3.5,1.6
			c1.7,0.8,2.2,2.3,1,3.8c-4,4.9-10.1,7.7-17.4,7.7c-13.1,0-21.8-9-21.8-22.7S100.4,22.4,113.5,22.4"/>
		<path class="st7" d="M143.7,31.3c-3-0.1-5.4-2.7-5.3-5.8c0.1-3,2.7-5.4,5.8-5.3c3,0.1,5.3,2.6,5.3,5.5c0,3.1-2.6,5.6-5.6,5.5
			c0,0,0,0,0,0H143.7 M141.7,34.5h4.1c1.4-0.1,2.6,0.9,2.8,2.2c0,0.2,0,0.3,0,0.5v27c0.1,1.4-0.9,2.6-2.3,2.8c-0.2,0-0.4,0-0.5,0
			h-4.1c-1.4,0.2-2.6-0.8-2.8-2.2c0-0.2,0-0.4,0-0.6v-27c-0.1-1.4,0.9-2.6,2.3-2.8c0,0,0,0,0,0C141.3,34.5,141.5,34.5,141.7,34.5"/>
		<path class="st7" d="M165.3,64.8l-10.1-27.1c-0.7-1.9,0.3-3.2,2.3-3.2h4.2c1.5-0.1,2.8,0.9,3.1,2.3l6.8,21.2l6.7-21.1
			c0.3-1.4,1.7-2.4,3.1-2.3h4.2c2,0,3,1.3,2.3,3.2l-10.1,27c-0.4,1.4-1.8,2.3-3.2,2.2h-6.1C167.1,67.1,165.7,66.2,165.3,64.8"/>
		<path class="st7" d="M200.1,77.1l4-10.7l-11.9-28.7c-0.8-2,0.1-3.2,2.2-3.2h4c1.4-0.1,2.8,0.8,3.2,2.2l7,18.4l6.7-18.4
			c0.4-1.4,1.8-2.3,3.3-2.2h3.9c2,0,3,1.3,2.2,3.2l-15.3,40.4c-0.4,1.4-1.8,2.3-3.2,2.2h-3.9C200.4,80.3,199.4,79,200.1,77.1"/>
		<path class="st8" d="M92.2,70.4h5.1c0.3-0.1,0.6,0.1,0.6,0.4c0,0,0,0,0,0c0,0.1,0,0.1,0,0.2v0.5c0,0.3-0.2,0.6-0.5,0.6h-3.7v2h3.1
			c0.3,0,0.6,0.2,0.6,0.5v0.6c0,0.3-0.2,0.5-0.5,0.6h-3.2V78h3.7c0.3,0,0.6,0.2,0.6,0.5c0,0,0,0,0,0v0.6c0,0.3-0.2,0.5-0.5,0.5h-5.4
			c-0.3,0-0.6-0.2-0.6-0.5V71c0-0.3,0.2-0.6,0.5-0.6c0,0,0,0,0,0L92.2,70.4"/>
		<path class="st8" d="M101.5,75v4.1c0,0.3-0.2,0.5-0.5,0.6h-1c-0.3,0-0.6-0.2-0.6-0.5v-5.8c0-0.3,0.2-0.6,0.5-0.6c0,0,0,0,0,0
			c0,0,0.1,0,0.1,0h0.9c0.3,0,0.6,0.2,0.6,0.5c0,0,0,0.1,0,0.1v0.2c0.6-0.6,1.4-0.9,2.3-0.9c1.3-0.1,2.4,0.9,2.5,2.2c0,0,0,0,0,0
			c0,0.1,0,0.3,0,0.4v3.8c0,0.3-0.2,0.5-0.5,0.6h-1c-0.3,0-0.6-0.2-0.6-0.5v-3.7c0-0.8-0.4-1.3-1.1-1.3
			C102.5,74.3,101.9,74.6,101.5,75"/>
		<path class="st8" d="M113.3,72.8h0.9c0.3,0,0.6,0.2,0.6,0.5v6c0,2.2-1.3,3.4-3.5,3.4c-1,0-2-0.3-2.8-0.9c-0.3-0.3-0.3-0.6,0.1-0.8
			l0.4-0.3c0.3-0.2,0.6-0.2,0.8,0.1c0.4,0.3,0.9,0.5,1.3,0.5c0.8,0.1,1.5-0.6,1.6-1.4c0-0.1,0-0.2,0-0.3V79
			c-0.6,0.5-1.3,0.8-2.1,0.8c-1.8,0-3-1.3-3-3.6s1.2-3.6,3-3.6c0.8,0,1.5,0.3,2.1,0.8v-0.3C112.7,72.9,112.9,72.8,113.3,72.8
			 M112.7,77.6v-2.8c-0.4-0.4-0.9-0.6-1.4-0.6c-1,0-1.6,0.7-1.6,2s0.5,2,1.6,2C111.8,78.3,112.3,78,112.7,77.6"/>
		<path class="st8" d="M119.2,74.3c-0.4,0-0.8,0.1-1.2,0.3c-0.3,0.2-0.6,0.1-0.8-0.1l-0.3-0.3c-0.2-0.1-0.3-0.4-0.2-0.6
			c0-0.1,0.1-0.1,0.2-0.2c0.8-0.5,1.6-0.7,2.5-0.7c2.3,0,3.1,1.2,3.1,3v3.5c0,0.3-0.2,0.6-0.5,0.6c0,0,0,0,0,0h-0.9
			c-0.4,0-0.6-0.2-0.6-0.5c-0.6,0.5-1.3,0.7-2,0.7c-1.2,0.2-2.4-0.7-2.6-1.9s0.7-2.4,1.9-2.6c0.2,0,0.4,0,0.7,0
			c0.7-0.1,1.4,0.2,2,0.7v-0.5C120.6,74.8,120.2,74.3,119.2,74.3 M119.2,76.9c-0.7,0-1.1,0.3-1.1,0.8s0.4,0.8,1.1,0.8
			c0.5,0,1-0.2,1.4-0.5v-0.5C120.2,77.1,119.7,76.9,119.2,76.9"/>
		<path class="st8" d="M129.6,72.8h0.9c0.3,0,0.6,0.2,0.6,0.5v6c0,2.2-1.3,3.4-3.5,3.4c-1,0-2-0.3-2.8-0.9c-0.3-0.3-0.3-0.6,0.1-0.8
			l0.4-0.3c0.3-0.2,0.6-0.2,0.8,0.1c0.4,0.3,0.9,0.5,1.3,0.5c0.8,0.1,1.5-0.6,1.6-1.4c0-0.1,0-0.2,0-0.3V79c-0.6,0.5-1.3,0.8-2,0.8
			c-1.8,0-3-1.3-3-3.6s1.2-3.6,3-3.6c0.7,0,1.5,0.3,2,0.8v-0.3C129,73,129.2,72.9,129.6,72.8 M129.1,77.6v-2.8
			c-0.4-0.4-0.9-0.6-1.4-0.6c-1,0-1.6,0.7-1.6,2s0.5,2,1.6,2C128.2,78.3,128.7,78,129.1,77.6"/>
		<path class="st8" d="M134,72.2c-0.6,0-1.2-0.5-1.2-1.2c0-0.6,0.5-1.2,1.2-1.2c0,0,0,0,0,0c0.6,0,1.2,0.5,1.2,1.1c0,0,0,0,0,0
			C135.1,71.6,134.6,72.1,134,72.2 M133.6,72.8h0.9c0.3,0,0.6,0.2,0.6,0.5v5.8c0,0.3-0.2,0.5-0.5,0.6h-1c-0.3,0-0.6-0.2-0.6-0.5
			v-5.8c0-0.3,0.2-0.5,0.5-0.6L133.6,72.8"/>
		<path class="st8" d="M138.8,75v4.1c0,0.3-0.2,0.5-0.5,0.6h-1c-0.3,0-0.6-0.2-0.6-0.5v-5.8c0-0.3,0.2-0.6,0.5-0.6h1
			c0.3,0,0.6,0.2,0.6,0.5c0,0,0,0,0,0v0.3c0.6-0.6,1.4-0.9,2.3-0.9c1.3-0.1,2.4,0.9,2.5,2.1c0,0,0,0,0,0c0,0.1,0,0.3,0,0.4v3.8
			c0,0.3-0.2,0.5-0.5,0.6h-1c-0.3,0-0.6-0.2-0.6-0.5v-3.7c0-0.8-0.4-1.3-1.1-1.3C139.8,74.3,139.2,74.6,138.8,75"/>
		<path class="st8" d="M150.6,72.8h0.9c0.3,0,0.6,0.2,0.6,0.5v6c0,2.2-1.3,3.4-3.5,3.4c-1,0-2-0.3-2.8-0.9c-0.3-0.3-0.3-0.6,0.1-0.8
			l0.4-0.3c0.3-0.2,0.6-0.2,0.8,0.1c0.4,0.3,0.9,0.5,1.3,0.5c0.8,0.1,1.5-0.6,1.6-1.4c0-0.1,0-0.2,0-0.3V79c-0.5,0.5-1.3,0.8-2,0.8
			c-1.8,0-3-1.3-3-3.6s1.2-3.6,3-3.6c0.7,0,1.5,0.3,2,0.8v-0.3C150,73,150.2,72.9,150.6,72.8 M150,77.7v-2.8
			c-0.4-0.4-0.9-0.6-1.4-0.6c-1,0-1.6,0.7-1.6,2s0.5,2,1.6,2C149.1,78.3,149.6,78,150,77.7"/>
		<path class="st8" d="M162.1,70.3c1.4-0.1,2.8,0.5,3.7,1.6c0.2,0.2,0.2,0.5,0,0.7c0,0,0,0,0,0c-0.1,0.1-0.1,0.1-0.2,0.1l-0.7,0.3
			c-0.3,0.1-0.6,0.1-0.8-0.2c-0.5-0.5-1.1-0.8-1.8-0.8c-1.4,0-2.5,1-2.5,3s1.1,3,2.5,3c0.7,0,1.4-0.3,1.8-0.8
			c0.2-0.3,0.5-0.4,0.8-0.2l0.7,0.3c0.3,0.1,0.4,0.3,0.3,0.6c0,0,0,0,0,0c0,0.1-0.1,0.1-0.1,0.2c-0.9,1.1-2.3,1.7-3.7,1.6
			c-2.6-0.1-4.7-2.4-4.6-5C157.7,72.3,159.7,70.3,162.1,70.3"/>
		<path class="st8" d="M168.5,72.2c-0.6,0-1.1-0.6-1.1-1.2c0-0.6,0.6-1.1,1.2-1.1c0.6,0,1.1,0.5,1.1,1.2
			C169.7,71.7,169.2,72.2,168.5,72.2C168.5,72.2,168.5,72.2,168.5,72.2L168.5,72.2 M168.1,72.9h0.9c0.3,0,0.6,0.2,0.6,0.5
			c0,0,0,0,0,0v5.8c0,0.3-0.2,0.5-0.5,0.6h-1c-0.3,0-0.6-0.2-0.6-0.5v-5.8c0-0.3,0.2-0.5,0.5-0.6L168.1,72.9"/>
		<path class="st8" d="M171.9,77v-2.6h-0.6c-0.3,0-0.6-0.2-0.6-0.5v-0.5c0-0.3,0.2-0.6,0.5-0.6h0.7v-1.5c0-0.3,0.2-0.6,0.5-0.6
			c0,0,0,0,0,0h1c0.3,0,0.5,0.2,0.6,0.5v1.6h1.1c0.3,0,0.6,0.2,0.6,0.5c0,0,0,0.1,0,0.1v0.4c0,0.3-0.2,0.6-0.5,0.6c0,0,0,0,0,0h-1.2
			v2.8c0,0.8,0.3,1,1.1,1c0,0,0.6,0.2,0.6,0.6v0.4c0,0.3-0.2,0.5-0.5,0.6c0,0,0,0,0,0c0,0-0.1,0-0.1,0h-0.6
			C172.5,79.8,171.9,78.9,171.9,77"/>
		<path class="st8" d="M177.9,72.2c-0.6,0-1.1-0.6-1.1-1.2c0-0.6,0.6-1.1,1.2-1.1c0.6,0,1.1,0.6,1.1,1.2l0,0
			C179.1,71.7,178.6,72.2,177.9,72.2C178,72.2,178,72.2,177.9,72.2L177.9,72.2 M177.5,72.9h0.9c0.3,0,0.6,0.2,0.6,0.5c0,0,0,0,0,0
			v5.8c0,0.3-0.2,0.5-0.5,0.6h-1c-0.3,0-0.6-0.2-0.6-0.5v-5.8c0-0.3,0.2-0.5,0.5-0.6L177.5,72.9"/>
		<path class="st8" d="M187.4,76.3c0,0.4-0.2,0.6-0.6,0.6h-4.4c0.1,0.9,0.9,1.4,1.8,1.4c0.4,0,0.8-0.1,1.1-0.4
			c0.2-0.2,0.6-0.3,0.8-0.1l0.4,0.3c0.3,0.2,0.4,0.5,0.1,0.8c-0.7,0.6-1.6,1-2.6,0.9c-1.9,0.1-3.6-1.3-3.7-3.2c0,0,0,0,0,0
			c0-0.1,0-0.3,0-0.4c0-1.9,1.6-3.5,3.5-3.5s3.5,1.6,3.5,3.5L187.4,76.3z M182.4,75.5h3c0-0.8-0.7-1.3-1.4-1.3l0,0
			C183.2,74.2,182.5,74.8,182.4,75.5L182.4,75.5"/>
		<path class="st8" d="M191.3,72.6c0.9,0,1.7,0.2,2.5,0.7c0.2,0.1,0.3,0.4,0.2,0.6c0,0.1-0.1,0.1-0.2,0.2l-0.3,0.2
			c-0.2,0.2-0.6,0.2-0.8,0c-0.3-0.2-0.7-0.3-1-0.3c-0.6,0-0.9,0.1-0.9,0.4s0.3,0.5,1.6,0.9s2.2,1.1,2.2,2.2s-1,2.1-2.9,2.1
			c-1,0-2.1-0.3-2.9-0.9c-0.3-0.3-0.3-0.6,0.1-0.8l0.4-0.3c0.2-0.2,0.6-0.2,0.8,0c0.4,0.3,0.9,0.5,1.4,0.5c0.6,0,1-0.2,1-0.5
			s-0.3-0.6-1.4-0.9c-1.7-0.5-2.4-1.2-2.4-2.3S189.7,72.6,191.3,72.6"/>
	</g>
</g>
</svg>
