<?xml version="1.0" encoding="utf-8"?>
<!-- Generator: Adobe Illustrator 17.0.0, SVG Export Plug-In . SVG Version: 6.00 Build 0)  -->
<!DOCTYPE svg PUBLIC "-//W3C//DTD SVG 1.1//EN" "http://www.w3.org/Graphics/SVG/1.1/DTD/svg11.dtd">
<svg version="1.1" id="Layer_1" xmlns="http://www.w3.org/2000/svg" xmlns:xlink="http://www.w3.org/1999/xlink" x="0px" y="0px"
	 width="30px" height="20px" viewBox="241 246 30 20" enable-background="new 241 246 30 20" xml:space="preserve">
<g>
	<path fill="#D60A2E" d="M241,246h30v20h-30V246z"/>
	<g>
		<path fill="#FED953" d="M245.999,249.648l1.051,2.038l2.351,0.327l-1.701,1.586l0.402,2.24l-2.103-1.057l-2.103,1.057l0.402-2.24
			l-1.701-1.586l2.351-0.327L245.999,249.648z"/>
		<path fill="#FED953" d="M252.227,253.559l0.42,0.814l0.94,0.13l-0.68,0.634l0.16,0.895l-0.84-0.422l-0.84,0.422l0.16-0.895
			l-0.68-0.634l0.94-0.13L252.227,253.559z"/>
		<path fill="#FED953" d="M251.73,249.999l0.768,0.534l0.895-0.302l-0.294,0.863l0.577,0.721l-0.949-0.001l-0.539,0.748
			l-0.293-0.864l-0.91-0.259l0.768-0.533L251.73,249.999z"/>
		<path fill="#FED953" d="M250.498,247.543l-0.179,0.892l0.666,0.647l-0.942,0.112l-0.437,0.806l-0.403-0.822l-0.937-0.149
			l0.693-0.62l-0.142-0.898l0.831,0.439L250.498,247.543z"/>
		<path fill="#FED953" d="M250.498,256.678l-0.179,0.892l0.666,0.647l-0.942,0.112l-0.437,0.806l-0.403-0.822l-0.937-0.149
			l0.693-0.62l-0.142-0.898l0.831,0.439L250.498,256.678z"/>
	</g>
</g>
</svg>
