<?xml version="1.0" encoding="utf-8"?>
<!-- Generator: Adobe Illustrator 17.0.0, SVG Export Plug-In . SVG Version: 6.00 Build 0)  -->
<!DOCTYPE svg PUBLIC "-//W3C//DTD SVG 1.1//EN" "http://www.w3.org/Graphics/SVG/1.1/DTD/svg11.dtd">
<svg version="1.1" id="Layer_1" xmlns="http://www.w3.org/2000/svg" xmlns:xlink="http://www.w3.org/1999/xlink" x="0px" y="0px"
	 width="30px" height="20px" viewBox="885 390 30 20" enable-background="new 885 390 30 20" xml:space="preserve">
<g>
	<path fill="#FAB446" d="M915,396.724h-30v-6.497c0-0.286,0.232-0.232,0.517-0.232h28.965c0.286,0,0.517-0.054,0.517,0.232
		L915,396.724L915,396.724z"/>
	<path fill="#73AF00" d="M914.483,410.114h-28.965c-0.286,0-0.517,0.054-0.517-0.232v-6.606h30v6.606
		C915,410.168,914.768,410.114,914.483,410.114z"/>
	<rect x="885" y="396.724" fill="#F5F5F5" width="30" height="6.551"/>
	<g>
		<path fill="#41479B" d="M900,402.78c-1.533,0-2.78-1.247-2.78-2.78c0-1.533,1.247-2.78,2.78-2.78c1.533,0,2.78,1.247,2.78,2.78
			C902.78,401.533,901.533,402.78,900,402.78z M900,397.737c-1.248,0-2.263,1.015-2.263,2.263s1.015,2.263,2.263,2.263
			c1.248,0,2.263-1.015,2.263-2.263S901.248,397.737,900,397.737z"/>
		<circle fill="#41479B" cx="900" cy="400" r="0.315"/>
		<polygon fill="#41479B" points="900,400.047 899.199,400.128 897.478,400.047 897.478,399.953 899.199,399.872 900,399.953 		"/>
		<polygon fill="#41479B" points="900,400.047 900.801,400.128 902.521,400.047 902.521,399.953 900.801,399.872 900,399.953 		"/>
		<polygon fill="#41479B" points="899.953,400 899.872,399.199 899.953,397.478 900.047,397.478 900.128,399.199 900.047,400 		"/>
		<polygon fill="#41479B" points="899.953,400 899.872,400.801 899.953,402.522 900.047,402.522 900.128,400.801 900.047,400 		"/>
		<polygon fill="#41479B" points="899.967,400.033 899.343,399.524 898.184,398.25 898.25,398.184 899.524,399.343 900.033,399.967 
					"/>
		<polygon fill="#41479B" points="899.967,400.033 900.476,400.657 901.75,401.816 901.816,401.75 900.657,400.476 900.033,399.967 
					"/>
		<polygon fill="#41479B" points="899.967,399.967 900.476,399.343 901.75,398.184 901.816,398.25 900.657,399.524 900.033,400.033 
					"/>
		<polygon fill="#41479B" points="899.967,399.967 899.343,400.476 898.184,401.75 898.25,401.816 899.524,400.657 900.033,400.033 
					"/>
		<polygon fill="#41479B" points="900.018,400.044 899.309,400.425 897.689,401.009 897.652,400.921 899.211,400.188 
			899.982,399.956 		"/>
		<polygon fill="#41479B" points="900.018,400.044 900.789,399.812 902.348,399.079 902.311,398.991 900.691,399.575 
			899.982,399.956 		"/>
		<polygon fill="#41479B" points="899.956,400.018 899.575,399.309 898.991,397.689 899.079,397.652 899.812,399.211 
			900.044,399.982 		"/>
		<polygon fill="#41479B" points="899.956,400.018 900.188,400.789 900.921,402.348 901.009,402.311 900.425,400.691 
			900.044,399.982 		"/>
		<polygon fill="#41479B" points="899.982,400.044 899.211,399.812 897.652,399.079 897.689,398.991 899.309,399.575 
			900.018,399.956 		"/>
		<polygon fill="#41479B" points="899.982,400.044 900.691,400.425 902.311,401.009 902.348,400.921 900.789,400.188 
			900.018,399.956 		"/>
		<polygon fill="#41479B" points="899.956,399.982 900.188,399.211 900.921,397.652 901.009,397.689 900.425,399.309 
			900.044,400.018 		"/>
		<polygon fill="#41479B" points="899.956,399.982 899.575,400.691 898.991,402.311 899.079,402.348 899.812,400.789 
			900.044,400.018 		"/>
	</g>
	<circle fill="#F5F5F5" cx="900" cy="400" r="0.425"/>
	<circle fill="#41479B" cx="900" cy="400" r="0.255"/>
</g>
</svg>
