<?xml version="1.0" encoding="utf-8"?>
<!-- Generator: Adobe Illustrator 17.0.0, SVG Export Plug-In . SVG Version: 6.00 Build 0)  -->
<!DOCTYPE svg PUBLIC "-//W3C//DTD SVG 1.1//EN" "http://www.w3.org/Graphics/SVG/1.1/DTD/svg11.dtd">
<svg version="1.1" id="Layer_1" xmlns="http://www.w3.org/2000/svg" xmlns:xlink="http://www.w3.org/1999/xlink" x="0px" y="0px"
	 width="30px" height="20px" viewBox="885 383.158 30 20" enable-background="new 885 383.158 30 20" xml:space="preserve">
<g>
	<path fill="#C8414B" d="M885.517,403.272h28.965c0.286,0,0.517,0.054,0.517-0.232v-19.624c0-0.286-0.232-0.232-0.517-0.232h-28.965
		c-0.286,0-0.517-0.054-0.517,0.232v19.624C885,403.326,885.232,403.272,885.517,403.272z"/>
	<rect x="885" y="387.725" fill="#FFD250" width="30" height="11.379"/>
	<path fill="#C8414B" d="M897.672,393.415l0.439-1.973c0.04-0.182-0.098-0.354-0.284-0.354h-0.309c-0.186,0-0.324,0.172-0.284,0.354
		L897.672,393.415z"/>
	<rect x="897.155" y="392.38" fill="#F5F5F5" width="1.034" height="4.396"/>
	<rect x="896.896" y="391.863" fill="#FAB446" width="1.552" height="0.517"/>
	<g>
		<rect x="895.862" y="393.415" fill="#C8414B" width="2.586" height="0.517"/>
		<polygon fill="#C8414B" points="898.448,395.484 896.896,394.966 896.896,394.449 898.448,394.966 		"/>
		<path fill="#C8414B" d="M889.914,393.415l0.439-1.973c0.04-0.182-0.098-0.354-0.284-0.354h-0.309
			c-0.186,0-0.324,0.172-0.284,0.354L889.914,393.415z"/>
	</g>
	<path fill="#F5F5F5" d="M891.724,391.863c-0.286,0-0.517,0.232-0.517,0.517v3.362c0,0.628,0.586,1.81,2.586,1.81
		s2.586-1.182,2.586-1.81v-3.362c0-0.286-0.232-0.517-0.517-0.517H891.724z"/>
	<g>
		<path fill="#C8414B" d="M893.793,394.449h-2.586v-2.069c0-0.286,0.232-0.517,0.517-0.517h2.069V394.449z"/>
		<path fill="#C8414B" d="M893.793,394.449h2.586v1.293c0,0.714-0.579,1.293-1.293,1.293l0,0c-0.714,0-1.293-0.579-1.293-1.293
			V394.449z"/>
	</g>
	<path fill="#FAB446" d="M891.207,394.449h2.586v1.293c0,0.714-0.579,1.293-1.293,1.293l0,0c-0.714,0-1.293-0.579-1.293-1.293
		V394.449z"/>
	<g>
		<path fill="#C8414B" d="M893.276,396.771v-2.322h-0.517v2.56C892.951,396.97,893.125,396.885,893.276,396.771z"/>
		<path fill="#C8414B" d="M892.241,397.009v-2.56h-0.517v2.322C891.875,396.885,892.049,396.97,892.241,397.009z"/>
	</g>
	<rect x="891.724" y="393.415" fill="#FFB441" width="1.552" height="0.517"/>
	<g>
		<rect x="891.724" y="392.38" fill="#FAB446" width="1.552" height="0.517"/>
		<rect x="891.983" y="392.688" fill="#FAB446" width="1.034" height="0.937"/>
	</g>
	<rect x="889.396" y="392.38" fill="#F5F5F5" width="1.034" height="4.396"/>
	<g>
		<rect x="889.138" y="396.518" fill="#FAB446" width="1.552" height="0.517"/>
		<rect x="889.138" y="391.863" fill="#FAB446" width="1.552" height="0.517"/>
	</g>
	<rect x="888.879" y="397.035" fill="#5064AA" width="2.069" height="0.517"/>
	<rect x="897.155" y="396.518" fill="#FAB446" width="1.552" height="0.517"/>
	<rect x="896.638" y="397.035" fill="#5064AA" width="2.069" height="0.517"/>
	<rect x="892.242" y="391.346" fill="#FAB446" width="3.103" height="0.517"/>
	<rect x="893.535" y="389.794" fill="#FFB441" width="0.517" height="1.552"/>
	<g>
		<path fill="#F5F5F5" d="M893.276,390.57c-0.428,0-0.776-0.348-0.776-0.776c0-0.428,0.348-0.776,0.776-0.776
			c0.428,0,0.776,0.348,0.776,0.776C894.052,390.222,893.704,390.57,893.276,390.57z M893.276,389.535
			c-0.143,0-0.259,0.116-0.259,0.259c0,0.143,0.116,0.259,0.259,0.259c0.143,0,0.259-0.116,0.259-0.259
			C893.534,389.651,893.419,389.535,893.276,389.535z"/>
		<path fill="#F5F5F5" d="M894.31,390.57c-0.428,0-0.776-0.348-0.776-0.776c0-0.428,0.348-0.776,0.776-0.776
			c0.428,0,0.776,0.348,0.776,0.776S894.738,390.57,894.31,390.57z M894.31,389.535c-0.143,0-0.259,0.116-0.259,0.259
			c0,0.143,0.116,0.259,0.259,0.259c0.143,0,0.259-0.116,0.259-0.259C894.569,389.651,894.453,389.535,894.31,389.535z"/>
		<path fill="#F5F5F5" d="M895.345,391.087c-0.428,0-0.776-0.348-0.776-0.776c0-0.428,0.348-0.776,0.776-0.776
			c0.428,0,0.776,0.348,0.776,0.776S895.773,391.087,895.345,391.087z M895.345,390.053c-0.143,0-0.259,0.116-0.259,0.259
			c0,0.143,0.116,0.259,0.259,0.259c0.143,0,0.259-0.116,0.259-0.259S895.487,390.053,895.345,390.053z"/>
		<path fill="#F5F5F5" d="M892.241,391.087c-0.428,0-0.776-0.348-0.776-0.776c0-0.428,0.348-0.776,0.776-0.776
			c0.428,0,0.776,0.348,0.776,0.776C893.017,390.739,892.669,391.087,892.241,391.087z M892.241,390.053
			c-0.143,0-0.259,0.116-0.259,0.259c0,0.143,0.116,0.259,0.259,0.259c0.143,0,0.259-0.116,0.259-0.259
			C892.5,390.169,892.384,390.053,892.241,390.053z"/>
	</g>
	<path fill="#FAB446" d="M895.345,395.484v0.259c0,0.143-0.116,0.259-0.259,0.259c-0.143,0-0.259-0.116-0.259-0.259v-0.259H895.345
		 M895.862,394.966h-1.552v0.776c0,0.428,0.348,0.776,0.776,0.776c0.428,0,0.776-0.348,0.776-0.776V394.966L895.862,394.966z"/>
	<path fill="#FFA0D2" d="M895.086,393.932L895.086,393.932c-0.286,0-0.517-0.232-0.517-0.517v-0.517
		c0-0.286,0.232-0.517,0.517-0.517l0,0c0.286,0,0.517,0.232,0.517,0.517v0.517C895.603,393.7,895.372,393.932,895.086,393.932z"/>
	<circle fill="#5064AA" cx="893.793" cy="394.449" r="0.776"/>
	<rect x="893.535" y="388.759" fill="#FAB446" width="0.517" height="1.552"/>
	<path fill="#C8414B" d="M892.241,391.346l-0.517-0.517l0.303-0.303c0.468-0.468,1.104-0.731,1.766-0.731l0,0
		c0.662,0,1.298,0.263,1.766,0.731l0.303,0.303l-0.517,0.517H892.241z"/>
	<g>
		<circle fill="#FFD250" cx="893.793" cy="390.828" r="0.259"/>
		<circle fill="#FFD250" cx="892.758" cy="390.828" r="0.259"/>
		<circle fill="#FFD250" cx="894.827" cy="390.828" r="0.259"/>
	</g>
	<g>
		<rect x="889.138" y="393.415" fill="#C8414B" width="2.586" height="0.517"/>
		<polygon fill="#C8414B" points="889.138,395.484 890.69,394.966 890.69,394.449 889.138,394.966 		"/>
	</g>
</g>
</svg>
