<?xml version="1.0" encoding="utf-8"?>
<!-- Generator: Adobe Illustrator 17.0.0, SVG Export Plug-In . SVG Version: 6.00 Build 0)  -->
<!DOCTYPE svg PUBLIC "-//W3C//DTD SVG 1.1//EN" "http://www.w3.org/Graphics/SVG/1.1/DTD/svg11.dtd">
<svg version="1.1" id="Layer_1" xmlns="http://www.w3.org/2000/svg" xmlns:xlink="http://www.w3.org/1999/xlink" x="0px" y="0px"
	 width="30px" height="20px" viewBox="241 246 30 20" enable-background="new 241 246 30 20" xml:space="preserve">
<g>
	<path fill="#E6E7E8" d="M271,263.99v1.549c-0.002,0.551-0.259,0.454-0.83,0.456l-28.496-0.01c-0.571-0.002-0.671,0.03-0.673-0.521
		L241,263.99H271z"/>
	<path fill="#C03A2B" d="M270.998,246.456L271,263.99h-30v-16.983c0.002-0.551,0.464-0.997,1.035-0.999h27.931
		C270.536,246.009,270.997,245.905,270.998,246.456z"/>
	<path fill="#285680" d="M242.035,246.008h13.448v9.99H241v-9.542C241,245.904,241.463,246.008,242.035,246.008z"/>
	<path fill="#E6E7E8" d="M255.483,248.006H271v1.998h-15.517V248.006z"/>
	<path fill="#E6E7E8" d="M255.483,252.002H271V254h-15.517V252.002z"/>
	<path fill="#E6E7E8" d="M241,255.998h30v1.998h-30V255.998z"/>
	<path fill="#E6E7E8" d="M259.786,261.992H271v-1.998h-30v1.998h11.214"/>
	<g>
		<path fill="#ECF0F1" d="M242.035,246.507l0.24,0.469l0.536,0.075l-0.388,0.365l0.092,0.515l-0.48-0.243l-0.48,0.243l0.092-0.515
			l-0.388-0.365l0.536-0.075L242.035,246.507z"/>
		<path fill="#ECF0F1" d="M244.103,246.507l0.24,0.469l0.536,0.075l-0.388,0.365l0.092,0.515l-0.48-0.243l-0.48,0.243l0.092-0.515
			l-0.388-0.365l0.536-0.075L244.103,246.507z"/>
		<path fill="#ECF0F1" d="M246.173,246.507l0.24,0.469l0.536,0.075l-0.388,0.365l0.092,0.515l-0.48-0.243l-0.48,0.243l0.092-0.515
			l-0.388-0.365l0.536-0.075L246.173,246.507z"/>
		<path fill="#ECF0F1" d="M248.241,246.507l0.24,0.469l0.536,0.075l-0.388,0.365l0.092,0.515l-0.48-0.243l-0.48,0.243l0.092-0.515
			l-0.388-0.365l0.536-0.075L248.241,246.507z"/>
		<path fill="#ECF0F1" d="M250.31,246.507l0.24,0.469l0.536,0.075l-0.388,0.365l0.092,0.515l-0.479-0.243l-0.48,0.243l0.092-0.515
			l-0.388-0.365l0.536-0.075L250.31,246.507z"/>
		<path fill="#ECF0F1" d="M252.379,246.507l0.24,0.469l0.536,0.075l-0.388,0.365l0.092,0.515l-0.48-0.243l-0.48,0.243l0.092-0.515
			l-0.388-0.365l0.536-0.075L252.379,246.507z"/>
		<path fill="#ECF0F1" d="M254.448,246.507l0.24,0.469l0.536,0.075l-0.388,0.365l0.092,0.515l-0.48-0.243l-0.479,0.243l0.092-0.515
			l-0.388-0.365l0.536-0.075L254.448,246.507z"/>
		<path fill="#ECF0F1" d="M243.198,248.399l0.24,0.469l0.536,0.075l-0.388,0.365l0.092,0.515l-0.48-0.244l-0.479,0.244l0.092-0.515
			l-0.388-0.365l0.536-0.075L243.198,248.399z"/>
		<path fill="#ECF0F1" d="M245.267,248.399l0.24,0.469l0.536,0.075l-0.388,0.365l0.092,0.515l-0.48-0.244l-0.48,0.244l0.092-0.515
			l-0.388-0.365l0.536-0.075L245.267,248.399z"/>
		<path fill="#ECF0F1" d="M247.336,248.399l0.24,0.469l0.536,0.075l-0.388,0.365l0.092,0.515l-0.48-0.244l-0.48,0.244l0.092-0.515
			l-0.388-0.365l0.536-0.075L247.336,248.399z"/>
		<path fill="#ECF0F1" d="M249.405,248.399l0.24,0.469l0.536,0.075l-0.388,0.365l0.092,0.515l-0.48-0.244l-0.48,0.244l0.092-0.515
			l-0.388-0.365l0.536-0.075L249.405,248.399z"/>
		<path fill="#ECF0F1" d="M251.474,248.399l0.24,0.469l0.536,0.075l-0.388,0.365l0.092,0.515l-0.48-0.244l-0.48,0.244l0.092-0.515
			l-0.388-0.365l0.536-0.075L251.474,248.399z"/>
		<path fill="#ECF0F1" d="M253.543,248.399l0.24,0.469l0.536,0.075l-0.388,0.365l0.092,0.515l-0.48-0.244l-0.48,0.244l0.092-0.515
			l-0.388-0.365l0.536-0.075L253.543,248.399z"/>
		<path fill="#ECF0F1" d="M242.035,250.29l0.24,0.469l0.536,0.075l-0.388,0.365l0.092,0.516l-0.48-0.244l-0.48,0.244l0.092-0.516
			l-0.388-0.365l0.536-0.075L242.035,250.29z"/>
		<path fill="#ECF0F1" d="M244.103,250.29l0.24,0.469l0.536,0.075l-0.388,0.365l0.092,0.516l-0.48-0.244l-0.48,0.244l0.092-0.516
			l-0.388-0.365l0.536-0.075L244.103,250.29z"/>
		<path fill="#ECF0F1" d="M246.173,250.29l0.24,0.469l0.536,0.075l-0.388,0.365l0.092,0.516l-0.48-0.244l-0.48,0.244l0.092-0.516
			l-0.388-0.365l0.536-0.075L246.173,250.29z"/>
		<path fill="#ECF0F1" d="M248.241,250.29l0.24,0.469l0.536,0.075l-0.388,0.365l0.092,0.516l-0.48-0.244l-0.48,0.244l0.092-0.516
			l-0.388-0.365l0.536-0.075L248.241,250.29z"/>
		<path fill="#ECF0F1" d="M250.31,250.29l0.24,0.469l0.536,0.075l-0.388,0.365l0.092,0.516l-0.479-0.244l-0.48,0.244l0.092-0.516
			l-0.388-0.365l0.536-0.075L250.31,250.29z"/>
		<path fill="#ECF0F1" d="M252.379,250.29l0.24,0.469l0.536,0.075l-0.388,0.365l0.092,0.516l-0.48-0.244l-0.48,0.244l0.092-0.516
			l-0.388-0.365l0.536-0.075L252.379,250.29z"/>
		<path fill="#ECF0F1" d="M254.448,250.29l0.24,0.469l0.536,0.075l-0.388,0.365l0.092,0.516l-0.48-0.244l-0.479,0.244l0.092-0.516
			l-0.388-0.365l0.536-0.075L254.448,250.29z"/>
		<path fill="#ECF0F1" d="M242.035,254.073l0.24,0.469l0.536,0.075l-0.388,0.365l0.092,0.515l-0.48-0.243l-0.48,0.243l0.092-0.515
			l-0.388-0.365l0.536-0.075L242.035,254.073z"/>
		<path fill="#ECF0F1" d="M244.103,254.073l0.24,0.469l0.536,0.075l-0.388,0.365l0.092,0.515l-0.48-0.243l-0.48,0.243l0.092-0.515
			l-0.388-0.365l0.536-0.075L244.103,254.073z"/>
		<path fill="#ECF0F1" d="M246.173,254.073l0.24,0.469l0.536,0.075l-0.388,0.365l0.092,0.515l-0.48-0.243l-0.48,0.243l0.092-0.515
			l-0.388-0.365l0.536-0.075L246.173,254.073z"/>
		<path fill="#ECF0F1" d="M248.241,254.073l0.24,0.469l0.536,0.075l-0.388,0.365l0.092,0.515l-0.48-0.243l-0.48,0.243l0.092-0.515
			l-0.388-0.365l0.536-0.075L248.241,254.073z"/>
		<path fill="#ECF0F1" d="M250.31,254.073l0.24,0.469l0.536,0.075l-0.388,0.365l0.092,0.515l-0.479-0.243l-0.48,0.243l0.092-0.515
			l-0.388-0.365l0.536-0.075L250.31,254.073z"/>
		<path fill="#ECF0F1" d="M252.379,254.073l0.24,0.469l0.536,0.075l-0.388,0.365l0.092,0.515l-0.48-0.243l-0.48,0.243l0.092-0.515
			l-0.388-0.365l0.536-0.075L252.379,254.073z"/>
		<path fill="#ECF0F1" d="M254.448,254.073l0.24,0.469l0.536,0.075l-0.388,0.365l0.092,0.515l-0.48-0.243l-0.479,0.243l0.092-0.515
			l-0.388-0.365l0.536-0.075L254.448,254.073z"/>
		<path fill="#ECF0F1" d="M243.198,252.182l0.24,0.469l0.536,0.075l-0.388,0.365l0.092,0.515l-0.48-0.243l-0.479,0.243l0.092-0.515
			l-0.388-0.365l0.536-0.075L243.198,252.182z"/>
		<path fill="#ECF0F1" d="M245.267,252.182l0.24,0.469l0.536,0.075l-0.388,0.365l0.092,0.515l-0.48-0.243l-0.48,0.243l0.092-0.515
			l-0.388-0.365l0.536-0.075L245.267,252.182z"/>
		<path fill="#ECF0F1" d="M247.336,252.182l0.24,0.469l0.536,0.075l-0.388,0.365l0.092,0.515l-0.48-0.243l-0.48,0.243l0.092-0.515
			l-0.388-0.365l0.536-0.075L247.336,252.182z"/>
		<path fill="#ECF0F1" d="M249.405,252.182l0.24,0.469l0.536,0.075l-0.388,0.365l0.092,0.515l-0.48-0.243l-0.48,0.243l0.092-0.515
			l-0.388-0.365l0.536-0.075L249.405,252.182z"/>
		<path fill="#ECF0F1" d="M251.474,252.182l0.24,0.469l0.536,0.075l-0.388,0.365l0.092,0.515l-0.48-0.243l-0.48,0.243l0.092-0.515
			l-0.388-0.365l0.536-0.075L251.474,252.182z"/>
		<path fill="#ECF0F1" d="M253.543,252.182l0.24,0.469l0.536,0.075l-0.388,0.365l0.092,0.515l-0.48-0.243l-0.48,0.243l0.092-0.515
			l-0.388-0.365l0.536-0.075L253.543,252.182z"/>
	</g>
</g>
</svg>
