<?xml version="1.0" encoding="utf-8"?>
<!-- Generator: Adobe Illustrator 23.0.2, SVG Export Plug-In . SVG Version: 6.00 Build 0)  -->
<svg version="1.1" id="Layer_1" xmlns="http://www.w3.org/2000/svg" xmlns:xlink="http://www.w3.org/1999/xlink" x="0px" y="0px"
	 width="65px" height="65px" viewBox="0 0 65 65" style="enable-background:new 0 0 65 65;" xml:space="preserve">
<polygon style="fill:#FFFFFF;" points="5.1,41 5.1,59 9.2,59 9.2,57 9.2,41 "/>
<path style="fill:#BCBCBC;" d="M63.2,16h-11v-6c0-1.1-0.9-2-2-2h-17V5.5c0-0.8-0.7-1.5-1.5-1.5c-0.8,0-1.5,0.7-1.5,1.5v32.5h3v-12
	h15v6c0,1.1,0.9,2,2,2v0h13l-4-9L63.2,16z"/>
<path style="fill:#BCBCBC;" d="M39.2,40.9c0-1.7-1.3-3-3-3v0h-1v6h0v3c0,1.6-1.3,2.9-2.9,3l3.9,0l0,0l-3.9,0c0,0-0.1,0-0.1,0h-0.1
	c-1.6,0-2.9,1.4-2.9,3c0,1.6,1.3,3,2.9,3c-1.6,0-2.9,1.4-2.9,3c0,1.7,1.3,3,3,3v0h4v0c1.6,0,3-1.3,3-3c0-1.6-1.3-3-3-3
	c1.6,0,3-1.4,3-3c0-1.7-1.3-3-3-3c1.6,0,3-1.4,3-3c0-1.7-1.3-3-3-3v0h0v0C37.8,43.9,39.2,42.6,39.2,40.9z"/>
<rect x="1.2" y="38" style="fill:#BCBCBC;" width="4" height="23"/>
<path style="fill:#252F6A;" d="M64.1,34.1c0,0,0-0.1,0-0.1c0,0,0,0,0,0c0-0.1,0-0.1,0-0.2c0-0.1,0-0.1,0-0.2c0,0,0,0,0,0l-3.8-8.6
	l3.8-8.6c0,0,0,0,0,0c0-0.1,0-0.1,0-0.2c0-0.1,0-0.1,0-0.2c0,0,0,0,0,0c0,0,0-0.1,0-0.1c0-0.1,0-0.2,0-0.2c0-0.1-0.1-0.1-0.1-0.2
	c0,0-0.1-0.1-0.1-0.1c-0.1-0.1-0.1-0.1-0.2-0.2c0,0-0.1-0.1-0.1-0.1c0,0,0,0,0,0c-0.1,0-0.1,0-0.2,0c-0.1,0-0.1,0-0.2,0c0,0,0,0,0,0
	h-10v-5c0-1.7-1.3-3-3-3c0,0,0,0,0,0h-16V5.5c0-1.4-1.1-2.5-2.5-2.5c-1.4,0-2.5,1.1-2.5,2.5v31.5h-5c0,0,0,0,0,0
	c-4.1,0-7.8,1.9-10.3,5h-3.7v-1c0-0.6-0.4-1-1-1h-3v-2c0-0.6-0.4-1-1-1h-4c-0.6,0-1,0.4-1,1c0,0.6,0.4,1,1,1h3v21h-3
	c-0.6,0-1,0.4-1,1c0,0.6,0.4,1,1,1h4c0.6,0,1-0.4,1-1v-1h3c0.6,0,1-0.4,1-1v-1l3.8,0c2.4,3.1,6.2,5,10.2,5h12c0,0,0.1,0,0.1,0
	c2.1-0.1,3.9-1.8,3.9-4c0-1.2-0.5-2.3-1.4-3c0.8-0.7,1.4-1.8,1.4-3c0-1.2-0.5-2.3-1.4-3c0.8-0.7,1.4-1.8,1.4-3c0-1.2-0.5-2.3-1.4-3
	c0.8-0.7,1.4-1.8,1.4-3c0-2.2-1.8-4-4-4c0,0,0,0,0,0l-0.9,0c0,0,0,0,0,0c0,0,0,0,0,0l-0.9,0V27h13v5c0,1.6,1.3,2.9,2.9,3
	c0,0,0.1,0,0.1,0h13c0,0,0,0,0,0c0,0,0,0,0,0c0,0,0,0,0,0c0.1,0,0.3,0,0.4-0.1c0,0,0,0,0,0c0,0,0.1-0.1,0.1-0.1
	c0.1,0,0.1-0.1,0.2-0.1c0,0,0.1-0.1,0.1-0.2c0-0.1,0.1-0.1,0.1-0.2C64.1,34.2,64.1,34.2,64.1,34.1z M6.1,42h2v16h-2V42z M13.8,53.6
	c-0.2-0.5-0.8-0.8-1.3-0.6c-0.5,0.2-0.8,0.8-0.6,1.3c0.2,0.6,0.5,1.2,0.7,1.7l-2.5,0V44h2.5c-0.3,0.5-0.5,1.1-0.7,1.7
	c-0.2,0.5,0.1,1.1,0.6,1.3c0.1,0,0.2,0.1,0.3,0.1c0.4,0,0.8-0.3,0.9-0.7c1.5-4.4,5.7-7.3,10.4-7.4c0,0,0,0,0,0h8l2,0v8c0,0,0,0,0,0
	c0,1.1-0.9,2-2,2h0h0c0,0,0,0,0,0s0,0,0,0c0,0,0,0,0,0c-1.1,0-2-0.9-2-2v-3c0-0.6-0.4-1-1-1h-5c-0.6,0-1,0.4-1,1c0,0.6,0.4,1,1,1h4
	v2c0,1.2,0.5,2.3,1.4,3c-0.8,0.7-1.4,1.8-1.4,3c0,1.2,0.5,2.3,1.4,3c-0.8,0.7-1.4,1.8-1.4,3c0,0.7,0.2,1.4,0.6,2h-4.6c0,0,0,0,0,0
	s0,0,0,0C19.5,61,15.3,58,13.8,53.6z M32.2,54.9L32.2,54.9C32.2,54.9,32.2,54.9,32.2,54.9C32.2,54.9,32.1,54.9,32.2,54.9
	C32.1,54.9,32.1,54.9,32.2,54.9c-1.1,0-2-0.9-2-2c0-1.1,0.9-2,2-2c0,0,0,0,0,0c0,0,0,0,0,0l4,0c0,0,0,0,0,0c1.1,0,2,0.9,2,2
	c0,1.1-0.9,2-2,2c0,0,0,0,0,0L32.2,54.9z M36.2,60.9C36.1,60.9,36.1,61,36.2,60.9l-4,0c0,0,0,0-0.1,0c-1.1,0-2-0.9-2-2
	c0-1.1,0.9-2,2-2c0,0,0,0,0,0c0,0,0,0,0,0c0,0,0,0,0,0l4,0c0,0,0,0,0,0c1.1,0,2,0.9,2,2C38.2,60,37.3,60.9,36.2,60.9z M36.2,48.9
	C36.1,48.9,36.1,48.9,36.2,48.9l-0.6,0c0.3-0.6,0.6-1.3,0.6-2c0,0,0,0,0,0v-2h0c0,0,0,0,0,0c1.1,0,2,0.9,2,2
	C38.2,48,37.3,48.9,36.2,48.9C36.2,48.9,36.2,48.9,36.2,48.9z M38.2,40.9c0,1.1-0.9,2-2,2c0,0,0,0,0,0c0,0,0,0,0,0v-4h0c0,0,0,0,0,0
	C37.3,39,38.2,39.8,38.2,40.9z M31.1,36.9V5.5c0-0.3,0.2-0.5,0.5-0.5c0.3,0,0.5,0.2,0.5,0.5v31.5H31.1z M34.2,8.9h16
	c0.6,0,1,0.4,1,1v15.2c-0.3-0.1-0.6-0.2-1-0.2c0,0,0,0,0,0h-16V8.9z M50.1,27c0.6,0,1,0.4,1,1c0,0.5-0.4,1-1,1c0,0,0,0,0,0
	c-0.4,0-0.7,0.1-1,0.2V27H50.1z M50.1,30.9C50.1,30.9,50.1,31,50.1,30.9c1.7,0,3-1.3,3-3v-11h8.5l-3.4,7.6c0,0,0,0,0,0
	c0,0.1,0,0.1-0.1,0.2c0,0.1,0,0.1,0,0.2c0,0.1,0,0.1,0,0.2c0,0.1,0,0.1,0,0.2c0,0,0,0,0,0l3.4,7.6H50.2c0,0,0,0-0.1,0
	c-0.6,0-1-0.4-1-1C49.2,31.4,49.6,31,50.1,30.9z"/>
</svg>
