<?xml version="1.0" encoding="utf-8"?>
<!-- Generator: Adobe Illustrator 23.0.2, SVG Export Plug-In . SVG Version: 6.00 Build 0)  -->
<svg version="1.1" id="Layer_1" xmlns="http://www.w3.org/2000/svg" xmlns:xlink="http://www.w3.org/1999/xlink" x="0px" y="0px"
	 width="65px" height="65px" viewBox="0 0 65 65" style="enable-background:new 0 0 65 65;" xml:space="preserve">
<g>
	<path style="fill:#C6C6C6;" d="M17.2,41L17.2,41c1.4,0,2.5-1.1,2.5-2.5v0c0-1.4-1.1-2.5-2.5-2.5h0c-1.4,0-2.5,1.1-2.5,2.5v0
		C14.7,39.9,15.8,41,17.2,41z"/>
	<path style="fill:#C6C6C6;" d="M30.1,37L30.1,37c1.6,0,2.9-1.3,2.9-2.9v0c0-1.6-1.3-2.9-2.9-2.9h0c-1.6,0-2.9,1.3-2.9,2.9v0
		C27.2,35.7,28.5,37,30.1,37z"/>
	<polygon style="fill:#C6C6C6;" points="21.4,5.9 16.5,4.1 10.9,2.4 9,4.9 9,14.4 16.3,19.8 23.3,22 25.3,19.6 27.3,17 25.9,10.1 	
		"/>
	<polygon style="fill:#C6C6C6;" points="49.3,3.3 39.9,3.3 34.4,10.6 32.3,17.6 34.7,19.6 37.2,21.6 44.2,20.2 48.4,15.7 50.1,10.8 
		51.9,5.2 	"/>
</g>
<g>
	<path style="fill:#252F6A;" d="M60.8,38.2l-4.7-13.1c-0.2-4.6-1.7-9.1-4.3-13c0.8-2.8,0.7-5.8-0.4-8.6c-0.1-0.3-0.3-0.5-0.6-0.6
		c-2.4-0.9-4.8-1.1-7.2-0.7c-0.1,0-0.1,0-0.2,0c-0.1,0-0.1,0-0.2,0.1c-0.8,0.1-1.6,0.3-2.3,0.6C37,1,32.5,0.2,28.1,0.6
		c-3.2,0.2-6.3,1.1-9.3,2.5c-0.9-0.4-1.8-0.7-2.8-0.8c0,0-0.1,0-0.1,0c0,0-0.1,0-0.1,0C13.4,1.8,10.9,2,8.6,2.9C8.3,3,8.1,3.2,8,3.5
		C6.8,6.6,6.8,10,7.8,13.1C5.6,16.8,4.3,21,4.1,25.2c-0.3,6.9,2,13.5,6.5,18.6c1.4,1.5,2.1,3.5,2.1,5.5v14.1c0,0.6,0.5,1.1,1.1,1.1
		c0.6,0,1.1-0.5,1.1-1.1V49.3c0-2.6-0.9-5-2.6-6.9c-4.2-4.7-6.3-10.8-6-17c0.2-3.4,1.1-6.8,2.7-9.8c0.4,0.6,0.8,1.2,1.2,1.8
		c0.1,0.1,0.2,0.3,0.3,0.4c0.2,0.2,0.4,0.5,0.6,0.7c2.7,2.7,6.2,4.1,9.9,4.1c1.4,0,2.9-0.3,4.2-0.7l3.5,3.5c0.1,0.1,0.2,0.1,0.3,0.2
		v4.6c-1.9,0.5-3.3,2.2-3.3,4.2c0,2.4,1.9,4.3,4.3,4.3s4.3-1.9,4.3-4.3c0-2-1.4-3.7-3.3-4.2v-5.1l3.1-3.1c1.4,0.4,2.7,0.7,4.1,0.7
		c3.6,0,7.2-1.4,9.9-4.1c0.2-0.2,0.4-0.4,0.6-0.7c0.1-0.1,0.2-0.2,0.3-0.4c0.7-0.8,1.2-1.6,1.7-2.5c1.9,3.3,3,7,3.1,10.7
		c0,0.2,0.1,0.4,0.2,0.5l4.6,12.9c0.1,0.3,0,0.6-0.1,0.7c-0.1,0.1-0.2,0.3-0.6,0.4L53,41.2c-0.5,0.1-0.8,0.5-0.8,0.9L50.9,54
		c0,0.4-0.4,0.8-0.8,0.8H39.9c-0.6,0-1.1,0.5-1.1,1.1v7.6c0,0.6,0.5,1.1,1.1,1.1c0.6,0,1.1-0.5,1.1-1.1v-6.5h9.1
		c1.5,0,2.8-1.2,3-2.7l1.2-11.1l4.3-1c0.8-0.2,1.6-0.7,2-1.5C61,39.9,61.1,39,60.8,38.2z M49.5,4.7c1.2,3.7,0.5,7.8-1.8,10.9l-6.5-1
		l3.9-4c0.2-0.2,0.3-0.6,0.3-0.9l-0.7-5.5C46.3,4,48,4.2,49.5,4.7z M34.4,18.5c-0.9-3.9,0.3-8,3.1-10.9c1.4-1.4,3.2-2.4,5.1-3
		l0.6,4.9L34.4,18.5z M25,18.4l-8.9-8.9l0.6-4.9c1.9,0.5,3.7,1.5,5.1,3C24.7,10.4,25.8,14.5,25,18.4z M9.8,4.7
		C11.4,4.2,13,4,14.6,4.2l-0.7,5.5c0,0.3,0.1,0.7,0.3,0.9l3.9,3.9l-6.5,1C9.3,12.5,8.6,8.5,9.8,4.7z M13.5,17.5l6.5-1l3.4,3.4
		C20,20.7,16.3,19.8,13.5,17.5z M32.3,34.1c0,1.2-1,2.2-2.2,2.2s-2.2-1-2.2-2.2c0-0.8,0.5-1.5,1.1-1.9c0.1,0.5,0.5,0.8,1,0.8
		c0.5,0,0.9-0.3,1-0.8C31.8,32.6,32.3,33.3,32.3,34.1z M29.8,23.2l-3-3c1.6-4.9,0.3-10.4-3.4-14.1c-0.6-0.6-1.3-1.2-2.1-1.7
		c2.2-0.9,4.6-1.5,7-1.6c3.4-0.3,6.9,0.3,10,1.4C37.5,4.7,36.7,5.3,36,6c-3.7,3.7-5,9.2-3.3,14.2L29.8,23.2z M36,19.9l3.4-3.5l6.5,1
		C43.1,19.8,39.5,20.7,36,19.9z"/>
	<path style="fill:#252F6A;" d="M19.3,23.3c-2.4,0-4.3,1.9-4.3,4.3c0,2.4,1.9,4.3,4.3,4.3c2.4,0,4.3-1.9,4.3-4.3
		C23.6,25.2,21.6,23.3,19.3,23.3z M19.3,29.8c-1.2,0-2.2-1-2.2-2.2s1-2.2,2.2-2.2c1.2,0,2.2,1,2.2,2.2S20.4,29.8,19.3,29.8z"/>
	<path style="fill:#252F6A;" d="M17.1,34.1c-2.4,0-4.3,1.9-4.3,4.3c0,2.4,1.9,4.3,4.3,4.3c2.4,0,4.3-1.9,4.3-4.3
		C21.4,36.1,19.5,34.1,17.1,34.1z M17.1,40.6c-1.2,0-2.2-1-2.2-2.2c0-1.2,1-2.2,2.2-2.2c1.2,0,2.2,1,2.2,2.2
		C19.3,39.7,18.3,40.6,17.1,40.6z"/>
	<path style="fill:#252F6A;" d="M42,33c2.4,0,4.3-1.9,4.3-4.3s-1.9-4.3-4.3-4.3c-2.4,0-4.3,1.9-4.3,4.3S39.6,33,42,33z M42,26.5
		c1.2,0,2.2,1,2.2,2.2s-1,2.2-2.2,2.2c-1.2,0-2.2-1-2.2-2.2S40.8,26.5,42,26.5z"/>
</g>
</svg>
