<?xml version="1.0" encoding="utf-8"?>
<!-- Generator: Adobe Illustrator 23.0.2, SVG Export Plug-In . SVG Version: 6.00 Build 0)  -->
<svg version="1.1" id="Layer_1" xmlns="http://www.w3.org/2000/svg" xmlns:xlink="http://www.w3.org/1999/xlink" x="0px" y="0px"
	 width="65px" height="65px" viewBox="0 0 65 65" style="enable-background:new 0 0 65 65;" xml:space="preserve">
<g>
	<path style="fill:#C1C1C1;" d="M51.7,5.8v17.1c0,7.8-3.8,15.1-10.2,19.7l-7.8,5.8c-0.8,0.6-1.8,0.6-2.6,0l-0.3-0.2l-7.4-5.6
		C17.1,38,13.3,30.7,13.3,22.9V5.8c5.5-2.5,11.5-4,17.6-4.2c0.5,0,1.1,0,1.6,0C39.1,1.6,45.7,3.1,51.7,5.8z"/>
	<path style="fill:#C1C1C1;" d="M47.4,9v13.9c0,6.7-3.1,12-8.5,16l-5.2,3.5c-0.7,0.5-1.7,0.5-2.4,0l-5.2-3.5c-5.4-4-8.5-9.3-8.5-16
		V9c4.2-1.9,8.7-2.9,13.3-3.2c0.5,0,1.1,0,1.6,0C37.6,5.9,42.7,7,47.4,9z"/>
	<path style="fill:#FFFFFF;" d="M28.2,20.8h8.5c1.2,0,2.1,1,2.1,2.1v6.4c0,1.2-1,2.1-2.1,2.1h-8.5c-1.2,0-2.1-1-2.1-2.1v-6.4
		C26.1,21.7,27.1,20.8,28.2,20.8z"/>
	<path style="fill:#FFFFFF;" d="M23.5,42.6l5.1,3.8l5.3,2l-7.1-5.8C20.3,38,16.5,30.7,16.5,22.9V5.8C22,3.3,28,1.9,34,1.6
		c-0.5,0-1,0-1.5,0c-0.5,0-1.1,0-1.6,0c-6.1,0.3-12.1,1.7-17.6,4.2v17.1C13.3,30.7,17.1,38,23.5,42.6z"/>
	<path style="fill:#FFFFFF;" d="M14.4,22.9c0,4.4,1.3,8.8,3.7,12.5c1.6,2.4,3.6,4.6,6,6.3l-1.3,1.7c-2.5-1.9-4.7-4.2-6.5-6.9
		c-2.7-4.1-4.1-8.8-4.1-13.7H14.4z"/>
	<polygon style="fill:#FFFFFF;" points="29,21.1 28.7,16.4 31.6,14.9 34.8,14.9 36,17.6 36.4,20.3 32.6,21.1 	"/>
	<path style="fill:#252F6A;" d="M14.8,32.3c0.1,0,0.3,0,0.4-0.1c0.3-0.1,0.5-0.3,0.6-0.6c0.1-0.3,0.1-0.5,0-0.8
		c-0.1-0.3-0.3-0.5-0.5-0.6l-0.2-0.1c-0.1,0-0.1,0-0.2,0c-0.1,0-0.1,0-0.2,0c-0.1,0-0.1,0-0.2,0c-0.3,0.1-0.5,0.3-0.6,0.5
		c-0.1,0.1-0.1,0.3-0.1,0.4c0,0.4,0.2,0.9,0.6,1C14.5,32.3,14.6,32.3,14.8,32.3z"/>
	<path style="fill:#252F6A;" d="M58.1,45.3H39.7l2.5-1.9c6.6-4.7,10.6-12.4,10.6-20.5V5.8c0-0.4-0.2-0.8-0.6-1
		C46,2,39.3,0.6,32.5,0.5C25.7,0.6,19,2,12.8,4.9c-0.4,0.2-0.6,0.6-0.6,1v17.1c0,1.5,0.1,3,0.4,4.4c0.1,0.3,0.2,0.5,0.5,0.7
		c0.2,0.2,0.5,0.2,0.8,0.2c0.6-0.1,0.9-0.7,0.8-1.2c-0.2-1.3-0.3-2.7-0.4-4.1V6.5C20.1,4,26.3,2.7,32.5,2.6
		C38.7,2.7,44.9,4,50.6,6.5v16.4c0,7.5-3.6,14.5-9.7,18.8l-7.8,5.8c-0.4,0.3-0.9,0.3-1.3,0l-7.8-5.8h0c-2.3-1.7-4.4-3.9-6-6.3
		l-0.5-0.9c-0.3-0.5-1-0.6-1.5-0.4c-0.5,0.3-0.7,0.9-0.4,1.4l0.6,0.9c1.8,2.6,3.9,5,6.5,6.8c0,0,0,0,0,0l2.5,1.9H6.9
		c-1.8,0-3.2,1.4-3.2,3.2v12.8c0,1.8,1.4,3.2,3.2,3.2h51.2c1.8,0,3.2-1.4,3.2-3.2V48.5C61.3,46.7,59.9,45.3,58.1,45.3z M59.2,61.3
		c0,0.6-0.5,1.1-1.1,1.1H6.9c-0.6,0-1.1-0.5-1.1-1.1V48.5c0-0.6,0.5-1.1,1.1-1.1h21.3l2.4,1.8c0.6,0.4,1.2,0.6,1.9,0.6
		c0.7,0,1.4-0.2,1.9-0.6l2.4-1.8h21.3c0.6,0,1.1,0.5,1.1,1.1V61.3z"/>
	<path style="fill:#252F6A;" d="M17.3,52.8l-2.9,0.7v-2.9c0-0.6-0.5-1.1-1.1-1.1c-0.6,0-1.1,0.5-1.1,1.1v2.9l-2.9-0.7
		c-0.4-0.1-0.8,0-1,0.3c-0.3,0.3-0.4,0.7-0.3,1c0.1,0.4,0.4,0.7,0.8,0.7l2.7,0.7l-2.2,3C9,58.9,9,59.3,9.1,59.6
		c0.2,0.4,0.6,0.6,1,0.6c0.3,0,0.7-0.2,0.9-0.4l2.3-3.1l2.3,3.1c0.2,0.3,0.5,0.4,0.9,0.4c0.4,0,0.8-0.2,1-0.6
		c0.2-0.4,0.1-0.8-0.1-1.1l-2.2-3l2.7-0.7c0.4-0.1,0.7-0.4,0.8-0.7c0.1-0.4,0-0.8-0.3-1C18.1,52.8,17.7,52.7,17.3,52.8z"/>
	<path style="fill:#252F6A;" d="M30.1,52.8l-2.9,0.7v-2.9c0-0.6-0.5-1.1-1.1-1.1c-0.6,0-1.1,0.5-1.1,1.1v2.9l-2.9-0.7
		c-0.6-0.1-1.1,0.2-1.3,0.8c-0.1,0.6,0.2,1.1,0.8,1.3l2.7,0.7l-2.2,3c-0.2,0.3-0.3,0.8-0.1,1.1c0.2,0.4,0.5,0.6,1,0.6
		c0.3,0,0.7-0.2,0.9-0.4l2.3-3.1l2.3,3.1c0.2,0.3,0.5,0.4,0.9,0.4c0.4,0,0.8-0.2,1-0.6c0.2-0.4,0.1-0.8-0.1-1.1l-2.2-3l2.7-0.7
		c0.4-0.1,0.7-0.4,0.8-0.7c0.1-0.4,0-0.8-0.3-1C30.9,52.8,30.5,52.7,30.1,52.8z"/>
	<path style="fill:#252F6A;" d="M42.9,52.8L40,53.5v-2.9c0-0.6-0.5-1.1-1.1-1.1c-0.6,0-1.1,0.5-1.1,1.1v2.9l-2.9-0.7
		c-0.6-0.1-1.1,0.2-1.3,0.8c-0.1,0.6,0.2,1.1,0.8,1.3l2.7,0.7l-2.2,3c-0.2,0.3-0.3,0.8-0.1,1.1c0.2,0.4,0.6,0.6,1,0.6
		c0.3,0,0.7-0.2,0.9-0.4l2.3-3.1l2.3,3.1c0.2,0.3,0.5,0.4,0.9,0.4c0.4,0,0.8-0.2,1-0.6c0.2-0.4,0.1-0.8-0.1-1.1l-2.2-3l2.7-0.7
		c0.4-0.1,0.7-0.4,0.8-0.7c0.1-0.4,0-0.8-0.3-1C43.7,52.8,43.3,52.7,42.9,52.8z"/>
	<path style="fill:#252F6A;" d="M55.7,52.8l-2.9,0.7v-2.9c0-0.6-0.5-1.1-1.1-1.1c-0.6,0-1.1,0.5-1.1,1.1v2.9l-2.9-0.7
		c-0.4-0.1-0.8,0-1,0.3c-0.3,0.3-0.4,0.7-0.3,1c0.1,0.4,0.4,0.7,0.8,0.7l2.7,0.7l-2.2,3c-0.2,0.3-0.3,0.8-0.1,1.1
		c0.2,0.4,0.6,0.6,1,0.6c0.3,0,0.7-0.2,0.9-0.4l2.3-3.1l2.3,3.1c0.2,0.3,0.5,0.4,0.9,0.4c0.4,0,0.8-0.2,1-0.6
		c0.2-0.4,0.1-0.8-0.1-1.1l-2.2-3l2.7-0.7c0.6-0.1,0.9-0.7,0.8-1.3C56.9,53,56.3,52.7,55.7,52.8z"/>
	<path style="fill:#252F6A;" d="M25.5,39.8L25.5,39.8l5.3,3.5c0.5,0.4,1.1,0.5,1.8,0.5c0.6,0,1.3-0.2,1.8-0.5l5.3-3.5
		c5.9-4.4,9-10.1,9-16.9V9c0-0.4-0.3-0.8-0.6-1c-9.8-4.4-20.9-4.4-30.7,0c-0.4,0.2-0.6,0.6-0.6,1v13.9
		C16.5,29.6,19.5,35.3,25.5,39.8z M18.6,9.7C27.5,6,37.5,6,46.4,9.7v13.2c0,6-2.7,11.1-8.1,15.1l-5.2,3.5c-0.4,0.2-0.8,0.2-1.2,0
		L26.7,38v0c-5.4-4-8.1-9.1-8.1-15.1V9.7z"/>
	<path style="fill:#252F6A;" d="M28.2,32.5h8.5c1.8,0,3.2-1.4,3.2-3.2v-6.4c0-1.4-0.9-2.5-2.1-3v-1.3c0-2.9-2.4-5.3-5.3-5.3
		c-2.9,0-5.3,2.4-5.3,5.3v1.3c-1.2,0.4-2.1,1.6-2.1,3v6.4C25,31.1,26.5,32.5,28.2,32.5z M29.3,18.6c0-1.8,1.4-3.2,3.2-3.2
		c1.8,0,3.2,1.4,3.2,3.2v1.1h-6.4V18.6z M27.2,22.9c0-0.6,0.5-1.1,1.1-1.1h8.5c0.6,0,1.1,0.5,1.1,1.1v6.4c0,0.6-0.5,1.1-1.1,1.1
		h-8.5c-0.6,0-1.1-0.5-1.1-1.1V22.9z"/>
	<path style="fill:#252F6A;" d="M32.5,28.2c0.6,0,1.1-0.5,1.1-1.1V25c0-0.6-0.5-1.1-1.1-1.1c-0.6,0-1.1,0.5-1.1,1.1v2.1
		C31.4,27.8,31.9,28.2,32.5,28.2z"/>
</g>
</svg>
