<?xml version="1.0" encoding="utf-8"?>
<!-- Generator: Adobe Illustrator 23.0.2, SVG Export Plug-In . SVG Version: 6.00 Build 0)  -->
<svg version="1.1" id="Layer_1" xmlns="http://www.w3.org/2000/svg" xmlns:xlink="http://www.w3.org/1999/xlink" x="0px" y="0px"
	 width="65px" height="65px" viewBox="0 0 65 65" style="enable-background:new 0 0 65 65;" xml:space="preserve">
<g>
	<polygon style="fill:#C6C6C6;" points="58.3,8.2 6.8,8.2 1.8,25.6 4.5,25.6 22.8,8.8 40.8,25.6 41.3,25.6 63.3,25.6 	"/>
	<rect x="17.2" y="44.9" style="fill:#C6C6C6;" width="11.7" height="12"/>
	<rect x="26.2" y="27.6" style="fill:#C6C6C6;" width="9.6" height="11"/>
	<rect x="10.4" y="27.6" style="fill:#C6C6C6;" width="9.6" height="11"/>
	<rect x="41.4" y="44.9" style="fill:#C6C6C6;" width="8.3" height="12"/>
	<rect x="52" y="30.2" style="fill:#C6C6C6;" width="8.3" height="9.1"/>
</g>
<g>
	<path style="fill:#252F6A;" d="M42,36.1c-0.4-0.3-1-0.2-1.4,0.1c-0.4,0.3-0.6,0.9-0.4,1.4c0.2,0.5,0.7,0.8,1.2,0.8
		c0.6,0,1.1-0.4,1.2-1C42.7,36.9,42.5,36.4,42,36.1z"/>
	<path style="fill:#252F6A;" d="M64.5,25.3l-5-17.5c-0.2-0.5-0.6-0.9-1.2-0.9H6.8c-0.6,0-1,0.4-1.2,0.9l-5,17.5
		c-0.1,0.4,0,0.8,0.2,1.1c0.2,0.3,0.6,0.5,1,0.5h1.8v30c0,0.7,0.6,1.3,1.3,1.3h55.5c0.7,0,1.3-0.6,1.3-1.3v-30h1.8
		c0.4,0,0.8-0.2,1-0.5C64.5,26.1,64.6,25.7,64.5,25.3z M4.3,24.4H3.4l4.3-15h12L4.3,24.4z M27.7,55.6h-9.2v-9.5h9.2L27.7,55.6z
		 M48.4,55.6h-5.8v-9.5h5.8V55.6z M59,38.1h-5.8v-6.6H59V38.1z M59,29h-7c-0.7,0-1.3,0.6-1.3,1.3v9.1c0,0.7,0.6,1.3,1.3,1.3h7v15h-8
		V44.9c0-0.7-0.6-1.3-1.3-1.3h-7.1v-0.8c0-0.7-0.6-1.3-1.3-1.3c-0.7,0-1.3,0.6-1.3,1.3v12.8h-9.9V44.9c0-0.7-0.6-1.3-1.2-1.3H17.2
		c-0.7,0-1.3,0.6-1.3,1.3v10.7H6V26.2L22.8,9.9L40,26.5c0,0,0.1,0.1,0.1,0.1v4.9c0,0.7,0.6,1.3,1.3,1.3c0.7,0,1.3-0.6,1.3-1.3v-4.6
		H59V29z M41.4,24.4l-6.1-5.9h18.6c0.7,0,1.3-0.6,1.3-1.3S54.6,16,53.9,16H32.7l-6.8-6.6h31.4l4.3,15H41.4z"/>
	<path style="fill:#252F6A;" d="M20,26.4h-9.6c-0.7,0-1.3,0.6-1.3,1.3v11c0,0.7,0.6,1.3,1.3,1.3H20c0.7,0,1.3-0.6,1.2-1.3v-11
		C21.2,26.9,20.7,26.4,20,26.4z M18.7,37.3h-7.1v-8.5h7.1V37.3z"/>
	<path style="fill:#252F6A;" d="M35.8,26.4h-9.6c-0.7,0-1.3,0.6-1.3,1.3v11c0,0.7,0.6,1.3,1.3,1.3h9.6c0.7,0,1.3-0.6,1.3-1.3v-11
		C37,26.9,36.5,26.4,35.8,26.4z M34.5,37.3h-7.1v-8.5h7.1V37.3z"/>
</g>
</svg>
