<?xml version="1.0" encoding="utf-8"?>
<!-- Generator: Adobe Illustrator 23.0.2, SVG Export Plug-In . SVG Version: 6.00 Build 0)  -->
<svg version="1.1" id="Layer_1" xmlns="http://www.w3.org/2000/svg" xmlns:xlink="http://www.w3.org/1999/xlink" x="0px" y="0px"
	 width="35px" height="35px" viewBox="0 0 35 35" style="enable-background:new 0 0 35 35;" xml:space="preserve">
<g>
	<path fill="#3F51B5" d="M33,28.7c0,2.4-1.9,4.3-4.3,4.3H6.3C3.9,33,2,31.1,2,28.7V6.3C2,3.9,3.9,2,6.3,2h22.4C31.1,2,33,3.9,33,6.3
		V28.7z"/>
	<path fill="#FFFFFF" d="M26.4,17.1h-2.9v11.2h-4.3V17.1h-2.6v-3.4h2.6v-2.1c0-3,1.3-4.8,4.8-4.8H27v3.4h-2c-1.4,0-1.5,0.5-1.5,1.5v2
		H27L26.4,17.1z"/>
</g>
</svg>
