<?xml version="1.0" encoding="utf-8"?>
<!-- Generator: Adobe Illustrator 23.0.2, SVG Export Plug-In . SVG Version: 6.00 Build 0)  -->
<svg version="1.1" id="Layer_1" xmlns="http://www.w3.org/2000/svg" xmlns:xlink="http://www.w3.org/1999/xlink" x="0px" y="0px"
	 width="35px" height="35px" viewBox="0 0 35 35" style="enable-background:new 0 0 35 35;" xml:space="preserve">
<g>
	<path fill="#007AB9" d="M29.6,2H5.4C3.5,2,2,3.5,2,5.4v24.1c0,2,1.5,3.5,3.4,3.5h24.1c1.9,0,3.4-1.5,3.4-3.4V5.4C33,3.5,31.5,2,29.6,2
		z"/>
</g>
<g>
	<g>
		<path fill="#F1F2F2" d="M26.1,19.4v6.4h-3.7v-6c0-1.5-0.5-2.5-1.9-2.5c-1,0-1.6,0.7-1.9,1.4c-0.1,0.2-0.1,0.6-0.1,0.9v6.2h-3.7
			c0,0,0-10.1,0-11.1h3.7v1.6c0,0,0,0,0,0h0v0c0.5-0.8,1.4-1.8,3.3-1.8C24.3,14.4,26.1,15.9,26.1,19.4L26.1,19.4z M11,9.2
			c-1.3,0-2.1,0.8-2.1,1.9c0,1.1,0.8,1.9,2,1.9h0c1.3,0,2.1-0.9,2.1-1.9C13,10.1,12.2,9.2,11,9.2L11,9.2z M9.1,25.8h3.7V14.6H9.1
			V25.8z"/>
	</g>
</g>
</svg>
