<?xml version="1.0" encoding="utf-8"?>
<!-- Generator: Adobe Illustrator 23.0.2, SVG Export Plug-In . SVG Version: 6.00 Build 0)  -->
<svg version="1.1" id="Layer_1" xmlns="http://www.w3.org/2000/svg" xmlns:xlink="http://www.w3.org/1999/xlink" x="0px" y="0px"
	 width="35px" height="35px" viewBox="0 0 35 35" style="enable-background:new 0 0 35 35;" xml:space="preserve">
<g>
	<path fill="#03A9F4" d="M29.6,2H5.4C3.5,2,2,3.5,2,5.4v24.1C2,31.5,3.5,33,5.4,33h24.1c1.9,0,3.4-1.5,3.4-3.4V5.4
		C33,3.5,31.5,2,29.6,2z"/>
	<path fill="#FFFFFF" d="M26.2,13.2c0,0.1,0,0.3,0,0.6c0,5.6-4.3,12.1-12.1,12.1c-2.4,0-4.6-0.7-6.5-1.9c0.3,0,0.7,0,1,0
		c1.9,0,3.8-0.7,5.3-1.8c-1.9,0-3.4-1.3-4-3c0.3,0,0.6,0.1,0.7,0.1c0.4,0,0.7,0,1.2-0.1c-1.9-0.4-3.4-2.1-3.4-4.1
		c0.6,0.3,1.2,0.4,1.9,0.6c-1.2-1-1.9-2.2-1.9-3.7c0-0.7,0.1-1.5,0.6-2.1c2.1,2.5,5.2,4.3,8.7,4.4c0-0.3-0.1-0.6-0.1-1
		c0-2.4,1.9-4.3,4.3-4.3c1.2,0,2.4,0.4,3.1,1.3c1-0.1,1.9-0.6,2.7-1c-0.3,1-1,1.8-1.9,2.4c0.9-0.1,1.6-0.3,2.5-0.7
		C27.7,11.9,26.9,12.6,26.2,13.2z"/>
</g>
</svg>
