<?xml version="1.0" encoding="utf-8"?>
<!-- Generator: Adobe Illustrator 23.0.2, SVG Export Plug-In . SVG Version: 6.00 Build 0)  -->
<svg version="1.1" id="Layer_1" xmlns="http://www.w3.org/2000/svg" xmlns:xlink="http://www.w3.org/1999/xlink" x="0px" y="0px"
	 width="32px" height="32px" viewBox="0 0 32 32" style="enable-background:new 0 0 32 32;" xml:space="preserve">
<style type="text/css">
	.st0{fill:#FFFFFF;}
	.st1{fill-rule:evenodd;clip-rule:evenodd;fill:#FFFFFF;}
</style>
<title>Facebook</title>
<path fill="#ffffff" d="M16,31C7.7,31,1,24.3,1,16S7.7,1,16,1s15,6.7,15,15S24.3,31,16,31z M16,2.6C8.6,2.6,2.6,8.6,2.6,16
	s6,13.4,13.4,13.4s13.4-6,13.4-13.4l0,0C29.4,8.6,23.4,2.6,16,2.6z"/>
<path fill="#ffffff" d="M13.6,16.1v8.7c0,0.1,0.1,0.2,0.2,0.2c0,0,0,0,0,0h3.2c0.1,0,0.2-0.1,0.2-0.2v-8.8h2.3c0.1,0,0.2-0.1,0.2-0.2
	l0.2-2.7c0-0.1-0.1-0.2-0.2-0.2c0,0,0,0,0,0h-2.6v-1.9c0-0.4,0.3-0.8,0.8-0.8c0,0,0,0,0,0h1.8c0.1,0,0.2-0.1,0.2-0.2c0,0,0,0,0,0
	V7.2c0-0.1-0.1-0.2-0.2-0.2c0,0,0,0,0,0h-3c-1.8,0-3.2,1.5-3.2,3.2v2.6H12c-0.1,0-0.2,0.1-0.2,0.2v2.7c0,0.1,0.1,0.2,0.2,0.2
	c0,0,0,0,0,0h1.6L13.6,16.1z"/>
</svg>
