<?xml version="1.0" encoding="utf-8"?>
<!-- Generator: Adobe Illustrator 23.0.2, SVG Export Plug-In . SVG Version: 6.00 Build 0)  -->
<svg version="1.1" id="Layer_1" xmlns="http://www.w3.org/2000/svg" xmlns:xlink="http://www.w3.org/1999/xlink" x="0px" y="0px"
	 width="32px" height="32px" viewBox="0 0 32 32" style="enable-background:new 0 0 32 32;" xml:space="preserve">
<title>Instagram</title>
<path fill="#ffffff" d="M16,31C7.7,31,1,24.3,1,16S7.7,1,16,1s15,6.7,15,15S24.3,31,16,31z M16,2.4C8.5,2.4,2.4,8.5,2.4,16
	S8.5,29.6,16,29.6S29.6,23.5,29.6,16C29.6,8.5,23.5,2.4,16,2.4z M21.1,9.9c-0.6,0-1.1,0.5-1.1,1.1s0.5,1.1,1.1,1.1
	c0.6,0,1.1-0.5,1.1-1.1c0,0,0,0,0,0C22.2,10.4,21.7,9.9,21.1,9.9z M16.1,11.3c-2.6,0-4.7,2.1-4.6,4.7c0,2.6,2.1,4.7,4.7,4.6
	c2.6,0,4.6-2.1,4.6-4.7C20.8,13.4,18.7,11.3,16.1,11.3C16.1,11.3,16.1,11.3,16.1,11.3z M16.1,19c-1.7,0-3-1.3-3-3s1.3-3,3-3
	s3,1.3,3,3C19.1,17.6,17.8,19,16.1,19C16.1,19,16.1,19,16.1,19L16.1,19z M25.5,12.1c0-3.1-2.5-5.7-5.7-5.7c0,0,0,0,0,0h-7.5
	c-3.1,0-5.7,2.5-5.7,5.7c0,0,0,0,0,0v7.5c0,3.1,2.5,5.7,5.7,5.7l0,0h7.5c3.1,0,5.7-2.5,5.7-5.7l0,0V12.1z M23.7,19.6
	c0,2.2-1.8,3.9-3.9,3.9h-7.5c-2.2,0-3.9-1.8-3.9-3.9v-7.5c0-2.2,1.8-3.9,3.9-3.9h7.5c2.2,0,3.9,1.7,3.9,3.9V19.6z"/>
</svg>
