<?xml version="1.0" encoding="utf-8"?>
<!-- Generator: Adobe Illustrator 17.0.0, SVG Export Plug-In . SVG Version: 6.00 Build 0)  -->
<!DOCTYPE svg PUBLIC "-//W3C//DTD SVG 1.1//EN" "http://www.w3.org/Graphics/SVG/1.1/DTD/svg11.dtd">
<svg version="1.1" id="Layer_1" xmlns="http://www.w3.org/2000/svg" xmlns:xlink="http://www.w3.org/1999/xlink" x="0px" y="0px"
	 width="32px" height="32px" viewBox="0 0 32 32" enable-background="new 0 0 32 32" xml:space="preserve">
<title>Linkedin</title>
<g>
	<path fill="#FFFFFF" d="M16,31C7.7,31,1,24.3,1,16S7.7,1,16,1s15,6.7,15,15S24.3,31,16,31z M16,2.6C8.6,2.6,2.6,8.6,2.6,16
		s6,13.4,13.4,13.4s13.4-6,13.4-13.4l0,0C29.4,8.6,23.4,2.6,16,2.6z"/>
	<path fill="#FFFFFF" d="M12.326,21.461H9.44V12.78h2.885V21.461z M10.883,11.595h-0.019c-0.968,0-1.594-0.667-1.594-1.5
		c0-0.852,0.645-1.5,1.632-1.5s1.594,0.648,1.613,1.5C12.516,10.929,11.889,11.595,10.883,11.595z M22.73,21.461h-2.885v-4.644
		c0-1.167-0.418-1.963-1.462-1.963c-0.797,0-1.272,0.537-1.48,1.055c-0.076,0.185-0.095,0.445-0.095,0.704v4.848h-2.885
		c0,0,0.038-7.866,0-8.681h2.885v1.229c0.383-0.592,1.069-1.433,2.6-1.433c1.898,0,3.322,1.241,3.322,3.907V21.461z"/>
</g>
</svg>
