<?xml version="1.0" encoding="utf-8"?>
<!-- Generator: Adobe Illustrator 23.0.2, SVG Export Plug-In . SVG Version: 6.00 Build 0)  -->
<svg version="1.1" id="Layer_1" xmlns="http://www.w3.org/2000/svg" xmlns:xlink="http://www.w3.org/1999/xlink" x="0px" y="0px"
	 width="24px" height="24px" viewBox="0 0 24 24" style="enable-background:new 0 0 24 24;" xml:space="preserve">
<g>
	<path fill="#ffffff"  d="M9.3,5.9c0.3-0.3,0.3-0.8,0-1.1l-3-3C6,1.5,5.6,1.4,5.2,1.6C4.6,2,4,2.4,3.5,2.9l4.4,4.4L9.3,5.9z"/>
	<path fill="#ffffff"  d="M22.4,18.8c0.2-0.3,0.2-0.7-0.1-1l-3-3c-0.3-0.3-0.8-0.3-1.1,0c0,0,0,0,0,0l-1.4,1.4l4.4,4.4
		C21.6,20,22,19.4,22.4,18.8z"/>
	<path fill="#ffffff"  d="M15.9,16.9c-1.4,0.1-4.1-0.7-6.1-2.7S7,9.5,7.1,8.1C7.1,8,7.2,7.9,7.3,7.9L2.9,3.4C2.2,4.1,1.6,4.8,1.5,5.5
		c-0.8,6.8,10.2,17.7,16.9,16.9c0.7-0.1,1.4-0.6,2.1-1.3l-4.4-4.4C16.1,16.8,16,16.9,15.9,16.9z"/>
</g>
</svg>
