<?xml version="1.0" encoding="utf-8"?>
<!-- Generator: Adobe Illustrator 23.0.2, SVG Export Plug-In . SVG Version: 6.00 Build 0)  -->
<svg version="1.1" id="Layer_1" xmlns="http://www.w3.org/2000/svg" xmlns:xlink="http://www.w3.org/1999/xlink" x="0px" y="0px"
	 width="32px" height="32px" viewBox="0 0 32 32" style="enable-background:new 0 0 32 32;" xml:space="preserve">
<title>Twitter</title>
<path fill="#ffffff" d="M16,31C7.7,31,1,24.3,1,16S7.7,1,16,1s15,6.7,15,15S24.3,31,16,31z M16,2.6C8.6,2.6,2.6,8.6,2.6,16
	s6,13.4,13.4,13.4s13.4-6,13.4-13.4l0,0C29.4,8.6,23.4,2.6,16,2.6z"/>
<path fill="#ffffff" d="M24.6,10.5c-0.6,0.2-1.2,0.4-1.8,0.5c0.3,0,0.7-0.6,0.9-0.8c0.3-0.3,0.5-0.7,0.6-1.1c0,0,0-0.1,0-0.1
	c0,0-0.1,0-0.1,0c-0.7,0.4-1.4,0.6-2.1,0.8c0,0-0.1,0-0.1,0c-0.1-0.1-0.1-0.1-0.2-0.2c-0.3-0.3-0.6-0.5-1-0.6
	c-0.5-0.2-1-0.3-1.6-0.3c-1,0.1-2,0.6-2.7,1.4c-0.3,0.4-0.6,0.9-0.7,1.4c-0.1,0.5-0.1,1,0,1.5c0,0.1,0,0.1-0.1,0.1
	C13,13,10.4,11.7,8.5,9.6c-0.1-0.1-0.1-0.1-0.2,0c-0.8,1.4-0.5,3.2,0.6,4.3c0.1,0.1,0.3,0.3,0.4,0.4c-0.5,0-1-0.2-1.4-0.4
	c-0.1,0-0.1,0-0.1,0.1c0,0.1,0,0.3,0,0.4c0.2,1.3,1,2.4,2.3,2.9c0.1,0.1,0.3,0.1,0.5,0.1c-0.5,0.1-0.9,0.1-1.4,0
	c-0.1,0-0.1,0-0.1,0.1c0.5,1.2,1.5,2.2,2.9,2.4c0.1,0,0.3,0,0.4,0l0,0c-0.6,0.5-1.3,0.8-2,1c-1,0.3-2,0.5-3,0.4c-0.2,0-0.2,0-0.2,0
	s0,0.1,0,0.1c0.2,0.1,0.4,0.3,0.6,0.4c0.6,0.3,1.3,0.6,2,0.8c3.6,1.1,7.5,0.2,10.3-2.4c2-2.1,3-4.9,3-7.8c0-0.1,0.1-0.2,0.2-0.2
	c0.5-0.4,1-0.9,1.4-1.4C24.7,10.7,24.7,10.6,24.6,10.5L24.6,10.5C24.7,10.5,24.7,10.5,24.6,10.5z"/>
<path fill="#ffffff" d="M12.4,23.1"/>
<path fill="#ffffff" d="M12.4,23.1"/>
<path fill="#ffffff" d="M13,23.1C13,23.1,13.3,23.1,13,23.1z"/>
<path fill="#ffffff" d="M19.1,8.8"/>
</svg>
