<?xml version="1.0" encoding="utf-8"?>
<!-- Generator: Adobe Illustrator 23.0.2, SVG Export Plug-In . SVG Version: 6.00 Build 0)  -->
<svg version="1.1" id="Layer_1" xmlns="http://www.w3.org/2000/svg" xmlns:xlink="http://www.w3.org/1999/xlink" x="0px" y="0px"
	 width="384.8px" height="330.5px" viewBox="0 0 384.8 330.5" style="enable-background:new 0 0 384.8 330.5;" xml:space="preserve"
	>
<title>twitter</title>
<circle style="fill:#FFFFFF;" cx="26" cy="26" r="13.6"/>
<path style="fill:#252F6A;" d="M25.4,0C11.4,0,0,11.4,0,25.4s11.4,25.4,25.4,25.4s25.4-11.4,25.4-25.4S39.4,0,25.4,0z M20.3,36.8V14
	l15.3,11.4L20.3,36.8z"/>
<g>
	<path style="fill:#C6C6C6;" d="M86,44c1,0.2,2.1,0.4,3.2,0.4c5.7,0,10.5-3.4,12.4-8.1l5.4,3.8c0.3,0.4,0.6,0.9,0.9,1.3
		c2,1,4.3,1.5,6.8,1.5c8.4,0,15.1-6.4,15.1-14.4c0-5.5-3.3-16.6-8.1-22.7c-0.6-0.2-1.1-0.3-1.7-0.3c-4.9,0-13.5,11-18.4,20.2
		c-1.3-5.5-4.1-12-7.6-15.4c-7.2,0.4-13,17-13,23.8C80.9,38.1,82.9,41.7,86,44z"/>
	<path style="fill:#C6C6C6;" d="M130.9,54.7c-2-1.4-4.5-2.2-7.1-2.2c-3.4,0-6.6,1.4-8.9,3.6c-1.7,0.4-3.1,1.6-3.8,3.1
		c-0.6-1.9-2.4-3.3-4.5-3.3c-1.2,0-2.2,0.4-3,1.1c-0.9-3.1-3.7-5.3-7.1-5.3c-3.1,0-5.8,1.9-6.9,4.7c-0.6-0.2-1.2-0.3-1.8-0.3
		c-2.2,0-4.1,1.1-5.3,2.7c-0.5-0.1-0.9-0.2-1.4-0.2c-2.2,0-4.2,1.3-5.2,3.1h13.2h2.3h20.1h10.8H133
		C133.1,59.1,132.3,56.7,130.9,54.7z"/>
	<path style="fill:#252F6A;" d="M114.6,17.8c0.3,0,0.6-0.1,0.9-0.4c0.2-0.2,0.4-0.5,0.4-0.9c0-0.3-0.1-0.6-0.4-0.9
		c-0.2-0.2-0.5-0.4-0.9-0.4s-0.6,0.1-0.9,0.4c-0.2,0.2-0.4,0.5-0.4,0.9c0,0.3,0.1,0.6,0.4,0.9C114,17.7,114.3,17.8,114.6,17.8z"/>
	<path style="fill:#252F6A;" d="M78,21.4c0.1,0.1,0.3,0.1,0.4,0.1c0.5,0,1-0.3,1.2-0.8l0,0c0.2-0.6-0.1-1.3-0.7-1.6s-1.4,0-1.6,0.7
		l0,0C77,20.4,77.4,21.2,78,21.4z"/>
	<path style="fill:#252F6A;" d="M120.3,47.8c-1.6,0-3.1,0.3-4.5,0.7V44c8.5-0.6,15.1-7.4,15.1-15.6c0-4.4-1.9-11.4-4.6-17.1
		c-1.5-3.3-3.2-5.9-5-7.8c-2.1-2.3-4.4-3.5-6.7-3.5c-3.4,0-6.8,2.6-9.8,7.6c-1.8,2.9-3.4,6.6-4.6,10.4c-0.2-0.4-0.4-0.9-0.6-1.3
		c-1.4-2.9-2.8-5.2-4.4-6.9c-2-2.1-4-3.1-6.1-3.1c-4.5,0-7.9,4.9-10,9c-0.3,0.6-0.1,1.3,0.5,1.7c0.6,0.3,1.3,0.1,1.7-0.5
		c2.5-4.9,5.3-7.7,7.8-7.7c2.7,0,5.7,3.1,8.3,8.6c2.5,5.2,3.8,11,3.8,14c0,5.9-4.7,10.7-10.8,11.3v-7.7l4.3-4.3
		c0.5-0.5,0.5-1.3,0-1.7c-0.5-0.5-1.3-0.5-1.7,0l-2.7,2.5V21.3c0-0.7-0.6-1.2-1.2-1.2c-0.7,0-1.2,0.6-1.2,1.2v15.3l-4-4
		c-0.5-0.5-1.3-0.5-1.7,0s-0.5,1.3,0,1.7l5.8,5.8V43c-6.1-0.6-10.8-5.4-10.8-11.3c0-1.5,0.3-3.7,0.9-6c0.2-0.7-0.2-1.3-0.9-1.5
		c-0.7-0.2-1.3,0.2-1.5,0.9c-0.6,2.5-1,4.8-1,6.6c0,7.2,5.8,13.2,13.3,13.8v7.1c-0.9-0.3-1.8-0.5-2.8-0.5c-2.2,0-4.4,1-5.8,2.6
		c-0.3,0-0.6-0.1-0.9-0.1c-3.9,0-7.1,3.2-7.1,7.1c-0.1,0.7,0.5,1.3,1.1,1.3H133c0.7,0,1.2-0.6,1.2-1.2
		C134.3,54.1,128,47.8,120.3,47.8z M87.9,60.5h-14c0.5-1.9,2.3-3.4,4.4-3.4c0.4,0,0.8,0,1.1,0.1c0.5,0.1,1-0.1,1.3-0.5
		c1-1.4,2.6-2.2,4.3-2.2c1,0,1.9,0.3,2.8,0.8L87.9,60.5L87.9,60.5z M114.6,2.5c3.1,0,6.6,3.6,9.6,9.9c2.5,5.3,4.3,12.1,4.3,16.1
		c0,6.9-5.6,12.5-12.7,13.1v-9l4.9-4.9c0.5-0.5,0.5-1.3,0-1.7c-0.5-0.5-1.3-0.5-1.7,0l-3.2,3.2v-7.5c0-0.7-0.6-1.2-1.2-1.2
		c-0.6,0-1.2,0.6-1.2,1.2v13l-4.9-4.9c-0.5-0.5-1.3-0.5-1.7,0c-0.5,0.5-0.5,1.3,0,1.7l6.7,6.7v3.6c-4.2-0.3-8-2.5-10.4-5.9
		c0.4-1.3,0.6-2.6,0.6-4c0-2.6-0.7-6.2-1.9-9.9C104,12.3,109.5,2.5,114.6,2.5z M90.3,45.5c5-0.4,9.3-3.2,11.5-7.3
		c1.3,1.5,2.8,2.8,4.6,3.7c2.1,1.2,4.5,1.8,6.9,2v5.7c-2.1,1.2-3.9,3-5.2,5.2c-0.5-0.1-1-0.2-1.5-0.2c-0.8,0-1.7,0.2-2.4,0.5
		c-1.5-2.8-4.4-4.7-7.7-4.7c-2.4,0-4.6,1-6.2,2.6C90.3,53,90.3,45.5,90.3,45.5z M108.8,60.5H90.3V59c0-3.4,2.8-6.2,6.2-6.2
		c2.7,0,5.2,1.8,5.9,4.4c0.1,0.4,0.4,0.7,0.8,0.8s0.8,0,1.2-0.2c0.6-0.5,1.4-0.8,2.2-0.8c1.5,0,2.9,1,3.3,2.5
		c0.1,0.5,0.6,0.8,1.1,0.9c0.5,0,1-0.2,1.2-0.7c0.8-1.6,2.4-2.6,4.2-2.6c2.2,0,4,1.5,4.5,3.4C120.9,60.5,108.8,60.5,108.8,60.5z
		 M123.5,60.5c-0.6-3.3-3.5-5.9-7-5.9c-2,0-3.9,0.8-5.2,2.2c-0.3-0.3-0.6-0.6-0.9-0.9c1.1-1.9,2.8-3.5,4.8-4.5c0,0,0,0,0.1,0
		c1.6-0.8,3.3-1.2,5.1-1.2c5.9,0,10.8,4.5,11.4,10.3C131.8,60.5,123.5,60.5,123.5,60.5z"/>
</g>
<g>
	<g>
		<path style="fill:#C6C6C6;" d="M198.9,23c0-1-0.8-1.9-1.9-1.9h-0.6c-0.5-4.6-3.8-8.3-8.1-9.4V7.2c0-1.1-0.9-2-2-2h-1.4
			c-0.2,0-0.4,0-0.6,0.1c0.8,0.3,1.3,1,1.3,1.8v4.2c-0.7,0-1.4,0.1-2.1,0.2c4.6,0.9,8.2,4.8,8.6,9.5h-17.7c-1,0-1.9,0.8-1.9,1.9v5.9
			h26.4V23z"/>
		<path style="fill:#C6C6C6;" d="M212.1,56.4L212.1,56.4L212,40.6c0-0.9-0.7-1.6-1.6-1.6h-9.3v17.4h-30.8V39h-9.2
			c-0.9,0-1.6,0.7-1.6,1.6v15.8h-0.2c-1.9,0-3.4,1.5-3.4,3.4V63h59.6v-3.2C215.5,57.9,214,56.4,212.1,56.4z"/>
	</g>
	<g>
		<path style="fill:#252F6A;" d="M212.9,55.5V40.6c0-1.4-1.2-2.6-2.6-2.6H202v-0.3l0,0v-7.1c0-1.3-0.9-2.4-2.2-2.6v-4.9
			c0-1.5-1.1-2.7-2.6-2.8c-0.3-1.5-0.8-3-1.7-4.3c-0.3-0.4-0.9-0.6-1.3-0.3c-0.4,0.3-0.6,0.9-0.3,1.3c0.6,1,1.1,2.1,1.3,3.3h-19.1
			c0.8-3.6,3.6-6.6,7.2-7.5c1.6-0.4,3.3-0.4,4.8,0c1.3,0.3,2.5,0.9,3.6,1.8c0.4,0.3,1,0.2,1.3-0.2s0.2-1-0.2-1.3
			c-1.1-0.8-2.3-1.5-3.6-1.9v-4c0-1.5-1.2-2.8-2.7-2.9V1c0-0.5-0.4-1-1-1c-0.6,0-1,0.4-1,1v3.4c-1.5,0.1-2.7,1.4-2.7,2.9v3.8
			c-4.1,1.3-7.2,4.9-8,9.2c-1.4,0.1-2.6,1.3-2.6,2.8V28c-1.2,0.2-2.2,1.3-2.2,2.6v7.1l0,0V38h-7.9c-1.4,0-2.6,1.2-2.6,2.6v14.9
			c-2,0.4-3.5,2.2-3.5,4.3V63c0,0.5,0.4,1,1,1c0.6,0,1-0.4,1-1v-3.2c0-1.4,1.1-2.5,2.5-2.5h2.7c0.5,0,1-0.4,1-1c0-0.5-0.4-1-1-1
			h-1.8V44h9v11.5h-2.6c-0.5,0-1,0.4-1,1c0,0.5,0.4,1,1,1h45.3c1.4,0,2.5,1.1,2.5,2.5v3.2c0,0.5,0.4,1,1,1c0.6,0,1-0.4,1-1V60
			C216.5,57.7,214.9,55.9,212.9,55.5z M184,7.2c0-0.6,0.4-1,1-1h0.7l0,0l0,0h0.7c0.6,0,1,0.4,1,1v3.4c-1.1-0.2-2.3-0.2-3.4,0
			C184,10.6,184,7.2,184,7.2z M169.4,42.1h-9v-1.6c0-0.4,0.3-0.7,0.7-0.7h8.3V42.1z M171.3,30.6c0-0.4,0.3-0.8,0.8-0.8h0.4l0,0l0,0
			h2.8c0.5,0,1-0.4,1-1c0-0.5-0.4-1-1-1h-1.9v-4.9c0-0.5,0.4-0.9,0.9-0.9h0.6l0,0l0,0h21.5l0,0l0,0h0.6c0.5,0,0.9,0.4,0.9,0.9v4.9
			h-18.3c-0.5,0-1,0.4-1,1c0,0.5,0.4,1,1,1h19.3l0,0l0,0h0.4c0.4,0,0.8,0.3,0.8,0.8v5.8L186,32.1c-0.2-0.1-0.4-0.1-0.6,0l-14.1,4.3
			C171.3,36.4,171.3,30.6,171.3,30.6z M175.5,55.5h-4.2V44h4.2V55.5z M181.7,55.5h-4.2V44h4.2V55.5z M187.8,55.5h-4.2V44h4.2V55.5z
			 M200.1,55.5h-4.2v-3.9c0-0.5-0.4-1-1-1c-0.6,0-1,0.4-1,1v3.9h-4.2V44h4.2v3.6c0,0.5,0.4,1,1,1c0.6,0,1-0.4,1-1V44h4.2V55.5z
			 M200.1,42.1h-28.8v-3.2l0,0v-0.6l14.4-4.4l14.4,4.4v0.6l0,0V42.1z M211,55.5h-9V44h9V55.5z M211,42.1h-9v-2.2h8.3
			c0.4,0,0.7,0.3,0.7,0.7V42.1z"/>
		<path style="fill:#252F6A;" d="M194.1,38.4l-8-2.4c-0.2-0.1-0.4-0.1-0.5,0l-7.8,2.4c-0.5,0.2-0.8,0.7-0.6,1.2
			c0.1,0.4,0.5,0.7,0.9,0.7c0.1,0,0.2,0,0.3,0L186,38l7.8,2.3c0.5,0.1,1-0.1,1.2-0.6C194.9,39.1,194.6,38.5,194.1,38.4z"/>
		<path style="fill:#252F6A;" d="M176.3,23.5c-0.5,0-1,0.4-1,1v1.4c0,0.5,0.4,1,1,1c0.6,0,1-0.4,1-1v-1.4
			C177.2,24,176.8,23.5,176.3,23.5z"/>
		<path style="fill:#252F6A;" d="M180,26.8c0.5,0,1-0.4,1-1v-1.3c0-0.5-0.4-1-1-1c-0.5,0-1,0.4-1,1v1.4
			C179.1,26.4,179.5,26.8,180,26.8z"/>
		<path style="fill:#252F6A;" d="M183.8,26.8c0.5,0,1-0.4,1-1v-1.3c0-0.5-0.4-1-1-1c-0.6,0-1,0.4-1,1v1.4
			C182.9,26.4,183.3,26.8,183.8,26.8z"/>
		<path style="fill:#252F6A;" d="M187.6,26.8c0.5,0,1-0.4,1-1v-1.3c0-0.5-0.4-1-1-1c-0.5,0-1,0.4-1,1v1.4
			C186.6,26.4,187.1,26.8,187.6,26.8z"/>
		<path style="fill:#252F6A;" d="M191.4,26.8c0.5,0,1-0.4,1-1v-1.3c0-0.5-0.4-1-1-1c-0.6,0-1,0.4-1,1v1.4
			C190.4,26.4,190.8,26.8,191.4,26.8z"/>
		<path style="fill:#252F6A;" d="M195.1,26.8c0.5,0,1-0.4,1-1v-1.3c0-0.5-0.4-1-1-1c-0.5,0-1,0.4-1,1v1.4
			C194.2,26.4,194.6,26.8,195.1,26.8z"/>
	</g>
</g>
<g>
	<g>
		<path style="fill:#C6C6C6;" d="M294.1,9.3c0.9,0,1.5-0.7,1.5-1.5s-0.7-1.5-1.5-1.5s-1.5,0.7-1.5,1.5S293.2,9.3,294.1,9.3z"/>
		<path style="fill:#C6C6C6;" d="M255.4,21.6c0,2.1,0.9,3.9,2.1,3.9c1.1,0,2.1-1.7,2.1-3.9c0-2.2-0.9-3.9-2.1-3.9
			C256.3,17.8,255.4,19.5,255.4,21.6z"/>
		<path style="fill:#C6C6C6;" d="M265.7,21.6c0,2.1,0.9,3.9,2.1,3.9c1.1,0,2.1-1.7,2.1-3.9c0-2.2-0.9-3.9-2.1-3.9
			C266.6,17.8,265.7,19.5,265.7,21.6z"/>
		<path style="fill:#C6C6C6;" d="M285.3,32h-31c-5.7,0-10.3-4.6-10.3-10.3s4.6-10.4,10.3-10.4h30V7.2h-30c-8,0-14.5,6.5-14.5,14.5
			s6.5,14.5,14.5,14.5h31c4.6,0,8.3,3.7,8.3,8.3s-3.7,8.3-8.3,8.3h-17.5v4.1h17.5c6.8,0,12.4-5.5,12.4-12.4
			C297.7,37.5,292.2,32,285.3,32z"/>
	</g>
	<g>
		<path style="fill:#252F6A;" d="M290.5,44.4c0,2.8-2.3,5.2-5.2,5.2h-17.5v2.1h17.5c4,0,7.2-3.2,7.2-7.2s-3.2-7.2-7.2-7.2h-31
			c-8.5,0-15.5-6.9-15.5-15.5s7-15.6,15.5-15.6h30V4.1h-30c-9.7,0-17.5,7.9-17.5,17.5s7.9,17.6,17.5,17.6h31
			C288.2,39.2,290.5,41.5,290.5,44.4z"/>
		<path style="fill:#252F6A;" d="M285.3,28.9h-15.5v-2.2c1.8-0.6,3.1-2.6,3.1-5c0-2.8-1.9-5.2-4.1-5.2c-2.2,0-4.1,2.3-4.1,5.2
			c0,2.4,1.3,4.4,3.1,5v2.2h-8.3v-2.2c1.8-0.6,3.1-2.6,3.1-5c0-2.8-1.9-5.2-4.1-5.2c-2.3,0-4.1,2.3-4.1,5.2c0,2.4,1.3,4.4,3.1,5v2.2
			h-3.2c-4,0-7.2-3.2-7.2-7.2s3.2-7.2,7.2-7.2h30v-2.1h-30c-5.1,0-9.3,4.2-9.3,9.3s4.2,9.3,9.3,9.3h31c7.4,0,13.4,6,13.4,13.4
			s-6,13.4-13.4,13.4h-17.5v2.1h17.5c8.5,0,15.5-6.9,15.5-15.5S293.9,28.9,285.3,28.9z M268.8,18.5c1.1,0,2.1,1.4,2.1,3.1
			s-0.9,3.1-2.1,3.1c-1.1,0-2.1-1.4-2.1-3.1C266.7,20,267.7,18.5,268.8,18.5z M258.5,18.5c1.1,0,2.1,1.4,2.1,3.1s-0.9,3.1-2.1,3.1
			c-1.1,0-2.1-1.4-2.1-3.1C256.4,20,257.4,18.5,258.5,18.5z"/>
		<rect x="281.2" y="8.2" style="fill:#252F6A;" width="3.1" height="2.1"/>
		<rect x="272.9" y="8.2" style="fill:#252F6A;" width="4.1" height="2.1"/>
		<rect x="264.7" y="8.2" style="fill:#252F6A;" width="4.1" height="2.1"/>
		<rect x="256.4" y="8.2" style="fill:#252F6A;" width="4.1" height="2.1"/>
		<path style="fill:#252F6A;" d="M248.7,11.8c1.2-0.7,2.4-1.1,3.8-1.4l-0.3-2c-1.6,0.3-3.1,0.8-4.5,1.6L248.7,11.8z"/>
		<path style="fill:#252F6A;" d="M243.4,13.8c-1,1.4-1.7,2.9-2.1,4.5l2,0.5c0.4-1.4,1-2.6,1.8-3.8L243.4,13.8z"/>
		<path style="fill:#252F6A;" d="M241,22.8c0.1,1.6,0.5,3.1,1.2,4.5l1.8-0.9c-0.5-1.2-0.9-2.5-1-3.8L241,22.8z"/>
		<path style="fill:#252F6A;" d="M246.8,30.2l-1.4,1.5c1.3,1.1,2.8,2,4.4,2.6l0.7-1.9C249.2,31.9,247.9,31.1,246.8,30.2z"/>
		<rect x="254.3" y="33" style="fill:#252F6A;" width="4.1" height="2.1"/>
		<rect x="262.6" y="33" style="fill:#252F6A;" width="4.1" height="2.1"/>
		<rect x="270.9" y="33" style="fill:#252F6A;" width="4.1" height="2.1"/>
		<rect x="279.1" y="33" style="fill:#252F6A;" width="4.1" height="2.1"/>
		<path style="fill:#252F6A;" d="M292.1,35.3c-1.4-1-2.9-1.7-4.5-2l-0.4,2c1.4,0.3,2.6,0.8,3.7,1.7L292.1,35.3z"/>
		<path style="fill:#252F6A;" d="M295.7,39.8l-1.9,0.8c0.5,1.2,0.8,2.4,0.8,3.7h2.1C296.7,42.8,296.4,41.2,295.7,39.8z"/>
		<path style="fill:#252F6A;" d="M290.9,51.8l1.2,1.7c1.6-1.2,2.8-2.7,3.6-4.5l-1.9-0.8C293.2,49.5,292.2,50.8,290.9,51.8z"/>
		<path style="fill:#252F6A;" d="M283.3,53.6v2.1h2c0.8,0,1.5-0.1,2.3-0.2l-0.4-2c-0.6,0.1-1.2,0.2-1.9,0.2L283.3,53.6L283.3,53.6z"
			/>
		<rect x="275" y="53.6" style="fill:#252F6A;" width="4.1" height="2.1"/>
		<rect x="267.8" y="53.6" style="fill:#252F6A;" width="3.1" height="2.1"/>
		<path style="fill:#252F6A;" d="M292.5,14.3v10.4h2.1V14.3c3.5-0.5,6.2-3.5,6.2-7.1c0-4-3.2-7.2-7.2-7.2s-7.2,3.2-7.2,7.2
			C286.3,10.8,289,13.8,292.5,14.3z M293.6,2c2.8,0,5.2,2.3,5.2,5.2s-2.4,5.2-5.2,5.2s-5.2-2.3-5.2-5.2S290.7,2,293.6,2z"/>
		<path style="fill:#252F6A;" d="M296.7,7.2h-2.1c0,0.6-0.5,1-1,1v2.1C295.3,10.3,296.7,8.9,296.7,7.2z"/>
	</g>
</g>
<g>
	<path style="fill:#E6E6E6;" d="M334.7,1.1h36.3v60.8h-36.3V1.1z"/>
	<path style="fill:#C6C6C6;" d="M346.4,50.1h12.8v11.7h-12.8V50.1z"/>
	<g>
		<path style="fill:#C6C6C6;" d="M338.9,5.3h6.4v6.4h-6.4V5.3z"/>
		<path style="fill:#C6C6C6;" d="M349.6,5.3h6.4v6.4h-6.4V5.3z"/>
		<path style="fill:#C6C6C6;" d="M360.3,5.3h6.4v6.4h-6.4V5.3z"/>
		<path style="fill:#C6C6C6;" d="M338.9,16h6.4v6.4h-6.4V16z"/>
		<path style="fill:#C6C6C6;" d="M349.6,16h6.4v6.4h-6.4V16z"/>
		<path style="fill:#C6C6C6;" d="M360.3,16h6.4v6.4h-6.4V16z"/>
		<path style="fill:#C6C6C6;" d="M338.9,26.7h6.4v6.4h-6.4V26.7z"/>
		<path style="fill:#C6C6C6;" d="M349.6,26.7h6.4v6.4h-6.4V26.7z"/>
		<path style="fill:#C6C6C6;" d="M360.3,26.7h6.4v6.4h-6.4V26.7z"/>
		<path style="fill:#C6C6C6;" d="M338.9,37.3h6.4v6.4h-6.4V37.3z"/>
		<path style="fill:#C6C6C6;" d="M349.6,37.3h6.4v6.4h-6.4V37.3z"/>
		<path style="fill:#C6C6C6;" d="M360.3,37.3h6.4v6.4h-6.4V37.3z"/>
		<path style="fill:#C6C6C6;" d="M375.2,14.9h4.3v4.3h-4.3V14.9z"/>
		<path style="fill:#C6C6C6;" d="M375.2,23.5h4.3v4.3h-4.3V23.5z"/>
		<path style="fill:#C6C6C6;" d="M375.2,32h4.3v4.3h-4.3V32z"/>
		<path style="fill:#C6C6C6;" d="M375.2,40.5h4.3v4.3h-4.3V40.5z"/>
		<path style="fill:#C6C6C6;" d="M375.2,49.1h4.3v4.3h-4.3V49.1z"/>
	</g>
	<path style="fill:#C6C6C6;" d="M352.8,50.1h6.4v11.7h-6.4V50.1z"/>
	<path style="fill:#252F6A;" d="M383.7,9.6H372V1.1c0-0.6-0.5-1.1-1.1-1.1h-36.3c-0.6,0-1.1,0.5-1.1,1.1V16h-11.7
		c-0.6,0-1.1,0.5-1.1,1.1v43.7c0,0.6,0.5,1.1,1.1,1.1c0.6,0,1.1-0.5,1.1-1.1V18.1h10.7v43.7c0,0.6,0.5,1.1,1.1,1.1h36.3
		c0.6,0,1.1-0.5,1.1-1.1V11.7h10.7v49.1c0,0.6,0.5,1.1,1.1,1.1c0.6,0,1.1-0.5,1.1-1.1V10.7C384.8,10.1,384.3,9.6,383.7,9.6z
		 M351.7,60.8h-4.3v-9.6h4.3V60.8z M358.1,60.8h-4.3v-9.6h4.3V60.8z M369.9,60.8h-9.6V50.1c0-0.6-0.5-1.1-1.1-1.1h-12.8
		c-0.6,0-1.1,0.5-1.1,1.1v10.7h-9.6V2.1h34.1V60.8z"/>
	<path style="fill:#252F6A;" d="M338.9,12.8h6.4c0.6,0,1.1-0.5,1.1-1.1V5.3c0-0.6-0.5-1.1-1.1-1.1h-6.4c-0.6,0-1.1,0.5-1.1,1.1v6.4
		C337.9,12.3,338.3,12.8,338.9,12.8z M340,6.4h4.3v4.3H340V6.4z"/>
	<path style="fill:#252F6A;" d="M349.6,12.8h6.4c0.6,0,1.1-0.5,1.1-1.1V5.3c0-0.6-0.5-1.1-1.1-1.1h-6.4c-0.6,0-1.1,0.5-1.1,1.1v6.4
		C348.5,12.3,349,12.8,349.6,12.8z M350.7,6.4h4.3v4.3h-4.3V6.4z"/>
	<path style="fill:#252F6A;" d="M360.3,12.8h6.4c0.6,0,1.1-0.5,1.1-1.1V5.3c0-0.6-0.5-1.1-1.1-1.1h-6.4c-0.6,0-1.1,0.5-1.1,1.1v6.4
		C359.2,12.3,359.7,12.8,360.3,12.8z M361.3,6.4h4.3v4.3h-4.3V6.4z"/>
	<path style="fill:#252F6A;" d="M338.9,23.5h6.4c0.6,0,1.1-0.5,1.1-1.1V16c0-0.6-0.5-1.1-1.1-1.1h-6.4c-0.6,0-1.1,0.5-1.1,1.1v6.4
		C337.9,23,338.3,23.5,338.9,23.5z M340,17.1h4.3v4.3H340V17.1z"/>
	<path style="fill:#252F6A;" d="M349.6,23.5h6.4c0.6,0,1.1-0.5,1.1-1.1V16c0-0.6-0.5-1.1-1.1-1.1h-6.4c-0.6,0-1.1,0.5-1.1,1.1v6.4
		C348.5,23,349,23.5,349.6,23.5z M350.7,17.1h4.3v4.3h-4.3V17.1z"/>
	<path style="fill:#252F6A;" d="M360.3,23.5h6.4c0.6,0,1.1-0.5,1.1-1.1V16c0-0.6-0.5-1.1-1.1-1.1h-6.4c-0.6,0-1.1,0.5-1.1,1.1v6.4
		C359.2,23,359.7,23.5,360.3,23.5z M361.3,17.1h4.3v4.3h-4.3V17.1z"/>
	<path style="fill:#252F6A;" d="M338.9,34.1h6.4c0.6,0,1.1-0.5,1.1-1.1v-6.4c0-0.6-0.5-1.1-1.1-1.1h-6.4c-0.6,0-1.1,0.5-1.1,1.1v6.4
		C337.9,33.7,338.3,34.1,338.9,34.1z M340,27.7h4.3V32H340V27.7z"/>
	<path style="fill:#252F6A;" d="M349.6,34.1h6.4c0.6,0,1.1-0.5,1.1-1.1v-6.4c0-0.6-0.5-1.1-1.1-1.1h-6.4c-0.6,0-1.1,0.5-1.1,1.1v6.4
		C348.5,33.7,349,34.1,349.6,34.1z M350.7,27.7h4.3V32h-4.3V27.7z"/>
	<path style="fill:#252F6A;" d="M360.3,34.1h6.4c0.6,0,1.1-0.5,1.1-1.1v-6.4c0-0.6-0.5-1.1-1.1-1.1h-6.4c-0.6,0-1.1,0.5-1.1,1.1v6.4
		C359.2,33.7,359.7,34.1,360.3,34.1z M361.3,27.7h4.3V32h-4.3V27.7z"/>
	<path style="fill:#252F6A;" d="M338.9,44.8h6.4c0.6,0,1.1-0.5,1.1-1.1v-6.4c0-0.6-0.5-1.1-1.1-1.1h-6.4c-0.6,0-1.1,0.5-1.1,1.1v6.4
		C337.9,44.3,338.3,44.8,338.9,44.8z M340,38.4h4.3v4.3H340V38.4z"/>
	<path style="fill:#252F6A;" d="M349.6,44.8h6.4c0.6,0,1.1-0.5,1.1-1.1v-6.4c0-0.6-0.5-1.1-1.1-1.1h-6.4c-0.6,0-1.1,0.5-1.1,1.1v6.4
		C348.5,44.3,349,44.8,349.6,44.8z M350.7,38.4h4.3v4.3h-4.3V38.4z"/>
	<path style="fill:#252F6A;" d="M360.3,44.8h6.4c0.6,0,1.1-0.5,1.1-1.1v-6.4c0-0.6-0.5-1.1-1.1-1.1h-6.4c-0.6,0-1.1,0.5-1.1,1.1v6.4
		C359.2,44.3,359.7,44.8,360.3,44.8z M361.3,38.4h4.3v4.3h-4.3V38.4z"/>
	<path style="fill:#252F6A;" d="M326.1,20.3h1.1c0.6,0,1.1,0.5,1.1,1.1v1.1c0,0.6-0.5,1.1-1.1,1.1h-1.1c-0.6,0-1.1-0.5-1.1-1.1v-1.1
		C325.1,20.7,325.5,20.3,326.1,20.3z"/>
	<path style="fill:#252F6A;" d="M330.4,20.3h1.1c0.6,0,1.1,0.5,1.1,1.1v1.1c0,0.6-0.5,1.1-1.1,1.1h-1.1c-0.6,0-1.1-0.5-1.1-1.1v-1.1
		C329.3,20.7,329.8,20.3,330.4,20.3z"/>
	<path style="fill:#252F6A;" d="M326.1,24.5h1.1c0.6,0,1.1,0.5,1.1,1.1v1.1c0,0.6-0.5,1.1-1.1,1.1h-1.1c-0.6,0-1.1-0.5-1.1-1.1v-1.1
		C325.1,25,325.5,24.5,326.1,24.5z"/>
	<path style="fill:#252F6A;" d="M330.4,24.5h1.1c0.6,0,1.1,0.5,1.1,1.1v1.1c0,0.6-0.5,1.1-1.1,1.1h-1.1c-0.6,0-1.1-0.5-1.1-1.1v-1.1
		C329.3,25,329.8,24.5,330.4,24.5z"/>
	<path style="fill:#252F6A;" d="M326.1,28.8h1.1c0.6,0,1.1,0.5,1.1,1.1v1.1c0,0.6-0.5,1.1-1.1,1.1h-1.1c-0.6,0-1.1-0.5-1.1-1.1v-1.1
		C325.1,29.3,325.5,28.8,326.1,28.8z"/>
	<path style="fill:#252F6A;" d="M330.4,28.8h1.1c0.6,0,1.1,0.5,1.1,1.1v1.1c0,0.6-0.5,1.1-1.1,1.1h-1.1c-0.6,0-1.1-0.5-1.1-1.1v-1.1
		C329.3,29.3,329.8,28.8,330.4,28.8z"/>
	<path style="fill:#252F6A;" d="M326.1,33.1h1.1c0.6,0,1.1,0.5,1.1,1.1v1.1c0,0.6-0.5,1.1-1.1,1.1h-1.1c-0.6,0-1.1-0.5-1.1-1.1v-1.1
		C325.1,33.5,325.5,33.1,326.1,33.1z"/>
	<path style="fill:#252F6A;" d="M330.4,33.1h1.1c0.6,0,1.1,0.5,1.1,1.1v1.1c0,0.6-0.5,1.1-1.1,1.1h-1.1c-0.6,0-1.1-0.5-1.1-1.1v-1.1
		C329.3,33.5,329.8,33.1,330.4,33.1z"/>
	<path style="fill:#252F6A;" d="M326.1,37.3h1.1c0.6,0,1.1,0.5,1.1,1.1v1.1c0,0.6-0.5,1.1-1.1,1.1h-1.1c-0.6,0-1.1-0.5-1.1-1.1v-1.1
		C325.1,37.8,325.5,37.3,326.1,37.3z"/>
	<path style="fill:#252F6A;" d="M330.4,37.3h1.1c0.6,0,1.1,0.5,1.1,1.1v1.1c0,0.6-0.5,1.1-1.1,1.1h-1.1c-0.6,0-1.1-0.5-1.1-1.1v-1.1
		C329.3,37.8,329.8,37.3,330.4,37.3z"/>
	<path style="fill:#252F6A;" d="M326.1,41.6h1.1c0.6,0,1.1,0.5,1.1,1.1v1.1c0,0.6-0.5,1.1-1.1,1.1h-1.1c-0.6,0-1.1-0.5-1.1-1.1v-1.1
		C325.1,42.1,325.5,41.6,326.1,41.6z"/>
	<path style="fill:#252F6A;" d="M330.4,41.6h1.1c0.6,0,1.1,0.5,1.1,1.1v1.1c0,0.6-0.5,1.1-1.1,1.1h-1.1c-0.6,0-1.1-0.5-1.1-1.1v-1.1
		C329.3,42.1,329.8,41.6,330.4,41.6z"/>
	<path style="fill:#252F6A;" d="M326.1,45.9h1.1c0.6,0,1.1,0.5,1.1,1.1V48c0,0.6-0.5,1.1-1.1,1.1h-1.1c-0.6,0-1.1-0.5-1.1-1.1v-1.1
		C325.1,46.3,325.5,45.9,326.1,45.9z"/>
	<path style="fill:#252F6A;" d="M330.4,45.9h1.1c0.6,0,1.1,0.5,1.1,1.1V48c0,0.6-0.5,1.1-1.1,1.1h-1.1c-0.6,0-1.1-0.5-1.1-1.1v-1.1
		C329.3,46.3,329.8,45.9,330.4,45.9z"/>
	<path style="fill:#252F6A;" d="M326.1,50.1h1.1c0.6,0,1.1,0.5,1.1,1.1v1.1c0,0.6-0.5,1.1-1.1,1.1h-1.1c-0.6,0-1.1-0.5-1.1-1.1v-1.1
		C325.1,50.6,325.5,50.1,326.1,50.1z"/>
	<path style="fill:#252F6A;" d="M330.4,50.1h1.1c0.6,0,1.1,0.5,1.1,1.1v1.1c0,0.6-0.5,1.1-1.1,1.1h-1.1c-0.6,0-1.1-0.5-1.1-1.1v-1.1
		C329.3,50.6,329.8,50.1,330.4,50.1z"/>
	<path style="fill:#252F6A;" d="M326.1,54.4h1.1c0.6,0,1.1,0.5,1.1,1.1v1.1c0,0.6-0.5,1.1-1.1,1.1h-1.1c-0.6,0-1.1-0.5-1.1-1.1v-1.1
		C325.1,54.9,325.5,54.4,326.1,54.4z"/>
	<path style="fill:#252F6A;" d="M330.4,54.4h1.1c0.6,0,1.1,0.5,1.1,1.1v1.1c0,0.6-0.5,1.1-1.1,1.1h-1.1c-0.6,0-1.1-0.5-1.1-1.1v-1.1
		C329.3,54.9,329.8,54.4,330.4,54.4z"/>
	<path style="fill:#252F6A;" d="M375.2,20.3h4.3c0.6,0,1.1-0.5,1.1-1.1v-4.3c0-0.6-0.5-1.1-1.1-1.1h-4.3c-0.6,0-1.1,0.5-1.1,1.1v4.3
		C374.1,19.8,374.6,20.3,375.2,20.3z M376.3,16h2.1v2.1h-2.1V16z"/>
	<path style="fill:#252F6A;" d="M374.1,27.7c0,0.6,0.5,1.1,1.1,1.1h4.3c0.6,0,1.1-0.5,1.1-1.1v-4.3c0-0.6-0.5-1.1-1.1-1.1h-4.3
		c-0.6,0-1.1,0.5-1.1,1.1V27.7z M376.3,24.5h2.1v2.1h-2.1V24.5z"/>
	<path style="fill:#252F6A;" d="M374.1,36.3c0,0.6,0.5,1.1,1.1,1.1h4.3c0.6,0,1.1-0.5,1.1-1.1V32c0-0.6-0.5-1.1-1.1-1.1h-4.3
		c-0.6,0-1.1,0.5-1.1,1.1V36.3z M376.3,33.1h2.1v2.1h-2.1V33.1z"/>
	<path style="fill:#252F6A;" d="M374.1,44.8c0,0.6,0.5,1.1,1.1,1.1h4.3c0.6,0,1.1-0.5,1.1-1.1v-4.3c0-0.6-0.5-1.1-1.1-1.1h-4.3
		c-0.6,0-1.1,0.5-1.1,1.1V44.8z M376.3,41.6h2.1v2.1h-2.1V41.6z"/>
	<path style="fill:#252F6A;" d="M374.1,53.3c0,0.6,0.5,1.1,1.1,1.1h4.3c0.6,0,1.1-0.5,1.1-1.1v-4.3c0-0.6-0.5-1.1-1.1-1.1h-4.3
		c-0.6,0-1.1,0.5-1.1,1.1V53.3z M376.3,50.1h2.1v2.1h-2.1V50.1z"/>
</g>
<g>
	<g>
		<path style="fill:#C6C6C6;" d="M87.4,124.4L87.4,124.4c1.4,0,2.5-1.1,2.5-2.5l0,0c0-1.4-1.1-2.5-2.5-2.5l0,0
			c-1.4,0-2.5,1.1-2.5,2.5l0,0C84.9,123.3,86,124.4,87.4,124.4z"/>
		<path style="fill:#C6C6C6;" d="M100.3,120.4L100.3,120.4c1.6,0,2.9-1.3,2.9-2.9l0,0c0-1.6-1.3-2.9-2.9-2.9l0,0
			c-1.6,0-2.9,1.3-2.9,2.9l0,0C97.4,119.1,98.7,120.4,100.3,120.4z"/>
		<polygon style="fill:#C6C6C6;" points="91.6,89.4 86.7,87.6 81.1,85.9 79.2,88.4 79.2,97.9 86.5,103.3 93.5,105.5 95.5,103.1 
			97.5,100.5 96.1,93.6 		"/>
		<polygon style="fill:#C6C6C6;" points="119.5,86.8 110.1,86.8 104.6,94.1 102.5,101.1 104.9,103.1 107.4,105.1 114.4,103.7 
			118.6,99.2 120.3,94.3 122.1,88.7 		"/>
	</g>
	<g>
		<path style="fill:#252F6A;" d="M130.9,121.6l-4.7-13.1c-0.2-4.6-1.7-9.1-4.3-13c0.8-2.8,0.7-5.8-0.4-8.6c-0.1-0.3-0.3-0.5-0.6-0.6
			c-2.4-0.9-4.8-1.1-7.2-0.7c-0.1,0-0.1,0-0.2,0c-0.1,0-0.1,0-0.2,0.1c-0.8,0.1-1.6,0.3-2.3,0.6c-3.9-1.9-8.4-2.7-12.8-2.3
			c-3.2,0.2-6.3,1.1-9.3,2.5c-0.9-0.4-1.8-0.7-2.8-0.8h-0.1H86c-2.4-0.5-4.9-0.3-7.2,0.6c-0.3,0.1-0.5,0.3-0.6,0.6
			C77,90.1,77,93.5,78,96.6c-2.2,3.7-3.5,7.9-3.7,12.1c-0.3,6.9,2,13.5,6.5,18.6c1.4,1.5,2.1,3.5,2.1,5.5v14.1
			c0,0.6,0.5,1.1,1.1,1.1s1.1-0.5,1.1-1.1v-14.1c0-2.6-0.9-5-2.6-6.9c-4.2-4.7-6.3-10.8-6-17c0.2-3.4,1.1-6.8,2.7-9.8
			c0.4,0.6,0.8,1.2,1.2,1.8c0.1,0.1,0.2,0.3,0.3,0.4c0.2,0.2,0.4,0.5,0.6,0.7c2.7,2.7,6.2,4.1,9.9,4.1c1.4,0,2.9-0.3,4.2-0.7
			l3.5,3.5c0.1,0.1,0.2,0.1,0.3,0.2v4.6c-1.9,0.5-3.3,2.2-3.3,4.2c0,2.4,1.9,4.3,4.3,4.3s4.3-1.9,4.3-4.3c0-2-1.4-3.7-3.3-4.2v-5.1
			l3.1-3.1c1.4,0.4,2.7,0.7,4.1,0.7c3.6,0,7.2-1.4,9.9-4.1c0.2-0.2,0.4-0.4,0.6-0.7c0.1-0.1,0.2-0.2,0.3-0.4
			c0.7-0.8,1.2-1.6,1.7-2.5c1.9,3.3,3,7,3.1,10.7c0,0.2,0.1,0.4,0.2,0.5l4.6,12.9c0.1,0.3,0,0.6-0.1,0.7s-0.2,0.3-0.6,0.4l-4.9,1
			c-0.5,0.1-0.8,0.5-0.8,0.9l-1.3,11.9c0,0.4-0.4,0.8-0.8,0.8h-10.2c-0.6,0-1.1,0.5-1.1,1.1v7.6c0,0.6,0.5,1.1,1.1,1.1
			s1.1-0.5,1.1-1.1v-6.5h9.1c1.5,0,2.8-1.2,3-2.7l1.2-11.1l4.3-1c0.8-0.2,1.6-0.7,2-1.5C131.1,123.3,131.2,122.4,130.9,121.6z
			 M119.7,88.2c1.2,3.7,0.5,7.8-1.8,10.9l-6.5-1l3.9-4c0.2-0.2,0.3-0.6,0.3-0.9l-0.7-5.5C116.5,87.5,118.2,87.7,119.7,88.2z
			 M104.6,102c-0.9-3.9,0.3-8,3.1-10.9c1.4-1.4,3.2-2.4,5.1-3l0.6,4.9L104.6,102z M95.2,101.9L86.3,93l0.6-4.9
			c1.9,0.5,3.7,1.5,5.1,3C94.9,93.9,96,98,95.2,101.9z M80,88.2c1.6-0.5,3.2-0.7,4.8-0.5l-0.7,5.5c0,0.3,0.1,0.7,0.3,0.9l3.9,3.9
			l-6.5,1C79.5,96,78.8,92,80,88.2z M83.7,101l6.5-1l3.4,3.4C90.2,104.2,86.5,103.3,83.7,101z M102.5,117.5c0,1.2-1,2.2-2.2,2.2
			s-2.2-1-2.2-2.2c0-0.8,0.5-1.5,1.1-1.9c0.1,0.5,0.5,0.8,1,0.8c0.5,0,0.9-0.3,1-0.8C102,116.1,102.5,116.7,102.5,117.5z M100,106.7
			l-3-3c1.6-4.9,0.3-10.4-3.4-14.1c-0.6-0.6-1.3-1.2-2.1-1.7c2.2-0.9,4.6-1.5,7-1.6c3.4-0.3,6.9,0.3,10,1.4
			c-0.8,0.5-1.6,1.1-2.3,1.8c-3.7,3.7-5,9.2-3.3,14.2L100,106.7z M106.2,103.4l3.4-3.5l6.5,1C113.3,103.3,109.7,104.2,106.2,103.4z"
			/>
		<path style="fill:#252F6A;" d="M89.5,106.8c-2.4,0-4.3,1.9-4.3,4.3s1.9,4.3,4.3,4.3c2.4,0,4.3-1.9,4.3-4.3
			C93.8,108.7,91.8,106.8,89.5,106.8z M89.5,113.3c-1.2,0-2.2-1-2.2-2.2s1-2.2,2.2-2.2s2.2,1,2.2,2.2S90.6,113.3,89.5,113.3z"/>
		<path style="fill:#252F6A;" d="M87.3,117.5c-2.4,0-4.3,1.9-4.3,4.3s1.9,4.3,4.3,4.3s4.3-1.9,4.3-4.3
			C91.6,119.5,89.7,117.5,87.3,117.5z M87.3,124c-1.2,0-2.2-1-2.2-2.2s1-2.2,2.2-2.2s2.2,1,2.2,2.2C89.5,123.1,88.5,124,87.3,124z"
			/>
		<path style="fill:#252F6A;" d="M112.2,116.4c2.4,0,4.3-1.9,4.3-4.3c0-2.4-1.9-4.3-4.3-4.3c-2.4,0-4.3,1.9-4.3,4.3
			C107.9,114.6,109.8,116.4,112.2,116.4z M112.2,110c1.2,0,2.2,1,2.2,2.2s-1,2.2-2.2,2.2s-2.2-1-2.2-2.2S111,110,112.2,110z"/>
	</g>
</g>
<g>
	<g>
		<polygon style="fill:#C6C6C6;" points="209.5,85.3 157.9,85.3 152.9,102.7 155.6,102.7 174,85.9 192,102.7 192.5,102.7 
			214.5,102.7 		"/>
		<rect x="168.4" y="122" style="fill:#C6C6C6;" width="11.7" height="12"/>
		<rect x="177.4" y="104.7" style="fill:#C6C6C6;" width="9.6" height="11"/>
		<rect x="161.5" y="104.7" style="fill:#C6C6C6;" width="9.6" height="11"/>
		<rect x="192.6" y="122" style="fill:#C6C6C6;" width="8.3" height="12"/>
		<rect x="203.2" y="107.3" style="fill:#C6C6C6;" width="8.3" height="9.1"/>
	</g>
	<g>
		<path style="fill:#252F6A;" d="M193.2,113.2c-0.4-0.3-1-0.2-1.4,0.1c-0.4,0.3-0.6,0.9-0.4,1.4c0.2,0.5,0.7,0.8,1.2,0.8
			c0.6,0,1.1-0.4,1.2-1C193.9,114,193.7,113.5,193.2,113.2z"/>
		<path style="fill:#252F6A;" d="M215.7,102.4l-5-17.5c-0.2-0.5-0.6-0.9-1.2-0.9h-51.5c-0.6,0-1,0.4-1.2,0.9l-5,17.5
			c-0.1,0.4,0,0.8,0.2,1.1c0.2,0.3,0.6,0.5,1,0.5h1.8v30c0,0.7,0.6,1.3,1.3,1.3h55.5c0.7,0,1.3-0.6,1.3-1.3v-30h1.8
			c0.4,0,0.8-0.2,1-0.5C215.7,103.2,215.8,102.8,215.7,102.4z M155.4,101.5h-0.9l4.3-15h12L155.4,101.5z M178.9,132.7h-9.2v-9.5h9.2
			V132.7z M199.6,132.7h-5.8v-9.5h5.8V132.7z M210.2,115.2h-5.8v-6.6h5.8V115.2z M210.2,106.1h-7c-0.7,0-1.3,0.6-1.3,1.3v9.1
			c0,0.7,0.6,1.3,1.3,1.3h7v15h-8V122c0-0.7-0.6-1.3-1.3-1.3h-7.1v-0.8c0-0.7-0.6-1.3-1.3-1.3s-1.3,0.6-1.3,1.3v12.8h-9.9V122
			c0-0.7-0.6-1.3-1.2-1.3h-11.7c-0.7,0-1.3,0.6-1.3,1.3v10.7h-9.9v-29.4L174,87l17.2,16.6l0.1,0.1v4.9c0,0.7,0.6,1.3,1.3,1.3
			s1.3-0.6,1.3-1.3V104h16.3V106.1z M192.6,101.5l-6.1-5.9h18.6c0.7,0,1.3-0.6,1.3-1.3c0-0.7-0.6-1.2-1.3-1.2h-21.2l-6.8-6.6h31.4
			l4.3,15H192.6z"/>
		<path style="fill:#252F6A;" d="M171.2,103.5h-9.6c-0.7,0-1.3,0.6-1.3,1.3v11c0,0.7,0.6,1.3,1.3,1.3h9.6c0.7,0,1.3-0.6,1.2-1.3v-11
			C172.4,104,171.9,103.5,171.2,103.5z M169.9,114.4h-7.1v-8.5h7.1V114.4z"/>
		<path style="fill:#252F6A;" d="M187,103.5h-9.6c-0.7,0-1.3,0.6-1.3,1.3v11c0,0.7,0.6,1.3,1.3,1.3h9.6c0.7,0,1.3-0.6,1.3-1.3v-11
			C188.2,104,187.7,103.5,187,103.5z M185.7,114.4h-7.1v-8.5h7.1V114.4z"/>
	</g>
</g>
<g>
	<polygon style="fill:#FFFFFF;" points="240.6,122 240.6,140 244.7,140 244.7,138 244.7,122 	"/>
	<path style="fill:#BCBCBC;" d="M298.7,97h-11v-6c0-1.1-0.9-2-2-2h-17v-2.5c0-0.8-0.7-1.5-1.5-1.5c-0.8,0-1.5,0.7-1.5,1.5V119h3v-12
		h15v6c0,1.1,0.9,2,2,2l0,0h13l-4-9L298.7,97z"/>
	<path style="fill:#BCBCBC;" d="M274.7,121.9c0-1.7-1.3-3-3-3l0,0h-1v6l0,0v3c0,1.6-1.3,2.9-2.9,3h3.9l0,0h-3.9h-0.1h-0.1
		c-1.6,0-2.9,1.4-2.9,3c0,1.6,1.3,3,2.9,3c-1.6,0-2.9,1.4-2.9,3c0,1.7,1.3,3,3,3l0,0h4l0,0c1.6,0,3-1.3,3-3c0-1.6-1.3-3-3-3
		c1.6,0,3-1.4,3-3c0-1.7-1.3-3-3-3c1.6,0,3-1.4,3-3c0-1.7-1.3-3-3-3l0,0l0,0l0,0C273.3,124.9,274.7,123.6,274.7,121.9z"/>
	<rect x="236.7" y="119" style="fill:#BCBCBC;" width="4" height="23"/>
	<path style="fill:#252F6A;" d="M299.6,115.1L299.6,115.1L299.6,115.1c0-0.2,0-0.2,0-0.3c0-0.1,0-0.1,0-0.2l0,0l-3.8-8.6l3.8-8.6
		l0,0c0-0.1,0-0.1,0-0.2s0-0.1,0-0.2l0,0v-0.1c0-0.1,0-0.2,0-0.2c0-0.1-0.1-0.1-0.1-0.2l-0.1-0.1c-0.1-0.1-0.1-0.1-0.2-0.2l-0.1-0.1
		l0,0c-0.1,0-0.1,0-0.2,0c-0.1,0-0.1,0-0.2,0l0,0h-10v-5c0-1.7-1.3-3-3-3l0,0h-16v-1.6c0-1.4-1.1-2.5-2.5-2.5s-2.5,1.1-2.5,2.5V118
		h-5l0,0c-4.1,0-7.8,1.9-10.3,5h-3.7v-1c0-0.6-0.4-1-1-1h-3v-2c0-0.6-0.4-1-1-1h-4c-0.6,0-1,0.4-1,1s0.4,1,1,1h3v21h-3
		c-0.6,0-1,0.4-1,1s0.4,1,1,1h4c0.6,0,1-0.4,1-1v-1h3c0.6,0,1-0.4,1-1v-1h3.8c2.4,3.1,6.2,5,10.2,5h12h0.1c2.1-0.1,3.9-1.8,3.9-4
		c0-1.2-0.5-2.3-1.4-3c0.8-0.7,1.4-1.8,1.4-3s-0.5-2.3-1.4-3c0.8-0.7,1.4-1.8,1.4-3s-0.5-2.3-1.4-3c0.8-0.7,1.4-1.8,1.4-3
		c0-2.2-1.8-4-4-4l0,0h-0.9l0,0l0,0h-0.9v-10h13v5c0,1.6,1.3,2.9,2.9,3h0.1h13l0,0l0,0l0,0c0.1,0,0.3,0,0.4-0.1l0,0l0.1-0.1
		c0.1,0,0.1-0.1,0.2-0.1c0,0,0.1-0.1,0.1-0.2c0-0.1,0.1-0.1,0.1-0.2C299.6,115.2,299.6,115.2,299.6,115.1z M241.6,123h2v16h-2
		C241.6,139,241.6,123,241.6,123z M249.3,134.6c-0.2-0.5-0.8-0.8-1.3-0.6s-0.8,0.8-0.6,1.3c0.2,0.6,0.5,1.2,0.7,1.7h-2.5v-12h2.5
		c-0.3,0.5-0.5,1.1-0.7,1.7c-0.2,0.5,0.1,1.1,0.6,1.3c0.1,0,0.2,0.1,0.3,0.1c0.4,0,0.8-0.3,0.9-0.7c1.5-4.4,5.7-7.3,10.4-7.4l0,0h8
		h2v8l0,0c0,1.1-0.9,2-2,2l0,0l0,0l0,0l0,0l0,0c-1.1,0-2-0.9-2-2v-3c0-0.6-0.4-1-1-1h-5c-0.6,0-1,0.4-1,1c0,0.6,0.4,1,1,1h4v2
		c0,1.2,0.5,2.3,1.4,3c-0.8,0.7-1.4,1.8-1.4,3c0,1.2,0.5,2.3,1.4,3c-0.8,0.7-1.4,1.8-1.4,3c0,0.7,0.2,1.4,0.6,2h-4.6l0,0l0,0
		C255,142,250.8,139,249.3,134.6z M267.7,135.9L267.7,135.9L267.7,135.9C267.7,135.9,267.6,135.9,267.7,135.9
		C267.6,135.9,267.6,135.9,267.7,135.9c-1.1,0-2-0.9-2-2c0-1.1,0.9-2,2-2l0,0l0,0h4l0,0c1.1,0,2,0.9,2,2c0,1.1-0.9,2-2,2l0,0H267.7z
		 M271.7,141.9C271.6,141.9,271.6,142,271.7,141.9h-4c0,0,0,0-0.1,0c-1.1,0-2-0.9-2-2c0-1.1,0.9-2,2-2l0,0l0,0l0,0h4l0,0
		c1.1,0,2,0.9,2,2C273.7,141,272.8,141.9,271.7,141.9z M271.7,129.9C271.6,129.9,271.6,129.9,271.7,129.9h-0.6
		c0.3-0.6,0.6-1.3,0.6-2l0,0v-2l0,0l0,0c1.1,0,2,0.9,2,2S272.8,129.9,271.7,129.9L271.7,129.9z M273.7,121.9c0,1.1-0.9,2-2,2l0,0
		l0,0v-4l0,0l0,0C272.8,120,273.7,120.8,273.7,121.9z M266.6,117.9V86.5c0-0.3,0.2-0.5,0.5-0.5s0.5,0.2,0.5,0.5V118L266.6,117.9
		L266.6,117.9z M269.7,89.9h16c0.6,0,1,0.4,1,1v15.2c-0.3-0.1-0.6-0.2-1-0.2l0,0h-16V89.9z M285.6,108c0.6,0,1,0.4,1,1
		c0,0.5-0.4,1-1,1l0,0c-0.4,0-0.7,0.1-1,0.2V108H285.6z M285.6,111.9C285.6,111.9,285.6,112,285.6,111.9c1.7,0,3-1.3,3-3v-11h8.5
		l-3.4,7.6l0,0c0,0.1,0,0.1-0.1,0.2c0,0.1,0,0.1,0,0.2s0,0.1,0,0.2c0,0.1,0,0.1,0,0.2l0,0l3.4,7.6h-11.3c0,0,0,0-0.1,0
		c-0.6,0-1-0.4-1-1C284.7,112.4,285.1,112,285.6,111.9z"/>
</g>
<g>
	<path style="fill:#C1C1C1;" d="M367.9,89.3v17.1c0,7.8-3.8,15.1-10.2,19.7l-7.8,5.8c-0.8,0.6-1.8,0.6-2.6,0l-0.3-0.2l-7.4-5.6
		c-6.3-4.6-10.1-11.9-10.1-19.7V89.3c5.5-2.5,11.5-4,17.6-4.2c0.5,0,1.1,0,1.6,0C355.3,85.1,361.9,86.6,367.9,89.3z"/>
	<path style="fill:#C1C1C1;" d="M363.6,92.5v13.9c0,6.7-3.1,12-8.5,16l-5.2,3.5c-0.7,0.5-1.7,0.5-2.4,0l-5.2-3.5
		c-5.4-4-8.5-9.3-8.5-16V92.5c4.2-1.9,8.7-2.9,13.3-3.2c0.5,0,1.1,0,1.6,0C353.8,89.4,358.9,90.5,363.6,92.5z"/>
	<path style="fill:#FFFFFF;" d="M344.4,104.3h8.5c1.2,0,2.1,1,2.1,2.1v6.4c0,1.2-1,2.1-2.1,2.1h-8.5c-1.2,0-2.1-1-2.1-2.1v-6.4
		C342.3,105.2,343.3,104.3,344.4,104.3z"/>
	<path style="fill:#FFFFFF;" d="M339.7,126.1l5.1,3.8l5.3,2l-7.1-5.8c-6.5-4.6-10.3-11.9-10.3-19.7V89.3c5.5-2.5,11.5-3.9,17.5-4.2
		c-0.5,0-1,0-1.5,0s-1.1,0-1.6,0c-6.1,0.3-12.1,1.7-17.6,4.2v17.1C329.5,114.2,333.3,121.5,339.7,126.1z"/>
	<path style="fill:#FFFFFF;" d="M330.6,106.4c0,4.4,1.3,8.8,3.7,12.5c1.6,2.4,3.6,4.6,6,6.3l-1.3,1.7c-2.5-1.9-4.7-4.2-6.5-6.9
		c-2.7-4.1-4.1-8.8-4.1-13.7L330.6,106.4L330.6,106.4z"/>
	<polygon style="fill:#FFFFFF;" points="345.2,104.6 344.9,99.9 347.8,98.4 351,98.4 352.2,101.1 352.6,103.8 348.8,104.6 	"/>
	<path style="fill:#252F6A;" d="M331,115.8c0.1,0,0.3,0,0.4-0.1c0.3-0.1,0.5-0.3,0.6-0.6c0.1-0.3,0.1-0.5,0-0.8
		c-0.1-0.3-0.3-0.5-0.5-0.6l-0.2-0.1c-0.1,0-0.1,0-0.2,0c-0.1,0-0.1,0-0.2,0s-0.1,0-0.2,0c-0.3,0.1-0.5,0.3-0.6,0.5
		c-0.1,0.1-0.1,0.3-0.1,0.4c0,0.4,0.2,0.9,0.6,1C330.7,115.8,330.8,115.8,331,115.8z"/>
	<path style="fill:#252F6A;" d="M374.3,128.8h-18.4l2.5-1.9c6.6-4.7,10.6-12.4,10.6-20.5V89.3c0-0.4-0.2-0.8-0.6-1
		c-6.2-2.8-12.9-4.2-19.7-4.3c-6.8,0.1-13.5,1.5-19.7,4.4c-0.4,0.2-0.6,0.6-0.6,1v17.1c0,1.5,0.1,3,0.4,4.4c0.1,0.3,0.2,0.5,0.5,0.7
		c0.2,0.2,0.5,0.2,0.8,0.2c0.6-0.1,0.9-0.7,0.8-1.2c-0.2-1.3-0.3-2.7-0.4-4.1V90c5.8-2.5,12-3.8,18.2-3.9c6.2,0.1,12.4,1.4,18.1,3.9
		v16.4c0,7.5-3.6,14.5-9.7,18.8l-7.8,5.8c-0.4,0.3-0.9,0.3-1.3,0l-7.8-5.8l0,0c-2.3-1.7-4.4-3.9-6-6.3l-0.5-0.9
		c-0.3-0.5-1-0.6-1.5-0.4c-0.5,0.3-0.7,0.9-0.4,1.4l0.6,0.9c1.8,2.6,3.9,5,6.5,6.8l0,0l2.5,1.9h-18.3c-1.8,0-3.2,1.4-3.2,3.2v12.8
		c0,1.8,1.4,3.2,3.2,3.2h51.2c1.8,0,3.2-1.4,3.2-3.2V132C377.5,130.2,376.1,128.8,374.3,128.8z M375.4,144.8c0,0.6-0.5,1.1-1.1,1.1
		h-51.2c-0.6,0-1.1-0.5-1.1-1.1V132c0-0.6,0.5-1.1,1.1-1.1h21.3l2.4,1.8c0.6,0.4,1.2,0.6,1.9,0.6s1.4-0.2,1.9-0.6l2.4-1.8h21.3
		c0.6,0,1.1,0.5,1.1,1.1V144.8z"/>
	<path style="fill:#252F6A;" d="M333.5,136.3l-2.9,0.7v-2.9c0-0.6-0.5-1.1-1.1-1.1c-0.6,0-1.1,0.5-1.1,1.1v2.9l-2.9-0.7
		c-0.4-0.1-0.8,0-1,0.3c-0.3,0.3-0.4,0.7-0.3,1c0.1,0.4,0.4,0.7,0.8,0.7l2.7,0.7l-2.2,3c-0.3,0.4-0.3,0.8-0.2,1.1
		c0.2,0.4,0.6,0.6,1,0.6c0.3,0,0.7-0.2,0.9-0.4l2.3-3.1l2.3,3.1c0.2,0.3,0.5,0.4,0.9,0.4s0.8-0.2,1-0.6c0.2-0.4,0.1-0.8-0.1-1.1
		l-2.2-3l2.7-0.7c0.4-0.1,0.7-0.4,0.8-0.7c0.1-0.4,0-0.8-0.3-1C334.3,136.3,333.9,136.2,333.5,136.3z"/>
	<path style="fill:#252F6A;" d="M346.3,136.3l-2.9,0.7v-2.9c0-0.6-0.5-1.1-1.1-1.1s-1.1,0.5-1.1,1.1v2.9l-2.9-0.7
		c-0.6-0.1-1.1,0.2-1.3,0.8c-0.1,0.6,0.2,1.1,0.8,1.3l2.7,0.7l-2.2,3c-0.2,0.3-0.3,0.8-0.1,1.1c0.2,0.4,0.5,0.6,1,0.6
		c0.3,0,0.7-0.2,0.9-0.4l2.3-3.1l2.3,3.1c0.2,0.3,0.5,0.4,0.9,0.4s0.8-0.2,1-0.6c0.2-0.4,0.1-0.8-0.1-1.1l-2.2-3l2.7-0.7
		c0.4-0.1,0.7-0.4,0.8-0.7c0.1-0.4,0-0.8-0.3-1C347.1,136.3,346.7,136.2,346.3,136.3z"/>
	<path style="fill:#252F6A;" d="M359.1,136.3l-2.9,0.7v-2.9c0-0.6-0.5-1.1-1.1-1.1c-0.6,0-1.1,0.5-1.1,1.1v2.9l-2.9-0.7
		c-0.6-0.1-1.1,0.2-1.3,0.8c-0.1,0.6,0.2,1.1,0.8,1.3l2.7,0.7l-2.2,3c-0.2,0.3-0.3,0.8-0.1,1.1c0.2,0.4,0.6,0.6,1,0.6
		c0.3,0,0.7-0.2,0.9-0.4l2.3-3.1l2.3,3.1c0.2,0.3,0.5,0.4,0.9,0.4s0.8-0.2,1-0.6c0.2-0.4,0.1-0.8-0.1-1.1l-2.2-3l2.7-0.7
		c0.4-0.1,0.7-0.4,0.8-0.7c0.1-0.4,0-0.8-0.3-1C359.9,136.3,359.5,136.2,359.1,136.3z"/>
	<path style="fill:#252F6A;" d="M371.9,136.3L369,137v-2.9c0-0.6-0.5-1.1-1.1-1.1c-0.6,0-1.1,0.5-1.1,1.1v2.9l-2.9-0.7
		c-0.4-0.1-0.8,0-1,0.3c-0.3,0.3-0.4,0.7-0.3,1c0.1,0.4,0.4,0.7,0.8,0.7l2.7,0.7l-2.2,3c-0.2,0.3-0.3,0.8-0.1,1.1
		c0.2,0.4,0.6,0.6,1,0.6c0.3,0,0.7-0.2,0.9-0.4l2.3-3.1l2.3,3.1c0.2,0.3,0.5,0.4,0.9,0.4s0.8-0.2,1-0.6c0.2-0.4,0.1-0.8-0.1-1.1
		l-2.2-3l2.7-0.7c0.6-0.1,0.9-0.7,0.8-1.3C373.1,136.5,372.5,136.2,371.9,136.3z"/>
	<path style="fill:#252F6A;" d="M341.7,123.3L341.7,123.3l5.3,3.5c0.5,0.4,1.1,0.5,1.8,0.5c0.6,0,1.3-0.2,1.8-0.5l5.3-3.5
		c5.9-4.4,9-10.1,9-16.9V92.5c0-0.4-0.3-0.8-0.6-1c-9.8-4.4-20.9-4.4-30.7,0c-0.4,0.2-0.6,0.6-0.6,1v13.9
		C332.7,113.1,335.7,118.8,341.7,123.3z M334.8,93.2c8.9-3.7,18.9-3.7,27.8,0v13.2c0,6-2.7,11.1-8.1,15.1l-5.2,3.5
		c-0.4,0.2-0.8,0.2-1.2,0l-5.2-3.5l0,0c-5.4-4-8.1-9.1-8.1-15.1V93.2z"/>
	<path style="fill:#252F6A;" d="M344.4,116h8.5c1.8,0,3.2-1.4,3.2-3.2v-6.4c0-1.4-0.9-2.5-2.1-3v-1.3c0-2.9-2.4-5.3-5.3-5.3
		s-5.3,2.4-5.3,5.3v1.3c-1.2,0.4-2.1,1.6-2.1,3v6.4C341.2,114.6,342.7,116,344.4,116z M345.5,102.1c0-1.8,1.4-3.2,3.2-3.2
		s3.2,1.4,3.2,3.2v1.1h-6.4C345.5,103.2,345.5,102.1,345.5,102.1z M343.4,106.4c0-0.6,0.5-1.1,1.1-1.1h8.5c0.6,0,1.1,0.5,1.1,1.1
		v6.4c0,0.6-0.5,1.1-1.1,1.1h-8.5c-0.6,0-1.1-0.5-1.1-1.1C343.4,112.8,343.4,106.4,343.4,106.4z"/>
	<path style="fill:#252F6A;" d="M348.7,111.7c0.6,0,1.1-0.5,1.1-1.1v-2.1c0-0.6-0.5-1.1-1.1-1.1s-1.1,0.5-1.1,1.1v2.1
		C347.6,111.3,348.1,111.7,348.7,111.7z"/>
</g>
<path style="fill:#FFFFFF;" d="M16,101c-8.3,0-15-6.7-15-15s6.7-15,15-15s15,6.7,15,15S24.3,101,16,101z M16,72.6
	c-7.4,0-13.4,6-13.4,13.4s6,13.4,13.4,13.4s13.4-6,13.4-13.4l0,0l0,0C29.4,78.6,23.4,72.6,16,72.6z"/>
<path style="fill-rule:evenodd;clip-rule:evenodd;fill:#FFFFFF;" d="M13.6,86.1v8.7c0,0.1,0.1,0.2,0.2,0.2c0,0,0,0,0,0h3.2
	c0.1,0,0.2-0.1,0.2-0.2v-8.8h2.3c0.1,0,0.2-0.1,0.2-0.2l0.2-2.7c0-0.1-0.1-0.2-0.2-0.2c0,0,0,0,0,0h-2.6v-1.9c0-0.4,0.3-0.8,0.8-0.8
	c0,0,0,0,0,0h1.8c0.1,0,0.2-0.1,0.2-0.2c0,0,0,0,0,0l0,0v-2.7c0-0.1-0.1-0.2-0.2-0.2c0,0,0,0,0,0h-3c-1.8,0-3.2,1.5-3.2,3.2v2.6H12
	c-0.1,0-0.2,0.1-0.2,0.2v2.7c0,0.1,0.1,0.2,0.2,0.2c0,0,0,0,0,0h1.6L13.6,86.1z"/>
<path style="fill:#FFFFFF;" d="M16,151c-8.3,0-15-6.7-15-15s6.7-15,15-15s15,6.7,15,15S24.3,151,16,151z M16,122.4
	c-7.5,0-13.6,6.1-13.6,13.6s6.1,13.6,13.6,13.6s13.6-6.1,13.6-13.6S23.5,122.4,16,122.4L16,122.4z M21.1,129.9
	c-0.6,0-1.1,0.5-1.1,1.1c0,0.6,0.5,1.1,1.1,1.1c0.6,0,1.1-0.5,1.1-1.1c0,0,0,0,0,0l0,0C22.2,130.4,21.7,129.9,21.1,129.9
	C21.1,129.9,21.1,129.9,21.1,129.9z M16.1,131.3c-2.6,0-4.7,2.1-4.6,4.7c0,2.6,2.1,4.7,4.7,4.6c2.6,0,4.6-2.1,4.6-4.7
	C20.8,133.4,18.7,131.3,16.1,131.3C16.1,131.3,16.1,131.3,16.1,131.3z M16.1,139c-1.7,0-3-1.3-3-3c0-1.7,1.3-3,3-3s3,1.3,3,3
	C19.1,137.6,17.8,139,16.1,139L16.1,139z M25.5,132.1c0-3.1-2.5-5.7-5.7-5.7l0,0h-7.5c-3.1,0-5.7,2.5-5.7,5.7c0,0,0,0,0,0l0,0v7.5
	c0,3.1,2.5,5.7,5.7,5.7l0,0h7.5c3.1,0,5.7-2.5,5.7-5.7l0,0l0,0L25.5,132.1z M23.7,139.6c0,2.2-1.8,3.9-3.9,3.9h-7.5
	c-2.2,0-3.9-1.8-3.9-3.9v-7.5c0-2.2,1.8-3.9,3.9-3.9h7.5c2.2,0,3.9,1.7,3.9,3.9V139.6z"/>
<path style="fill:#FFFFFF;" d="M15.2,201.1c-8.3,0-15-6.7-15-15s6.7-15,15-15s15,6.7,15,15S23.4,201.1,15.2,201.1z M15.2,172.8
	c-7.4,0-13.4,6-13.4,13.4s6,13.4,13.4,13.4s13.4-6,13.4-13.4l0,0l0,0C28.5,178.7,22.6,172.8,15.2,172.8z"/>
<path style="fill:#FFFFFF;" d="M23.8,180.7c-0.6,0.2-1.2,0.4-1.8,0.5c0.3,0,0.7-0.6,0.9-0.8c0.3-0.3,0.5-0.7,0.6-1.1v-0.1h-0.1
	c-0.7,0.4-1.4,0.6-2.1,0.8c0,0-0.1,0-0.1,0c-0.1-0.1-0.1-0.1-0.2-0.2c-0.3-0.3-0.6-0.5-1-0.6c-0.5-0.2-1-0.3-1.6-0.3
	c-1,0.1-2,0.6-2.7,1.4c-0.3,0.4-0.6,0.9-0.7,1.4c-0.1,0.5-0.1,1,0,1.5c0,0.1,0,0.1-0.1,0.1c-2.8-0.3-5.4-1.6-7.2-3.7
	c-0.1-0.1-0.1-0.1-0.2,0c-0.8,1.4-0.5,3.2,0.6,4.3c0.1,0.1,0.3,0.3,0.4,0.4c-0.5,0-1-0.2-1.4-0.4c-0.1,0-0.1,0-0.1,0.1
	c0,0.1,0,0.3,0,0.4c0.2,1.3,1,2.4,2.3,2.9c0.1,0.1,0.3,0.1,0.5,0.1c-0.5,0.1-0.9,0.1-1.4,0c-0.1,0-0.1,0-0.1,0.1
	c0.5,1.2,1.5,2.2,2.9,2.4c0.1,0,0.3,0,0.4,0.1l0,0c-0.6,0.5-1.3,0.8-2,1c-1,0.3-2,0.5-3,0.4H6.3c-0.1,0,0,0.1,0,0.1
	c0.2,0.1,0.4,0.3,0.6,0.4c0.6,0.3,1.3,0.6,2,0.8c3.6,1.1,7.5,0.2,10.3-2.4c2-2.1,3.1-4.9,3-7.8c0-0.1,0.1-0.2,0.2-0.2
	c0.5-0.4,1-0.9,1.4-1.4C23.8,180.9,23.9,180.8,23.8,180.7L23.8,180.7C23.8,180.7,23.9,180.6,23.8,180.7z"/>
<path style="fill-rule:evenodd;clip-rule:evenodd;fill:#FFFFFF;" d="M11.6,193.3"/>
<path style="fill-rule:evenodd;clip-rule:evenodd;fill:#FFFFFF;" d="M11.6,193.3"/>
<path style="fill-rule:evenodd;clip-rule:evenodd;fill:#FFFFFF;" d="M12.2,193.3"/>
<path style="fill-rule:evenodd;clip-rule:evenodd;fill:#FFFFFF;" d="M18.3,179"/>
<g>
	<path style="fill:#FFFFFF;" d="M8.4,226.2c0.3-0.3,0.3-0.8,0-1.1l-2.9-2.9c-0.3-0.3-0.7-0.4-1.1-0.2c-0.6,0.4-1.1,0.8-1.6,1.2
		l4.2,4.2L8.4,226.2z"/>
	<path style="fill:#FFFFFF;" d="M20.9,238.5c0.2-0.3,0.2-0.7-0.1-1l-2.9-2.9c-0.3-0.3-0.8-0.3-1.1,0l0,0l-1.3,1.3l4.2,4.2
		C20.2,239.6,20.5,239.1,20.9,238.5z"/>
	<path style="fill:#FFFFFF;" d="M14.7,236.7c-1.3,0.1-3.9-0.7-5.8-2.6s-2.7-4.5-2.6-5.8c0-0.1,0.1-0.2,0.2-0.2l-4.2-4.3
		c-0.7,0.7-1.2,1.3-1.3,2c-0.8,6.5,9.7,16.9,16.1,16.1c0.7-0.1,1.3-0.6,2-1.2l-4.2-4.2C14.9,236.6,14.8,236.7,14.7,236.7z"/>
</g>
<path style="fill:#FFFFFF;" d="M29.7,262l-12.9,12.1c-0.5,0.5-1.2,0.5-1.7,0L2.3,262H29.7z M14,275.3l-2.3-2.1L2.3,282h27.5
	l-9.4-8.9l-2.3,2.1C16.8,276.3,15.2,276.3,14,275.3z M31,280.9v-17.7l-9.4,8.8L31,280.9z M1,263.2v17.7l9.4-8.9L1,263.2z"/>
<path style="fill:#252F6A;" d="M3.7,307.9c-0.4,0-0.8,0.1-1.1,0.2c0.8-4.5,4.3-7.4,1-5c-3.6,2.6-3.4,8.1-3.4,8.2l0,0
	c0,1.9,1.5,3.5,3.5,3.5c1.9,0,3.5-1.5,3.5-3.5C7.2,309.4,5.6,307.9,3.7,307.9L3.7,307.9z M11.3,307.9c-0.4,0-0.8,0.1-1.1,0.2
	c0.8-4.5,4.3-7.4,1-5c-3.6,2.6-3.4,8.2-3.4,8.3l0,0c0,1.9,1.6,3.5,3.5,3.5s3.5-1.6,3.5-3.5S13.2,307.9,11.3,307.9L11.3,307.9z"/>
<path style="fill:#252F6A;" d="M46.3,309.2c0.4,0,0.8-0.1,1.1-0.2c-0.8,4.5-4.3,7.4-1,5c3.6-2.6,3.4-8.1,3.4-8.2l0,0
	c0-1.9-1.5-3.5-3.5-3.5c-1.9,0-3.5,1.5-3.5,3.5C42.8,307.7,44.4,309.2,46.3,309.2L46.3,309.2z M38.7,309.2c0.4,0,0.8-0.1,1.1-0.2
	c-0.8,4.5-4.3,7.4-1,5c3.6-2.6,3.4-8.2,3.4-8.3l0,0c0-1.9-1.6-3.5-3.5-3.5c-1.9,0-3.5,1.6-3.5,3.5S36.8,309.2,38.7,309.2L38.7,309.2
	z"/>
<g>
	<g>
		<linearGradient id="SVGID_1_" gradientUnits="userSpaceOnUse" x1="182.158" y1="172.6273" x2="203.3712" y2="193.8405">
			<stop  offset="0" style="stop-color:#515151"/>
			<stop  offset="1" style="stop-color:#515151"/>
		</linearGradient>
		<circle style="fill:url(#SVGID_1_);" cx="192.8" cy="183.2" r="15"/>
		<path style="fill:#FFFFFF;" d="M201.9,177.4c-0.6,0.3-1.2,0.4-1.9,0.5c0.3-0.1,0.7-0.6,0.9-0.8c0.3-0.3,0.5-0.7,0.6-1.1
			c0,0,0-0.1,0-0.1c0,0-0.1,0-0.1,0c-0.7,0.4-1.4,0.7-2.2,0.8c-0.1,0-0.1,0-0.2,0c-0.1-0.1-0.1-0.1-0.2-0.2
			c-0.3-0.3-0.7-0.5-1.1-0.7c-0.5-0.2-1.1-0.3-1.6-0.3c-0.5,0-1.1,0.2-1.6,0.4c-0.5,0.3-0.9,0.6-1.3,1c-0.4,0.4-0.6,1-0.8,1.5
			c-0.1,0.5-0.1,1.1,0,1.6c0,0.1,0,0.1-0.1,0.1c-3-0.5-5.6-1.5-7.6-3.9c-0.1-0.1-0.1-0.1-0.2,0c-0.9,1.3-0.5,3.5,0.7,4.6
			c0.1,0.1,0.3,0.3,0.5,0.4c-0.1,0-0.8-0.1-1.5-0.4c-0.1-0.1-0.1,0-0.1,0.1c0,0.1,0,0.3,0,0.4c0.2,1.4,1.1,2.6,2.4,3.1
			c0.2,0.1,0.3,0.1,0.5,0.1c-0.3,0.1-0.6,0.1-1.4,0c-0.1,0-0.1,0-0.1,0.1c0.6,1.7,2,2.2,3,2.5c0.1,0,0.3,0,0.4,0.1c0,0,0,0,0,0
			c-0.3,0.5-1.5,0.9-2.1,1.1c-1,0.3-2.1,0.5-3.1,0.4c-0.2,0-0.2,0-0.3,0c0,0,0,0.1,0,0.1c0.2,0.1,0.4,0.3,0.7,0.4
			c0.7,0.4,1.4,0.6,2.1,0.8c3.8,1,8,0.3,10.9-2.5c2.2-2.2,3-5.3,3-8.3c0-0.1,0.1-0.2,0.2-0.2c0.6-0.4,1-1,1.5-1.5
			C202,177.6,202,177.5,201.9,177.4C202,177.5,202,177.4,201.9,177.4C202,177.4,202,177.4,201.9,177.4z"/>
		<path style="fill-rule:evenodd;clip-rule:evenodd;fill:#FFFFFF;" d="M189,190.9C190.5,190.9,189,190.9,189,190.9
			C189.2,190.9,188.9,190.9,189,190.9z"/>
		<path style="fill-rule:evenodd;clip-rule:evenodd;fill:#FFFFFF;" d="M189,190.9C188.9,190.9,188.7,190.9,189,190.9
			C189,190.9,188.9,190.9,189,190.9z"/>
		<path style="fill-rule:evenodd;clip-rule:evenodd;fill:#FFFFFF;" d="M189.6,190.9C189.6,190.9,189.9,190.9,189.6,190.9
			C189.6,190.9,189.6,190.9,189.6,190.9z"/>
	</g>
	<g>
		<linearGradient id="SVGID_2_" gradientUnits="userSpaceOnUse" x1="130.9653" y1="196.0248" x2="163.3818" y2="163.6083">
			<stop  offset="0" style="stop-color:#515151"/>
			<stop  offset="1" style="stop-color:#515151"/>
		</linearGradient>
		<circle style="fill:url(#SVGID_2_);" cx="143.8" cy="183.2" r="15"/>
		<circle style="fill:#FFFFFF;" cx="149.1" cy="178" r="1.2"/>
		<path style="fill:#FFFFFF;" d="M143.9,178.3c-2.7,0-4.9,2.2-4.9,4.9s2.2,4.9,4.9,4.9c2.7,0,4.9-2.2,4.9-4.9
			S146.6,178.3,143.9,178.3z M143.9,186.4c-1.7,0-3.1-1.4-3.1-3.1c0-1.7,1.4-3.1,3.1-3.1s3.1,1.4,3.1,3.1
			C147,185,145.6,186.4,143.9,186.4z"/>
		<path style="fill:#FFFFFF;" d="M147.8,193.2h-7.9c-3.3,0-6-2.7-6-6v-7.9c0-3.3,2.7-6,6-6h7.9c3.3,0,6,2.7,6,6v7.9
			C153.7,190.5,151.1,193.2,147.8,193.2z M139.8,175.2c-2.3,0-4.1,1.8-4.1,4.1v7.9c0,2.3,1.8,4.1,4.1,4.1h7.9c2.3,0,4.1-1.8,4.1-4.1
			v-7.9c0-2.3-1.8-4.1-4.1-4.1H139.8z"/>
	</g>
	<g>
		<linearGradient id="SVGID_3_" gradientUnits="userSpaceOnUse" x1="83.3934" y1="172.6273" x2="104.6066" y2="193.8405">
			<stop  offset="0" style="stop-color:#515151"/>
			<stop  offset="1" style="stop-color:#515151"/>
		</linearGradient>
		<circle style="fill:url(#SVGID_3_);" cx="94" cy="183.2" r="15"/>
		<path style="fill-rule:evenodd;clip-rule:evenodd;fill:#FFFFFF;" d="M91.5,183.4v9.2c0,0.1,0.1,0.2,0.2,0.2h3.4
			c0.1,0,0.2-0.1,0.2-0.2v-9.3h2.5c0.1,0,0.2-0.1,0.2-0.2l0.2-2.8c0-0.1-0.1-0.3-0.2-0.3h-2.7v-2c0-0.5,0.4-0.8,0.8-0.8h1.9
			c0.1,0,0.2-0.1,0.2-0.2v-2.8c0-0.1-0.1-0.2-0.2-0.2h-3.2c-1.9,0-3.4,1.5-3.4,3.4v2.7h-1.7c-0.1,0-0.2,0.1-0.2,0.2v2.8
			c0,0.1,0.1,0.2,0.2,0.2h1.7V183.4z"/>
	</g>
	<g>
		<g>
			<linearGradient id="SVGID_4_" gradientUnits="userSpaceOnUse" x1="231.5402" y1="172.6273" x2="252.7534" y2="193.8405">
				<stop  offset="0" style="stop-color:#515151"/>
				<stop  offset="1" style="stop-color:#515151"/>
			</linearGradient>
			<circle style="fill:url(#SVGID_4_);" cx="242.1" cy="183.2" r="15"/>
			<path style="fill:#FFFFFF;" d="M238.6,181.9c0,0,0,0.1,0,0.1c0,0.8,0,2.6,0,2.6s3.5,0,3.7,0c0,0.3-0.3,1.4-1.3,2.1
				c-0.6,0.4-1.3,0.6-2,0.6c-0.5,0-1,0-1.5-0.2c-1.5-0.5-2.7-1.9-2.8-3.5c0-0.4,0-0.8,0.1-1.2c0.5-2,2.3-3.5,4.5-3.1
				c1,0.1,1.5,0.5,2,1c0.7-0.7,1.3-1.3,2-2c-0.2-0.1-0.5-0.5-1.2-0.9c-1-0.6-2.1-0.9-3.2-0.9c-0.2,0-0.4,0-0.7,0
				c-0.4,0-0.8,0.1-1.1,0.2c-1.5,0.4-2.7,1.2-3.7,2.3c-0.9,1.1-1.4,2.4-1.5,3.9c0,0.6,0,1.2,0.1,1.8c0.4,1.7,1.3,3.1,2.7,4.1
				c1.1,0.8,2.3,1.2,3.6,1.3c0.8,0,1.5,0,2.2-0.2c1.4-0.4,2.5-1.1,3.4-2.2c1.2-1.6,1.5-3.8,1.2-5.8
				C242.9,181.9,240.8,181.9,238.6,181.9z"/>
			<polygon style="fill:#FFFFFF;" points="253.3,182 251,182 251,179.6 251,179.6 250.9,179.6 249.2,179.6 249.1,179.6 249.1,179.6 
				249.1,182 246.8,182 246.7,182 246.7,182 246.7,183.7 246.7,183.8 246.8,183.8 249.1,183.8 249.1,186.1 249.1,186.2 249.2,186.2 
				250.9,186.2 251,186.2 251,186.1 251,183.8 253.3,183.8 253.4,183.8 253.4,183.7 253.4,182 253.4,182 			"/>
		</g>
	</g>
	<g>
		<g>
			<linearGradient id="SVGID_5_" gradientUnits="userSpaceOnUse" x1="280.9225" y1="172.6272" x2="302.1357" y2="193.8404">
				<stop  offset="0" style="stop-color:#515151"/>
				<stop  offset="1" style="stop-color:#515151"/>
			</linearGradient>
			<circle style="fill:url(#SVGID_5_);" cx="291.5" cy="183.2" r="15"/>
			<path style="fill:#FFFFFF;" d="M284.4,180.1h3.3v10.5h-3.3V180.1z M286,174.8c1.1,0,1.9,0.9,1.9,1.9c0,1-0.9,1.9-1.9,1.9
				c-1.1,0-1.9-0.9-1.9-1.9C284.1,175.7,285,174.8,286,174.8"/>
			<path style="fill:#FFFFFF;" d="M289.7,180.1h3.1v1.4h0c0.4-0.8,1.5-1.7,3.1-1.7c3.3,0,3.9,2.2,3.9,5v5.8h-3.3v-5.1
				c0-1.2,0-2.8-1.7-2.8c-1.7,0-2,1.3-2,2.7v5.2h-3.3V180.1z"/>
		</g>
	</g>
</g>
<g>
	<g>
		<linearGradient id="SVGID_6_" gradientUnits="userSpaceOnUse" x1="182.158" y1="212.6273" x2="203.3712" y2="233.8405">
			<stop  offset="0" style="stop-color:#00CDFF"/>
			<stop  offset="1" style="stop-color:#0080FF"/>
		</linearGradient>
		<circle style="fill:url(#SVGID_6_);" cx="192.8" cy="223.2" r="15"/>
		<path style="fill:#FFFFFF;" d="M201.9,217.4c-0.6,0.3-1.2,0.4-1.9,0.5c0.3-0.1,0.7-0.6,0.9-0.8c0.3-0.3,0.5-0.7,0.6-1.1
			c0,0,0-0.1,0-0.1c0,0-0.1,0-0.1,0c-0.7,0.4-1.4,0.7-2.2,0.8c-0.1,0-0.1,0-0.2,0c-0.1-0.1-0.1-0.1-0.2-0.2
			c-0.3-0.3-0.7-0.5-1.1-0.7c-0.5-0.2-1.1-0.3-1.6-0.3c-0.5,0-1.1,0.2-1.6,0.4c-0.5,0.3-0.9,0.6-1.3,1c-0.4,0.4-0.6,1-0.8,1.5
			c-0.1,0.5-0.1,1.1,0,1.6c0,0.1,0,0.1-0.1,0.1c-3-0.5-5.6-1.5-7.6-3.9c-0.1-0.1-0.1-0.1-0.2,0c-0.9,1.3-0.5,3.5,0.7,4.6
			c0.1,0.1,0.3,0.3,0.5,0.4c-0.1,0-0.8-0.1-1.5-0.4c-0.1-0.1-0.1,0-0.1,0.1c0,0.1,0,0.3,0,0.4c0.2,1.4,1.1,2.6,2.4,3.1
			c0.2,0.1,0.3,0.1,0.5,0.1c-0.3,0.1-0.6,0.1-1.4,0c-0.1,0-0.1,0-0.1,0.1c0.6,1.7,2,2.2,3,2.5c0.1,0,0.3,0,0.4,0.1c0,0,0,0,0,0
			c-0.3,0.5-1.5,0.9-2.1,1.1c-1,0.3-2.1,0.5-3.1,0.4c-0.2,0-0.2,0-0.3,0c0,0,0,0.1,0,0.1c0.2,0.1,0.4,0.3,0.7,0.4
			c0.7,0.4,1.4,0.6,2.1,0.8c3.8,1,8,0.3,10.9-2.5c2.2-2.2,3-5.3,3-8.3c0-0.1,0.1-0.2,0.2-0.2c0.6-0.4,1-1,1.5-1.5
			C202,217.6,202,217.5,201.9,217.4C202,217.5,202,217.4,201.9,217.4C202,217.4,202,217.4,201.9,217.4z"/>
		<path style="fill-rule:evenodd;clip-rule:evenodd;fill:#FFFFFF;" d="M189,230.9C190.5,230.9,189,230.9,189,230.9
			C189.2,230.9,188.9,230.9,189,230.9z"/>
		<path style="fill-rule:evenodd;clip-rule:evenodd;fill:#FFFFFF;" d="M189,230.9C188.9,230.9,188.7,230.9,189,230.9
			C189,230.9,188.9,230.9,189,230.9z"/>
		<path style="fill-rule:evenodd;clip-rule:evenodd;fill:#FFFFFF;" d="M189.6,230.9C189.6,230.9,189.9,230.9,189.6,230.9
			C189.6,230.9,189.6,230.9,189.6,230.9z"/>
	</g>
	<g>
		<linearGradient id="SVGID_7_" gradientUnits="userSpaceOnUse" x1="130.9653" y1="236.0248" x2="163.3818" y2="203.6083">
			<stop  offset="1.104800e-03" style="stop-color:#FFE286"/>
			<stop  offset="0.2094" style="stop-color:#FFBC36"/>
			<stop  offset="0.3765" style="stop-color:#FF5176"/>
			<stop  offset="0.5238" style="stop-color:#F73396"/>
			<stop  offset="0.7394" style="stop-color:#A536D3"/>
			<stop  offset="1" style="stop-color:#5F4EEE"/>
		</linearGradient>
		<circle style="fill:url(#SVGID_7_);" cx="143.8" cy="223.2" r="15"/>
		<circle style="fill:#FFFFFF;" cx="149.1" cy="218" r="1.2"/>
		<path style="fill:#FFFFFF;" d="M143.9,218.3c-2.7,0-4.9,2.2-4.9,4.9s2.2,4.9,4.9,4.9c2.7,0,4.9-2.2,4.9-4.9
			S146.6,218.3,143.9,218.3z M143.9,226.4c-1.7,0-3.1-1.4-3.1-3.1c0-1.7,1.4-3.1,3.1-3.1s3.1,1.4,3.1,3.1
			C147,225,145.6,226.4,143.9,226.4z"/>
		<path style="fill:#FFFFFF;" d="M147.8,233.2h-7.9c-3.3,0-6-2.7-6-6v-7.9c0-3.3,2.7-6,6-6h7.9c3.3,0,6,2.7,6,6v7.9
			C153.7,230.5,151.1,233.2,147.8,233.2z M139.8,215.2c-2.3,0-4.1,1.8-4.1,4.1v7.9c0,2.3,1.8,4.1,4.1,4.1h7.9c2.3,0,4.1-1.8,4.1-4.1
			v-7.9c0-2.3-1.8-4.1-4.1-4.1H139.8z"/>
	</g>
	<g>
		<linearGradient id="SVGID_8_" gradientUnits="userSpaceOnUse" x1="83.3934" y1="212.6273" x2="104.6066" y2="233.8405">
			<stop  offset="0" style="stop-color:#245A9C"/>
			<stop  offset="1" style="stop-color:#2B189C"/>
		</linearGradient>
		<circle style="fill:url(#SVGID_8_);" cx="94" cy="223.2" r="15"/>
		<path style="fill-rule:evenodd;clip-rule:evenodd;fill:#FFFFFF;" d="M91.5,223.4v9.2c0,0.1,0.1,0.2,0.2,0.2h3.4
			c0.1,0,0.2-0.1,0.2-0.2v-9.3h2.5c0.1,0,0.2-0.1,0.2-0.2l0.2-2.8c0-0.1-0.1-0.3-0.2-0.3h-2.7v-2c0-0.5,0.4-0.8,0.8-0.8h1.9
			c0.1,0,0.2-0.1,0.2-0.2v-2.8c0-0.1-0.1-0.2-0.2-0.2h-3.2c-1.9,0-3.4,1.5-3.4,3.4v2.7h-1.7c-0.1,0-0.2,0.1-0.2,0.2v2.8
			c0,0.1,0.1,0.2,0.2,0.2h1.7V223.4z"/>
	</g>
	<g>
		<g>
			<linearGradient id="SVGID_9_" gradientUnits="userSpaceOnUse" x1="231.5402" y1="212.6273" x2="252.7534" y2="233.8405">
				<stop  offset="0" style="stop-color:#FF4C3C"/>
				<stop  offset="0.9565" style="stop-color:#EF053E"/>
				<stop  offset="1" style="stop-color:#EE023E"/>
			</linearGradient>
			<circle style="fill:url(#SVGID_9_);" cx="242.1" cy="223.2" r="15"/>
			<path style="fill:#FFFFFF;" d="M238.6,221.9c0,0,0,0.1,0,0.1c0,0.8,0,2.6,0,2.6s3.5,0,3.7,0c0,0.3-0.3,1.4-1.3,2.1
				c-0.6,0.4-1.3,0.6-2,0.6c-0.5,0-1,0-1.5-0.2c-1.5-0.5-2.7-1.9-2.8-3.5c0-0.4,0-0.8,0.1-1.2c0.5-2,2.3-3.5,4.5-3.1
				c1,0.1,1.5,0.5,2,1c0.7-0.7,1.3-1.3,2-2c-0.2-0.1-0.5-0.5-1.2-0.9c-1-0.6-2.1-0.9-3.2-0.9c-0.2,0-0.4,0-0.7,0
				c-0.4,0-0.8,0.1-1.1,0.2c-1.5,0.4-2.7,1.2-3.7,2.3c-0.9,1.1-1.4,2.4-1.5,3.9c0,0.6,0,1.2,0.1,1.8c0.4,1.7,1.3,3.1,2.7,4.1
				c1.1,0.8,2.3,1.2,3.6,1.3c0.8,0,1.5,0,2.2-0.2c1.4-0.4,2.5-1.1,3.4-2.2c1.2-1.6,1.5-3.8,1.2-5.8
				C242.9,221.9,240.8,221.9,238.6,221.9z"/>
			<polygon style="fill:#FFFFFF;" points="253.3,222 251,222 251,219.6 251,219.6 250.9,219.6 249.2,219.6 249.1,219.6 249.1,219.6 
				249.1,222 246.8,222 246.7,222 246.7,222 246.7,223.7 246.7,223.8 246.8,223.8 249.1,223.8 249.1,226.1 249.1,226.2 249.2,226.2 
				250.9,226.2 251,226.2 251,226.1 251,223.8 253.3,223.8 253.4,223.8 253.4,223.7 253.4,222 253.4,222 			"/>
		</g>
	</g>
	<g>
		<g>
			<linearGradient id="SVGID_10_" gradientUnits="userSpaceOnUse" x1="280.9225" y1="212.6272" x2="302.1357" y2="233.8404">
				<stop  offset="0" style="stop-color:#007BB8"/>
				<stop  offset="1" style="stop-color:#0044E9"/>
			</linearGradient>
			<circle style="fill:url(#SVGID_10_);" cx="291.5" cy="223.2" r="15"/>
			<path style="fill:#FFFFFF;" d="M284.4,220.1h3.3v10.5h-3.3V220.1z M286,214.8c1.1,0,1.9,0.9,1.9,1.9c0,1-0.9,1.9-1.9,1.9
				c-1.1,0-1.9-0.9-1.9-1.9C284.1,215.7,285,214.8,286,214.8"/>
			<path style="fill:#FFFFFF;" d="M289.7,220.1h3.1v1.4h0c0.4-0.8,1.5-1.7,3.1-1.7c3.3,0,3.9,2.2,3.9,5v5.8h-3.3v-5.1
				c0-1.2,0-2.8-1.7-2.8c-1.7,0-2,1.3-2,2.7v5.2h-3.3V220.1z"/>
		</g>
	</g>
</g>
<g>
	<linearGradient id="SVGID_11_" gradientUnits="userSpaceOnUse" x1="79" y1="274" x2="110" y2="274">
		<stop  offset="0" style="stop-color:#515151"/>
		<stop  offset="1" style="stop-color:#515151"/>
	</linearGradient>
	<path style="fill:url(#SVGID_11_);" d="M110,285.2c0,2.4-1.9,4.3-4.3,4.3H83.3c-2.4,0-4.3-1.9-4.3-4.3v-22.4c0-2.4,1.9-4.3,4.3-4.3
		h22.4c2.4,0,4.3,1.9,4.3,4.3V285.2z"/>
	<path style="fill:#FFFFFF;" d="M103.4,273.6h-2.9v11.2h-4.3v-11.2h-2.6v-3.4h2.6v-2.1c0-3,1.3-4.8,4.8-4.8h3v3.4h-2
		c-1.4,0-1.5,0.5-1.5,1.5v2h3.5L103.4,273.6z"/>
</g>
<g>
	<linearGradient id="SVGID_12_" gradientUnits="userSpaceOnUse" x1="130" y1="274" x2="160.9047" y2="274">
		<stop  offset="0" style="stop-color:#515151"/>
		<stop  offset="1" style="stop-color:#515151"/>
	</linearGradient>
	<path style="fill:url(#SVGID_12_);" d="M157.6,258.5h-24.2c-1.9,0-3.4,1.5-3.4,3.4V286c0,2,1.5,3.5,3.4,3.5h24.1
		c1.9,0,3.4-1.5,3.4-3.4v-24.2C161,260,159.5,258.5,157.6,258.5z"/>
	<g>
		<path style="fill:#FFFFFF;" d="M154.5,272.2h-0.7l0,0h-8.3v3.7h5.2c-0.7,2.1-2.8,3.6-5.2,3.6c-3.1,0-5.5-2.5-5.5-5.5
			s2.5-5.5,5.5-5.5c1.4,0,2.7,0.5,3.7,1.4l2.6-2.6c-1.6-1.5-3.9-2.5-6.3-2.5c-5.1,0-9.2,4.1-9.2,9.2s4.1,9.2,9.2,9.2
			s9.2-4.1,9.2-9.2C154.7,273.4,154.7,272.8,154.5,272.2z"/>
	</g>
</g>
<g>
	<linearGradient id="SVGID_13_" gradientUnits="userSpaceOnUse" x1="181" y1="274" x2="211.9047" y2="274">
		<stop  offset="0" style="stop-color:#515151"/>
		<stop  offset="1" style="stop-color:#515151"/>
	</linearGradient>
	<path style="fill:url(#SVGID_13_);" d="M208.6,258.5h-24.2c-1.9,0-3.4,1.5-3.4,3.4V286c0,2,1.5,3.5,3.4,3.5h24.1
		c1.9,0,3.4-1.5,3.4-3.4v-24.2C212,260,210.5,258.5,208.6,258.5z"/>
</g>
<g>
	<g>
		<path style="fill:#F1F2F2;" d="M205.1,275.9v6.4h-3.7v-6c0-1.5-0.5-2.5-1.9-2.5c-1,0-1.6,0.7-1.9,1.4c-0.1,0.2-0.1,0.6-0.1,0.9
			v6.2h-3.7c0,0,0-10.1,0-11.1h3.7v1.6l0,0l0,0l0,0c0.5-0.8,1.4-1.8,3.3-1.8C203.3,270.9,205.1,272.4,205.1,275.9L205.1,275.9z
			 M190,265.7c-1.3,0-2.1,0.8-2.1,1.9s0.8,1.9,2,1.9l0,0c1.3,0,2.1-0.9,2.1-1.9S191.2,265.7,190,265.7L190,265.7z M188.1,282.3h3.7
			v-11.2h-3.7V282.3z"/>
	</g>
</g>
<g>
	<linearGradient id="SVGID_14_" gradientUnits="userSpaceOnUse" x1="232" y1="274" x2="262.9047" y2="274">
		<stop  offset="0" style="stop-color:#515151"/>
		<stop  offset="1" style="stop-color:#515151"/>
	</linearGradient>
	<path style="fill:url(#SVGID_14_);" d="M259.6,258.5h-24.2c-1.9,0-3.4,1.5-3.4,3.4V286c0,2,1.5,3.5,3.4,3.5h24.1
		c1.9,0,3.4-1.5,3.4-3.4v-24.2C263,260,261.5,258.5,259.6,258.5z"/>
	<path style="fill:#FFFFFF;" d="M256.2,269.7c0,0.1,0,0.3,0,0.6c0,5.6-4.3,12.1-12.1,12.1c-2.4,0-4.6-0.7-6.5-1.9c0.3,0,0.7,0,1,0
		c1.9,0,3.8-0.7,5.3-1.8c-1.9,0-3.4-1.3-4-3c0.3,0,0.6,0.1,0.7,0.1c0.4,0,0.7,0,1.2-0.1c-1.9-0.4-3.4-2.1-3.4-4.1
		c0.6,0.3,1.2,0.4,1.9,0.6c-1.2-1-1.9-2.2-1.9-3.7c0-0.7,0.1-1.5,0.6-2.1c2.1,2.5,5.2,4.3,8.7,4.4c0-0.3-0.1-0.6-0.1-1
		c0-2.4,1.9-4.3,4.3-4.3c1.2,0,2.4,0.4,3.1,1.3c1-0.1,1.9-0.6,2.7-1c-0.3,1-1,1.8-1.9,2.4c0.9-0.1,1.6-0.3,2.5-0.7
		C257.7,268.4,256.9,269.1,256.2,269.7z"/>
</g>
<g>
	<path style="fill:#3F51B5;" d="M110,326.2c0,2.4-1.9,4.3-4.3,4.3H83.3c-2.4,0-4.3-1.9-4.3-4.3v-22.4c0-2.4,1.9-4.3,4.3-4.3h22.4
		c2.4,0,4.3,1.9,4.3,4.3V326.2z"/>
	<path style="fill:#FFFFFF;" d="M103.4,314.6h-2.9v11.2h-4.3v-11.2h-2.6v-3.4h2.6v-2.1c0-3,1.3-4.8,4.8-4.8h3v3.4h-2
		c-1.4,0-1.5,0.5-1.5,1.5v2h3.5L103.4,314.6z"/>
</g>
<g>
	<path style="fill:#F4F4F4;" d="M157.6,299.5h-24.2c-1.9,0-3.4,1.5-3.4,3.4V327c0,2,1.5,3.5,3.4,3.5h24.1c1.9,0,3.4-1.5,3.4-3.4
		v-24.2C161,301,159.5,299.5,157.6,299.5z"/>
	<g>
		<path style="fill:#FFC107;" d="M154.5,313.2h-0.7l0,0h-8.3v3.7h5.2c-0.7,2.1-2.8,3.6-5.2,3.6c-3.1,0-5.5-2.5-5.5-5.5
			s2.5-5.5,5.5-5.5c1.4,0,2.7,0.5,3.7,1.4l2.6-2.6c-1.6-1.5-3.9-2.5-6.3-2.5c-5.1,0-9.2,4.1-9.2,9.2s4.1,9.2,9.2,9.2
			s9.2-4.1,9.2-9.2C154.7,314.4,154.7,313.8,154.5,313.2z"/>
		<path style="fill:#FF3D00;" d="M137.3,310.7l3,2.2c0.8-2,2.8-3.5,5.1-3.5c1.4,0,2.7,0.5,3.7,1.4l2.6-2.6c-1.6-1.5-3.9-2.5-6.3-2.5
			C142,305.8,138.9,307.8,137.3,310.7z"/>
		<path style="fill:#4CAF50;" d="M145.5,324.2c2.4,0,4.5-0.9,6.2-2.4l-2.9-2.4c-0.9,0.7-2.1,1.1-3.3,1.1c-2.4,0-4.4-1.5-5.2-3.7
			l-3,2.3C138.8,322.2,141.9,324.2,145.5,324.2z"/>
		<path style="fill:#1976D2;" d="M154.5,313.2h-0.7l0,0h-8.3v3.7h5.2c-0.4,1-1,1.9-1.9,2.6l0,0l2.9,2.4c-0.2,0.2,3-2.2,3-6.8
			C154.7,314.4,154.7,313.8,154.5,313.2z"/>
	</g>
</g>
<g>
	<path style="fill:#007AB9;" d="M208.6,299.5h-24.2c-1.9,0-3.4,1.5-3.4,3.4V327c0,2,1.5,3.5,3.4,3.5h24.1c1.9,0,3.4-1.5,3.4-3.4
		v-24.2C212,301,210.5,299.5,208.6,299.5z"/>
</g>
<g>
	<g>
		<path style="fill:#F1F2F2;" d="M205.1,316.9v6.4h-3.7v-6c0-1.5-0.5-2.5-1.9-2.5c-1,0-1.6,0.7-1.9,1.4c-0.1,0.2-0.1,0.6-0.1,0.9
			v6.2h-3.7c0,0,0-10.1,0-11.1h3.7v1.6l0,0l0,0l0,0c0.5-0.8,1.4-1.8,3.3-1.8C203.3,311.9,205.1,313.4,205.1,316.9L205.1,316.9z
			 M190,306.7c-1.3,0-2.1,0.8-2.1,1.9s0.8,1.9,2,1.9l0,0c1.3,0,2.1-0.9,2.1-1.9S191.2,306.7,190,306.7L190,306.7z M188.1,323.3h3.7
			v-11.2h-3.7V323.3z"/>
	</g>
</g>
<g>
	<path style="fill:#03A9F4;" d="M259.6,299.5h-24.2c-1.9,0-3.4,1.5-3.4,3.4V327c0,2,1.5,3.5,3.4,3.5h24.1c1.9,0,3.4-1.5,3.4-3.4
		v-24.2C263,301,261.5,299.5,259.6,299.5z"/>
	<path style="fill:#FFFFFF;" d="M256.2,310.7c0,0.1,0,0.3,0,0.6c0,5.6-4.3,12.1-12.1,12.1c-2.4,0-4.6-0.7-6.5-1.9c0.3,0,0.7,0,1,0
		c1.9,0,3.8-0.7,5.3-1.8c-1.9,0-3.4-1.3-4-3c0.3,0,0.6,0.1,0.7,0.1c0.4,0,0.7,0,1.2-0.1c-1.9-0.4-3.4-2.1-3.4-4.1
		c0.6,0.3,1.2,0.4,1.9,0.6c-1.2-1-1.9-2.2-1.9-3.7c0-0.7,0.1-1.5,0.6-2.1c2.1,2.5,5.2,4.3,8.7,4.4c0-0.3-0.1-0.6-0.1-1
		c0-2.4,1.9-4.3,4.3-4.3c1.2,0,2.4,0.4,3.1,1.3c1-0.1,1.9-0.6,2.7-1c-0.3,1-1,1.8-1.9,2.4c0.9-0.1,1.6-0.3,2.5-0.7
		C257.7,309.4,256.9,310.1,256.2,310.7z"/>
</g>
</svg>
