<?xml version="1.0" encoding="utf-8"?>
<!-- Generator: Adobe Illustrator 23.0.2, SVG Export Plug-In . SVG Version: 6.00 Build 0)  -->
<svg version="1.1" id="Layer_1" xmlns="http://www.w3.org/2000/svg" xmlns:xlink="http://www.w3.org/1999/xlink" x="0px" y="0px"
	 width="17px" height="17px" viewBox="0 0 17 17" style="enable-background:new 0 0 17 17;" xml:space="preserve">
<style type="text/css">
	.st0{fill:#252F6A;}
</style>
<title>qoute</title>
<path class="st0" d="M4.7,7.9c-0.4,0-0.8,0.1-1.1,0.2c0.8-4.5,4.3-7.4,1-5C1,5.7,1.2,11.2,1.2,11.3l0,0c0,1.9,1.5,3.5,3.5,3.5
	c1.9,0,3.5-1.5,3.5-3.5C8.2,9.4,6.6,7.9,4.7,7.9C4.7,7.9,4.7,7.9,4.7,7.9z M12.3,7.9c-0.4,0-0.8,0.1-1.1,0.2c0.8-4.5,4.3-7.4,1-5
	c-3.6,2.6-3.4,8.2-3.4,8.3l0,0c0,1.9,1.6,3.5,3.5,3.5s3.5-1.6,3.5-3.5S14.2,7.9,12.3,7.9L12.3,7.9z"/>
</svg>
