<?xml version="1.0" encoding="utf-8"?>
<!-- Generator: Adobe Illustrator 23.0.2, SVG Export Plug-In . SVG Version: 6.00 Build 0)  -->
<svg version="1.1" id="Layer_1" xmlns="http://www.w3.org/2000/svg" xmlns:xlink="http://www.w3.org/1999/xlink" x="0px" y="0px"
	 width="65px" height="65px" viewBox="0 0 65 65" style="enable-background:new 0 0 65 65;" xml:space="preserve">
<g>
	<path style="fill:#C6C6C6;" d="M45.7,23.5c0-1-0.8-1.9-1.9-1.9h-0.6c-0.5-4.6-3.8-8.3-8.1-9.4V7.7c0-1.1-0.9-2-2-2h-1.4
		c-0.2,0-0.4,0-0.6,0.1c0.8,0.3,1.3,1,1.3,1.8v4.2c-0.7,0-1.4,0.1-2.1,0.2c4.6,0.9,8.2,4.8,8.6,9.5H21.2c-1,0-1.9,0.8-1.9,1.9v5.9
		h26.4V23.5z"/>
	<path style="fill:#C6C6C6;" d="M58.9,56.9h-0.1V41.1c0-0.9-0.7-1.6-1.6-1.6h-9.3v17.4H17.1V39.5H7.9c-0.9,0-1.6,0.7-1.6,1.6v15.8
		H6.1c-1.9,0-3.4,1.5-3.4,3.4v3.2h59.6v-3.2C62.3,58.4,60.8,56.9,58.9,56.9z"/>
</g>
<g>
	<path style="fill:#252F6A;" d="M59.7,56V41.1c0-1.4-1.2-2.6-2.6-2.6h-8.3v-0.3c0,0,0,0,0,0v-7.1c0-1.3-0.9-2.4-2.2-2.6v-4.9
		c0-1.5-1.1-2.7-2.6-2.8c-0.3-1.5-0.8-3-1.7-4.3c-0.3-0.4-0.9-0.6-1.3-0.3c-0.4,0.3-0.6,0.9-0.3,1.3c0.6,1,1.1,2.1,1.3,3.3H22.9
		c0.8-3.6,3.6-6.6,7.2-7.5c1.6-0.4,3.3-0.4,4.8,0c1.3,0.3,2.5,0.9,3.6,1.8c0.4,0.3,1,0.2,1.3-0.2c0.3-0.4,0.2-1-0.2-1.3
		c-1.1-0.8-2.3-1.5-3.6-1.9V7.7c0-1.5-1.2-2.8-2.7-2.9V1.5c0-0.5-0.4-1-1-1s-1,0.4-1,1v3.4c-1.5,0.1-2.7,1.4-2.7,2.9v3.8
		c-4.1,1.3-7.2,4.9-8,9.2c-1.4,0.1-2.6,1.3-2.6,2.8v4.9c-1.2,0.2-2.2,1.3-2.2,2.6v7.1v0v0.3H7.9c-1.4,0-2.6,1.2-2.6,2.6V56
		c-2,0.4-3.5,2.2-3.5,4.3v3.2c0,0.5,0.4,1,1,1s1-0.4,1-1v-3.2c0-1.4,1.1-2.5,2.5-2.5H9c0.5,0,1-0.4,1-1c0-0.5-0.4-1-1-1H7.2V44.5h9
		V56h-2.6c-0.5,0-1,0.4-1,1c0,0.5,0.4,1,1,1h45.3c1.4,0,2.5,1.1,2.5,2.5v3.2c0,0.5,0.4,1,1,1s1-0.4,1-1v-3.2
		C63.3,58.2,61.7,56.4,59.7,56z M30.8,7.7c0-0.6,0.4-1,1-1h0.7h0h0h0.7c0.6,0,1,0.4,1,1v3.4c-1.1-0.2-2.3-0.2-3.4,0V7.7z M16.2,42.6
		h-9v-1.6c0-0.4,0.3-0.7,0.7-0.7h8.3V42.6z M18.1,31.1c0-0.4,0.3-0.8,0.8-0.8h0.4h0h0h2.8c0.5,0,1-0.4,1-1c0-0.5-0.4-1-1-1h-1.9
		v-4.9c0-0.5,0.4-0.9,0.9-0.9h0.6c0,0,0,0,0,0c0,0,0,0,0,0h21.5c0,0,0,0,0,0c0,0,0,0,0,0h0.6c0.5,0,0.9,0.4,0.9,0.9v4.9H26.4
		c-0.5,0-1,0.4-1,1c0,0.5,0.4,1,1,1h19.3h0h0h0.4c0.4,0,0.8,0.3,0.8,0.8v5.8l-14.1-4.3c-0.2-0.1-0.4-0.1-0.6,0l-14.1,4.3V31.1z
		 M22.3,56h-4.2V44.5h4.2V56z M28.5,56h-4.2V44.5h4.2V56z M34.6,56h-4.2V44.5h4.2V56z M46.9,56h-4.2v-3.9c0-0.5-0.4-1-1-1
		s-1,0.4-1,1V56h-4.2V44.5h4.2v3.6c0,0.5,0.4,1,1,1s1-0.4,1-1v-3.6h4.2V56z M46.9,42.6H18.1v-3.2c0,0,0,0,0,0v-0.6l14.4-4.4
		l14.4,4.4v0.6c0,0,0,0,0,0V42.6z M57.8,56h-9V44.5h9V56z M57.8,42.6h-9v-2.2h8.3c0.4,0,0.7,0.3,0.7,0.7V42.6z"/>
	<path style="fill:#252F6A;" d="M40.9,38.9l-8-2.4c-0.2-0.1-0.4-0.1-0.5,0l-7.8,2.4c-0.5,0.2-0.8,0.7-0.6,1.2
		c0.1,0.4,0.5,0.7,0.9,0.7c0.1,0,0.2,0,0.3,0l7.6-2.3l7.8,2.3c0.5,0.1,1-0.1,1.2-0.6C41.7,39.6,41.4,39,40.9,38.9z"/>
	<path style="fill:#252F6A;" d="M23.1,24c-0.5,0-1,0.4-1,1v1.4c0,0.5,0.4,1,1,1s1-0.4,1-1V25C24,24.5,23.6,24,23.1,24z"/>
	<path style="fill:#252F6A;" d="M26.8,27.3c0.5,0,1-0.4,1-1V25c0-0.5-0.4-1-1-1c-0.5,0-1,0.4-1,1v1.4C25.9,26.9,26.3,27.3,26.8,27.3
		z"/>
	<path style="fill:#252F6A;" d="M30.6,27.3c0.5,0,1-0.4,1-1V25c0-0.5-0.4-1-1-1s-1,0.4-1,1v1.4C29.7,26.9,30.1,27.3,30.6,27.3z"/>
	<path style="fill:#252F6A;" d="M34.4,27.3c0.5,0,1-0.4,1-1V25c0-0.5-0.4-1-1-1c-0.5,0-1,0.4-1,1v1.4C33.4,26.9,33.9,27.3,34.4,27.3
		z"/>
	<path style="fill:#252F6A;" d="M38.2,27.3c0.5,0,1-0.4,1-1V25c0-0.5-0.4-1-1-1s-1,0.4-1,1v1.4C37.2,26.9,37.6,27.3,38.2,27.3z"/>
	<path style="fill:#252F6A;" d="M41.9,27.3c0.5,0,1-0.4,1-1V25c0-0.5-0.4-1-1-1c-0.5,0-1,0.4-1,1v1.4C41,26.9,41.4,27.3,41.9,27.3z"
		/>
</g>
</svg>
