<?xml version="1.0" encoding="utf-8"?>
<!-- Generator: Adobe Illustrator 23.0.2, SVG Export Plug-In . SVG Version: 6.00 Build 0)  -->
<svg version="1.1" id="Layer_1" xmlns="http://www.w3.org/2000/svg" xmlns:xlink="http://www.w3.org/1999/xlink" x="0px" y="0px"
	 width="65px" height="65px" viewBox="0 0 65 65" style="enable-background:new 0 0 65 65;" xml:space="preserve">
<g>
	<path style="fill:#C6C6C6;" d="M57.8,11.9c0.9,0,1.5-0.7,1.5-1.5s-0.7-1.5-1.5-1.5s-1.5,0.7-1.5,1.5S56.9,11.9,57.8,11.9z"/>
	<path style="fill:#C6C6C6;" d="M19.1,24.2c0,2.1,0.9,3.9,2.1,3.9c1.1,0,2.1-1.7,2.1-3.9s-0.9-3.9-2.1-3.9
		C20,20.4,19.1,22.1,19.1,24.2z"/>
	<path style="fill:#C6C6C6;" d="M29.4,24.2c0,2.1,0.9,3.9,2.1,3.9c1.1,0,2.1-1.7,2.1-3.9s-0.9-3.9-2.1-3.9
		C30.3,20.4,29.4,22.1,29.4,24.2z"/>
	<path style="fill:#C6C6C6;" d="M49,34.6H18c-5.7,0-10.3-4.6-10.3-10.3S12.3,13.9,18,13.9H48V9.8H18c-8,0-14.5,6.5-14.5,14.5
		c0,8,6.5,14.5,14.5,14.5h31c4.6,0,8.3,3.7,8.3,8.3s-3.7,8.3-8.3,8.3H31.5v4.1H49c6.8,0,12.4-5.5,12.4-12.4
		C61.4,40.1,55.9,34.6,49,34.6z"/>
</g>
<g>
	<path style="fill:#252F6A;" d="M54.2,47c0,2.8-2.3,5.2-5.2,5.2H31.5v2.1H49c4,0,7.2-3.2,7.2-7.2c0-4-3.2-7.2-7.2-7.2H18
		c-8.5,0-15.5-6.9-15.5-15.5S9.5,8.8,18,8.8H48V6.7H18c-9.7,0-17.5,7.9-17.5,17.5S8.4,41.8,18,41.8h31C51.9,41.8,54.2,44.1,54.2,47z
		"/>
	<path style="fill:#252F6A;" d="M49,31.5H33.5v-2.2c1.8-0.6,3.1-2.6,3.1-5c0-2.8-1.9-5.2-4.1-5.2s-4.1,2.3-4.1,5.2
		c0,2.4,1.3,4.4,3.1,5v2.2h-8.3v-2.2c1.8-0.6,3.1-2.6,3.1-5c0-2.8-1.9-5.2-4.1-5.2c-2.3,0-4.1,2.3-4.1,5.2c0,2.4,1.3,4.4,3.1,5v2.2
		H18c-4,0-7.2-3.2-7.2-7.2c0-4,3.2-7.2,7.2-7.2H48V15H18c-5.1,0-9.3,4.2-9.3,9.3s4.2,9.3,9.3,9.3h31c7.4,0,13.4,6,13.4,13.4
		s-6,13.4-13.4,13.4H31.5v2.1H49c8.5,0,15.5-6.9,15.5-15.5S57.6,31.5,49,31.5z M32.5,21.1c1.1,0,2.1,1.4,2.1,3.1
		c0,1.7-0.9,3.1-2.1,3.1c-1.1,0-2.1-1.4-2.1-3.1C30.4,22.6,31.4,21.1,32.5,21.1z M22.2,21.1c1.1,0,2.1,1.4,2.1,3.1
		c0,1.7-0.9,3.1-2.1,3.1c-1.1,0-2.1-1.4-2.1-3.1C20.1,22.6,21.1,21.1,22.2,21.1z"/>
	<rect x="44.9" y="10.8" style="fill:#252F6A;" width="3.1" height="2.1"/>
	<rect x="36.6" y="10.8" style="fill:#252F6A;" width="4.1" height="2.1"/>
	<rect x="28.4" y="10.8" style="fill:#252F6A;" width="4.1" height="2.1"/>
	<rect x="20.1" y="10.8" style="fill:#252F6A;" width="4.1" height="2.1"/>
	<path style="fill:#252F6A;" d="M12.4,14.4c1.2-0.7,2.4-1.1,3.8-1.4l-0.3-2c-1.6,0.3-3.1,0.8-4.5,1.6L12.4,14.4z"/>
	<path style="fill:#252F6A;" d="M7.1,16.4c-1,1.4-1.7,2.9-2.1,4.5l2,0.5C7.4,20,8,18.8,8.8,17.6L7.1,16.4z"/>
	<path style="fill:#252F6A;" d="M4.7,25.4c0.1,1.6,0.5,3.1,1.2,4.5L7.7,29c-0.5-1.2-0.9-2.5-1-3.8L4.7,25.4z"/>
	<path style="fill:#252F6A;" d="M10.5,32.8l-1.4,1.5c1.3,1.1,2.8,2,4.4,2.6l0.7-1.9C12.9,34.5,11.6,33.7,10.5,32.8z"/>
	<rect x="18" y="35.6" style="fill:#252F6A;" width="4.1" height="2.1"/>
	<rect x="26.3" y="35.6" style="fill:#252F6A;" width="4.1" height="2.1"/>
	<rect x="34.6" y="35.6" style="fill:#252F6A;" width="4.1" height="2.1"/>
	<rect x="42.8" y="35.6" style="fill:#252F6A;" width="4.1" height="2.1"/>
	<path style="fill:#252F6A;" d="M55.8,37.9c-1.4-1-2.9-1.7-4.5-2l-0.4,2c1.4,0.3,2.6,0.8,3.7,1.7L55.8,37.9z"/>
	<path style="fill:#252F6A;" d="M59.4,42.4l-1.9,0.8c0.5,1.2,0.8,2.4,0.8,3.7h2.1C60.4,45.4,60.1,43.8,59.4,42.4z"/>
	<path style="fill:#252F6A;" d="M54.6,54.4l1.2,1.7c1.6-1.2,2.8-2.7,3.6-4.5l-1.9-0.8C56.9,52.1,55.9,53.4,54.6,54.4z"/>
	<path style="fill:#252F6A;" d="M47,56.2v2.1H49c0.8,0,1.5-0.1,2.3-0.2l-0.4-2c-0.6,0.1-1.2,0.2-1.9,0.2H47z"/>
	<rect x="38.7" y="56.2" style="fill:#252F6A;" width="4.1" height="2.1"/>
	<rect x="31.5" y="56.2" style="fill:#252F6A;" width="3.1" height="2.1"/>
	<path style="fill:#252F6A;" d="M56.2,16.9v10.4h2.1V16.9c3.5-0.5,6.2-3.5,6.2-7.1c0-4-3.2-7.2-7.2-7.2c-4,0-7.2,3.2-7.2,7.2
		C50,13.4,52.7,16.4,56.2,16.9z M57.3,4.6c2.8,0,5.2,2.3,5.2,5.2S60.1,15,57.3,15c-2.8,0-5.2-2.3-5.2-5.2S54.4,4.6,57.3,4.6z"/>
	<path style="fill:#252F6A;" d="M60.4,9.8h-2.1c0,0.6-0.5,1-1,1v2.1C59,12.9,60.4,11.5,60.4,9.8z"/>
</g>
</svg>
