<?xml version="1.0" encoding="utf-8"?>
<!-- Generator: Adobe Illustrator 23.0.2, SVG Export Plug-In . SVG Version: 6.00 Build 0)  -->
<svg version="1.1" id="Layer_1" xmlns="http://www.w3.org/2000/svg" xmlns:xlink="http://www.w3.org/1999/xlink" x="0px" y="0px"
	 width="65px" height="65px" viewBox="0 0 65 65" style="enable-background:new 0 0 65 65;" xml:space="preserve">
<polygon style="fill:#DDDDDD;" points="14.1,62.9 25.8,62.9 32.2,62.9 38.6,62.9 50.4,62.9 50.4,2.1 14.1,2.1 "/>
<rect x="54.6" y="16" style="fill:#DDDDDD;" width="4.3" height="4.3"/>
<rect x="54.6" y="24.5" style="fill:#DDDDDD;" width="4.3" height="4.3"/>
<rect x="54.6" y="33" style="fill:#DDDDDD;" width="4.3" height="4.3"/>
<rect x="54.6" y="41.6" style="fill:#DDDDDD;" width="4.3" height="4.3"/>
<rect x="54.6" y="50.1" style="fill:#DDDDDD;" width="4.3" height="4.3"/>
<path style="fill:#252F6A;" d="M63.4,10.6H51.7V2.1c0-0.6-0.5-1.1-1.1-1.1H14.4c-0.6,0-1.1,0.5-1.1,1.1V17H1.6
	c-0.6,0-1.1,0.5-1.1,1.1v43.7c0,0.6,0.5,1.1,1.1,1.1s1.1-0.5,1.1-1.1V19.2h10.7v43.7c0,0.6,0.5,1.1,1.1,1.1h36.3
	c0.6,0,1.1-0.5,1.1-1.1V12.8h10.7v49.1c0,0.6,0.5,1.1,1.1,1.1s1.1-0.5,1.1-1.1V11.7C64.5,11.1,64,10.6,63.4,10.6z M31.4,61.8h-4.3
	v-9.6h4.3V61.8z M37.8,61.8h-4.3v-9.6h4.3V61.8z M49.6,61.8H40V51.2c0-0.6-0.5-1.1-1.1-1.1H26.1c-0.6,0-1.1,0.5-1.1,1.1v10.7h-9.6
	V3.2h34.1V61.8z"/>
<path style="fill:#252F6A;" d="M18.6,13.8H25c0.6,0,1.1-0.5,1.1-1.1V6.4c0-0.6-0.5-1.1-1.1-1.1h-6.4c-0.6,0-1.1,0.5-1.1,1.1v6.4
	C17.6,13.4,18,13.8,18.6,13.8z M19.7,7.4H24v4.3h-4.3V7.4z"/>
<path style="fill:#252F6A;" d="M29.3,13.8h6.4c0.6,0,1.1-0.5,1.1-1.1V6.4c0-0.6-0.5-1.1-1.1-1.1h-6.4c-0.6,0-1.1,0.5-1.1,1.1v6.4
	C28.2,13.4,28.7,13.8,29.3,13.8z M30.4,7.4h4.3v4.3h-4.3V7.4z"/>
<path style="fill:#252F6A;" d="M40,13.8h6.4c0.6,0,1.1-0.5,1.1-1.1V6.4c0-0.6-0.5-1.1-1.1-1.1H40c-0.6,0-1.1,0.5-1.1,1.1v6.4
	C38.9,13.4,39.4,13.8,40,13.8z M41,7.4h4.3v4.3H41V7.4z"/>
<path style="fill:#252F6A;" d="M18.6,24.5H25c0.6,0,1.1-0.5,1.1-1.1V17c0-0.6-0.5-1.1-1.1-1.1h-6.4c-0.6,0-1.1,0.5-1.1,1.1v6.4
	C17.6,24,18,24.5,18.6,24.5z M19.7,18.1H24v4.3h-4.3V18.1z"/>
<path style="fill:#252F6A;" d="M29.3,24.5h6.4c0.6,0,1.1-0.5,1.1-1.1V17c0-0.6-0.5-1.1-1.1-1.1h-6.4c-0.6,0-1.1,0.5-1.1,1.1v6.4
	C28.2,24,28.7,24.5,29.3,24.5z M30.4,18.1h4.3v4.3h-4.3V18.1z"/>
<path style="fill:#252F6A;" d="M40,24.5h6.4c0.6,0,1.1-0.5,1.1-1.1V17c0-0.6-0.5-1.1-1.1-1.1H40c-0.6,0-1.1,0.5-1.1,1.1v6.4
	C38.9,24,39.4,24.5,40,24.5z M41,18.1h4.3v4.3H41V18.1z"/>
<path style="fill:#252F6A;" d="M18.6,35.2H25c0.6,0,1.1-0.5,1.1-1.1v-6.4c0-0.6-0.5-1.1-1.1-1.1h-6.4c-0.6,0-1.1,0.5-1.1,1.1v6.4
	C17.6,34.7,18,35.2,18.6,35.2z M19.7,28.8H24V33h-4.3V28.8z"/>
<path style="fill:#252F6A;" d="M29.3,35.2h6.4c0.6,0,1.1-0.5,1.1-1.1v-6.4c0-0.6-0.5-1.1-1.1-1.1h-6.4c-0.6,0-1.1,0.5-1.1,1.1v6.4
	C28.2,34.7,28.7,35.2,29.3,35.2z M30.4,28.8h4.3V33h-4.3V28.8z"/>
<path style="fill:#252F6A;" d="M40,35.2h6.4c0.6,0,1.1-0.5,1.1-1.1v-6.4c0-0.6-0.5-1.1-1.1-1.1H40c-0.6,0-1.1,0.5-1.1,1.1v6.4
	C38.9,34.7,39.4,35.2,40,35.2z M41,28.8h4.3V33H41V28.8z"/>
<path style="fill:#252F6A;" d="M18.6,45.8H25c0.6,0,1.1-0.5,1.1-1.1v-6.4c0-0.6-0.5-1.1-1.1-1.1h-6.4c-0.6,0-1.1,0.5-1.1,1.1v6.4
	C17.6,45.4,18,45.8,18.6,45.8z M19.7,39.4H24v4.3h-4.3V39.4z"/>
<path style="fill:#252F6A;" d="M29.3,45.8h6.4c0.6,0,1.1-0.5,1.1-1.1v-6.4c0-0.6-0.5-1.1-1.1-1.1h-6.4c-0.6,0-1.1,0.5-1.1,1.1v6.4
	C28.2,45.4,28.7,45.8,29.3,45.8z M30.4,39.4h4.3v4.3h-4.3V39.4z"/>
<path style="fill:#252F6A;" d="M40,45.8h6.4c0.6,0,1.1-0.5,1.1-1.1v-6.4c0-0.6-0.5-1.1-1.1-1.1H40c-0.6,0-1.1,0.5-1.1,1.1v6.4
	C38.9,45.4,39.4,45.8,40,45.8z M41,39.4h4.3v4.3H41V39.4z"/>
<path style="fill:#252F6A;" d="M6.9,21.3H5.8c-0.6,0-1.1,0.5-1.1,1.1v1.1c0,0.6,0.5,1.1,1.1,1.1h1.1C7.5,24.5,8,24,8,23.4v-1.1
	C8,21.8,7.5,21.3,6.9,21.3z"/>
<path style="fill:#252F6A;" d="M11.2,21.3h-1.1c-0.6,0-1.1,0.5-1.1,1.1v1.1c0,0.6,0.5,1.1,1.1,1.1h1.1c0.6,0,1.1-0.5,1.1-1.1v-1.1
	C12.2,21.8,11.8,21.3,11.2,21.3z"/>
<path style="fill:#252F6A;" d="M6.9,25.6H5.8c-0.6,0-1.1,0.5-1.1,1.1v1.1c0,0.6,0.5,1.1,1.1,1.1h1.1c0.6,0,1.1-0.5,1.1-1.1v-1.1
	C8,26,7.5,25.6,6.9,25.6z"/>
<path style="fill:#252F6A;" d="M11.2,25.6h-1.1C9.5,25.6,9,26,9,26.6v1.1c0,0.6,0.5,1.1,1.1,1.1h1.1c0.6,0,1.1-0.5,1.1-1.1v-1.1
	C12.2,26,11.8,25.6,11.2,25.6z"/>
<path style="fill:#252F6A;" d="M6.9,29.8H5.8c-0.6,0-1.1,0.5-1.1,1.1V32c0,0.6,0.5,1.1,1.1,1.1h1.1C7.5,33,8,32.6,8,32v-1.1
	C8,30.3,7.5,29.8,6.9,29.8z"/>
<path style="fill:#252F6A;" d="M11.2,29.8h-1.1c-0.6,0-1.1,0.5-1.1,1.1V32c0,0.6,0.5,1.1,1.1,1.1h1.1c0.6,0,1.1-0.5,1.1-1.1v-1.1
	C12.2,30.3,11.8,29.8,11.2,29.8z"/>
<path style="fill:#252F6A;" d="M6.9,34.1H5.8c-0.6,0-1.1,0.5-1.1,1.1v1.1c0,0.6,0.5,1.1,1.1,1.1h1.1c0.6,0,1.1-0.5,1.1-1.1v-1.1
	C8,34.6,7.5,34.1,6.9,34.1z"/>
<path style="fill:#252F6A;" d="M11.2,34.1h-1.1c-0.6,0-1.1,0.5-1.1,1.1v1.1c0,0.6,0.5,1.1,1.1,1.1h1.1c0.6,0,1.1-0.5,1.1-1.1v-1.1
	C12.2,34.6,11.8,34.1,11.2,34.1z"/>
<path style="fill:#252F6A;" d="M6.9,38.4H5.8c-0.6,0-1.1,0.5-1.1,1.1v1.1c0,0.6,0.5,1.1,1.1,1.1h1.1c0.6,0,1.1-0.5,1.1-1.1v-1.1
	C8,38.8,7.5,38.4,6.9,38.4z"/>
<path style="fill:#252F6A;" d="M11.2,38.4h-1.1c-0.6,0-1.1,0.5-1.1,1.1v1.1c0,0.6,0.5,1.1,1.1,1.1h1.1c0.6,0,1.1-0.5,1.1-1.1v-1.1
	C12.2,38.8,11.8,38.4,11.2,38.4z"/>
<path style="fill:#252F6A;" d="M6.9,42.6H5.8c-0.6,0-1.1,0.5-1.1,1.1v1.1c0,0.6,0.5,1.1,1.1,1.1h1.1c0.6,0,1.1-0.5,1.1-1.1v-1.1
	C8,43.1,7.5,42.6,6.9,42.6z"/>
<path style="fill:#252F6A;" d="M11.2,42.6h-1.1c-0.6,0-1.1,0.5-1.1,1.1v1.1c0,0.6,0.5,1.1,1.1,1.1h1.1c0.6,0,1.1-0.5,1.1-1.1v-1.1
	C12.2,43.1,11.8,42.6,11.2,42.6z"/>
<path style="fill:#252F6A;" d="M6.9,46.9H5.8c-0.6,0-1.1,0.5-1.1,1.1V49c0,0.6,0.5,1.1,1.1,1.1h1.1C7.5,50.1,8,49.6,8,49V48
	C8,47.4,7.5,46.9,6.9,46.9z"/>
<path style="fill:#252F6A;" d="M11.2,46.9h-1.1C9.5,46.9,9,47.4,9,48V49c0,0.6,0.5,1.1,1.1,1.1h1.1c0.6,0,1.1-0.5,1.1-1.1V48
	C12.2,47.4,11.8,46.9,11.2,46.9z"/>
<path style="fill:#252F6A;" d="M6.9,51.2H5.8c-0.6,0-1.1,0.5-1.1,1.1v1.1c0,0.6,0.5,1.1,1.1,1.1h1.1c0.6,0,1.1-0.5,1.1-1.1v-1.1
	C8,51.6,7.5,51.2,6.9,51.2z"/>
<path style="fill:#252F6A;" d="M11.2,51.2h-1.1c-0.6,0-1.1,0.5-1.1,1.1v1.1c0,0.6,0.5,1.1,1.1,1.1h1.1c0.6,0,1.1-0.5,1.1-1.1v-1.1
	C12.2,51.6,11.8,51.2,11.2,51.2z"/>
<path style="fill:#252F6A;" d="M6.9,55.4H5.8c-0.6,0-1.1,0.5-1.1,1.1v1.1c0,0.6,0.5,1.1,1.1,1.1h1.1c0.6,0,1.1-0.5,1.1-1.1v-1.1
	C8,55.9,7.5,55.4,6.9,55.4z"/>
<path style="fill:#252F6A;" d="M11.2,55.4h-1.1c-0.6,0-1.1,0.5-1.1,1.1v1.1c0,0.6,0.5,1.1,1.1,1.1h1.1c0.6,0,1.1-0.5,1.1-1.1v-1.1
	C12.2,55.9,11.8,55.4,11.2,55.4z"/>
<path style="fill:#252F6A;" d="M59.2,14.9h-4.3c-0.6,0-1.1,0.5-1.1,1.1v4.3c0,0.6,0.5,1.1,1.1,1.1h4.3c0.6,0,1.1-0.5,1.1-1.1V16
	C60.2,15.4,59.8,14.9,59.2,14.9z M58.1,19.2H56V17h2.1V19.2z"/>
<path style="fill:#252F6A;" d="M59.2,23.4h-4.3c-0.6,0-1.1,0.5-1.1,1.1v4.3c0,0.6,0.5,1.1,1.1,1.1h4.3c0.6,0,1.1-0.5,1.1-1.1v-4.3
	C60.2,23.9,59.8,23.4,59.2,23.4z M58.1,27.7H56v-2.1h2.1V27.7z"/>
<path style="fill:#252F6A;" d="M59.2,32h-4.3c-0.6,0-1.1,0.5-1.1,1.1v4.3c0,0.6,0.5,1.1,1.1,1.1h4.3c0.6,0,1.1-0.5,1.1-1.1V33
	C60.2,32.4,59.8,32,59.2,32z M58.1,36.2H56v-2.1h2.1V36.2z"/>
<path style="fill:#252F6A;" d="M59.2,40.5h-4.3c-0.6,0-1.1,0.5-1.1,1.1v4.3c0,0.6,0.5,1.1,1.1,1.1h4.3c0.6,0,1.1-0.5,1.1-1.1v-4.3
	C60.2,41,59.8,40.5,59.2,40.5z M58.1,44.8H56v-2.1h2.1V44.8z"/>
<path style="fill:#252F6A;" d="M59.2,49h-4.3c-0.6,0-1.1,0.5-1.1,1.1v4.3c0,0.6,0.5,1.1,1.1,1.1h4.3c0.6,0,1.1-0.5,1.1-1.1v-4.3
	C60.2,49.5,59.8,49,59.2,49z M58.1,53.3H56v-2.1h2.1V53.3z"/>
</svg>
