<?xml version="1.0" encoding="utf-8"?>
<!-- Generator: Adobe Illustrator 23.0.2, SVG Export Plug-In . SVG Version: 6.00 Build 0)  -->
<svg version="1.1" id="Layer_1" xmlns="http://www.w3.org/2000/svg" xmlns:xlink="http://www.w3.org/1999/xlink" x="0px" y="0px"
	 width="65px" height="65px" viewBox="0 0 65 65" style="enable-background:new 0 0 65 65;" xml:space="preserve">
<path style="fill:#C6C6C6;" d="M15.7,45c1,0.2,2.1,0.4,3.2,0.4c5.7,0,10.5-3.4,12.4-8.1l5.4,3.8c0.3,0.4,0.6,0.9,0.9,1.3
	c2,1,4.3,1.5,6.8,1.5c8.4,0,15.1-6.4,15.1-14.4c0-5.5-3.3-16.6-8.1-22.7c-0.6-0.2-1.1-0.3-1.7-0.3c-4.9,0-13.5,11-18.4,20.2
	c-1.3-5.5-4.1-12-7.6-15.4c-7.2,0.4-13,17-13,23.8C10.6,39.1,12.6,42.7,15.7,45z"/>
<path style="fill:#C6C6C6;" d="M60.6,55.7c-2-1.4-4.5-2.2-7.1-2.2c-3.4,0-6.6,1.4-8.9,3.6c-1.7,0.4-3.1,1.6-3.8,3.1
	c-0.6-1.9-2.4-3.3-4.5-3.3c-1.2,0-2.2,0.4-3,1.1c-0.9-3.1-3.7-5.3-7.1-5.3c-3.1,0-5.8,1.9-6.9,4.7c-0.6-0.2-1.2-0.3-1.8-0.3
	c-2.2,0-4.1,1.1-5.3,2.7c-0.5-0.1-0.9-0.2-1.4-0.2c-2.2,0-4.2,1.3-5.2,3.1h13.2h2.3h20.1H52h10.7C62.8,60.1,62,57.7,60.6,55.7z"/>
<path style="fill:#252F6A;" d="M44.3,18.8c0.3,0,0.6-0.1,0.9-0.4c0.2-0.2,0.4-0.5,0.4-0.9c0-0.3-0.1-0.6-0.4-0.9
	c-0.2-0.2-0.5-0.4-0.9-0.4s-0.6,0.1-0.9,0.4c-0.2,0.2-0.4,0.5-0.4,0.9c0,0.3,0.1,0.6,0.4,0.9C43.7,18.7,44,18.8,44.3,18.8z"/>
<path style="fill:#252F6A;" d="M7.7,22.4c0.1,0.1,0.3,0.1,0.4,0.1c0.5,0,1-0.3,1.2-0.8l0,0c0.2-0.6-0.1-1.3-0.7-1.6
	C8,19.8,7.2,20.1,7,20.8l0,0C6.7,21.4,7.1,22.2,7.7,22.4z"/>
<path style="fill:#252F6A;" d="M50,48.8c-1.6,0-3.1,0.3-4.5,0.7V45c8.5-0.6,15.1-7.4,15.1-15.6c0-4.4-1.9-11.4-4.6-17.1
	c-1.5-3.3-3.2-5.9-5-7.8C48.9,2.2,46.6,1,44.3,1c-3.4,0-6.8,2.6-9.8,7.6c-1.8,2.9-3.4,6.6-4.6,10.4c-0.2-0.4-0.4-0.9-0.6-1.3
	c-1.4-2.9-2.8-5.2-4.4-6.9c-2-2.1-4-3.1-6.1-3.1c-4.5,0-7.9,4.9-10,9c-0.3,0.6-0.1,1.3,0.5,1.7c0.6,0.3,1.3,0.1,1.7-0.5
	c2.5-4.9,5.3-7.7,7.8-7.7c2.7,0,5.7,3.1,8.3,8.6c2.5,5.2,3.8,11,3.8,14c0,5.9-4.7,10.7-10.8,11.3v-7.7l4.3-4.3
	c0.5-0.5,0.5-1.3,0-1.7c-0.5-0.5-1.3-0.5-1.7,0L20,32.9V22.3c0-0.7-0.6-1.2-1.2-1.2c-0.7,0-1.2,0.6-1.2,1.2v15.3l-4-4
	c-0.5-0.5-1.3-0.5-1.7,0s-0.5,1.3,0,1.7l5.8,5.8V44c-6.1-0.6-10.8-5.4-10.8-11.3c0-1.5,0.3-3.7,0.9-6c0.2-0.7-0.2-1.3-0.9-1.5
	c-0.7-0.2-1.3,0.2-1.5,0.9c-0.6,2.5-1,4.8-1,6.6c0,7.2,5.8,13.2,13.3,13.8v7.1c-0.9-0.3-1.8-0.5-2.8-0.5c-2.2,0-4.4,1-5.8,2.6
	c-0.3,0-0.6-0.1-0.9-0.1c-3.9,0-7.1,3.2-7.1,7.1C1,63.4,1.6,64,2.2,64h60.5c0.7,0,1.2-0.6,1.2-1.2C64,55.1,57.7,48.8,50,48.8z
	 M17.6,61.5h-14c0.5-1.9,2.3-3.4,4.4-3.4c0.4,0,0.8,0,1.1,0.1c0.5,0.1,1-0.1,1.3-0.5c1-1.4,2.6-2.2,4.3-2.2c1,0,1.9,0.3,2.8,0.8
	V61.5z M44.3,3.5c3.1,0,6.6,3.6,9.6,9.9c2.5,5.3,4.3,12.1,4.3,16.1c0,6.9-5.6,12.5-12.7,13.1v-9l4.9-4.9c0.5-0.5,0.5-1.3,0-1.7
	c-0.5-0.5-1.3-0.5-1.7,0l-3.2,3.2v-7.5c0-0.7-0.6-1.2-1.2-1.2s-1.2,0.6-1.2,1.2v13l-4.9-4.9c-0.5-0.5-1.3-0.5-1.7,0
	c-0.5,0.5-0.5,1.3,0,1.7l6.7,6.7v3.6c-4.2-0.3-8-2.5-10.4-5.9c0.4-1.3,0.6-2.6,0.6-4c0-2.6-0.7-6.2-1.9-9.9
	C33.7,13.3,39.2,3.5,44.3,3.5z M20,46.5c5-0.4,9.3-3.2,11.5-7.3c1.3,1.5,2.8,2.8,4.6,3.7c2.1,1.2,4.5,1.8,6.9,2v5.7
	c-2.1,1.2-3.9,3-5.2,5.2c-0.5-0.1-1-0.2-1.5-0.2c-0.8,0-1.7,0.2-2.4,0.5c-1.5-2.8-4.4-4.7-7.7-4.7c-2.4,0-4.6,1-6.2,2.6V46.5z
	 M38.5,61.5H20v-1.5c0-3.4,2.8-6.2,6.2-6.2c2.7,0,5.2,1.8,5.9,4.4c0.1,0.4,0.4,0.7,0.8,0.8c0.4,0.1,0.8,0,1.2-0.2
	c0.6-0.5,1.4-0.8,2.2-0.8c1.5,0,2.9,1,3.3,2.5c0.1,0.5,0.6,0.8,1.1,0.9c0.5,0,1-0.2,1.2-0.7c0.8-1.6,2.4-2.6,4.2-2.6
	c2.2,0,4,1.5,4.5,3.4H38.5z M53.2,61.5c-0.6-3.3-3.5-5.9-7-5.9c-2,0-3.9,0.8-5.2,2.2c-0.3-0.3-0.6-0.6-0.9-0.9
	c1.1-1.9,2.8-3.5,4.8-4.5c0,0,0,0,0.1,0c1.6-0.8,3.3-1.2,5.1-1.2c5.9,0,10.8,4.5,11.4,10.3H53.2z"/>
</svg>
