<svg id="Layer_1" data-name="Layer 1" xmlns="http://www.w3.org/2000/svg" xmlns:xlink="http://www.w3.org/1999/xlink" viewBox="0 0 236 87.48"><defs><style>.cls-1,.cls-2,.cls-3{fill-rule:evenodd;}.cls-1{fill:url(#linear-gradient);}.cls-2{fill:url(#linear-gradient-2);}.cls-3{fill:url(#linear-gradient-3);}.cls-4{fill:#fff;}</style><linearGradient id="linear-gradient" x1="3.29" y1="-27.67" x2="70.87" y2="-27.67" gradientTransform="translate(0 56.02)" gradientUnits="userSpaceOnUse"><stop offset="0" stop-color="#ccc"/><stop offset="0.02" stop-color="#cfcfcf"/><stop offset="0.25" stop-color="#f5f5f5"/><stop offset="1" stop-color="#fff"/></linearGradient><linearGradient id="linear-gradient-2" x1="54.18" y1="-39.12" x2="28.89" y2="30.36" xlink:href="#linear-gradient"/><linearGradient id="linear-gradient-3" x1="47.32" y1="-1.67" x2="1" y2="-1.67" xlink:href="#linear-gradient"/></defs><title>civy logo white</title><path class="cls-1" d="M4.72,20.65c-1.64,3.4-1.48,3.5-1.35,9.52C2.56,43.09,14,54.39,26.71,55.37c6.9.54,11.85-1.37,16.17-5.37h0a15.05,15.05,0,0,1-8.25.57A17,17,0,0,1,25,43.36c-3.53-5.72-1-11.86-1-11.86s3.35-13,22.07-14.44,24.8,19.05,24.8,19.05a37.32,37.32,0,0,0-.46-5.69A34.91,34.91,0,0,0,4.65,20.75" transform="translate(-1 -1.24)"/><path class="cls-2" d="M42.88,50h0a15.16,15.16,0,0,1-8.28.55,16.91,16.91,0,0,1-9.66-7.16c-3.5-5.73-1-11.85-1-11.85S27.15,17.3,45.87,15.9,70.82,36.16,70.82,36.16V36A21.53,21.53,0,0,1,66.67,48.7s-3.08,4.06-9-1-7.37-6.06-7.27-7.89v-4.4A13.46,13.46,0,0,0,23.76,32.5a14.34,14.34,0,0,0-.13,7.33C25.5,47.59,34.1,52.5,40.91,50.5l4.58-1.11a2.78,2.78,0,0,1,1.8.06m0,0c-.09.59-1.29,3-6.87,12.21-8.87,14.39-5.1,27.06-5.1,27.06s15.57-12.4,23.36-24.64c0,0,3.44-4.22-3.24-9.13-4.58-3.4-6.67-5-8.15-5.53" transform="translate(-1 -1.24)"/><path class="cls-3" d="M35.32,88.72A83.3,83.3,0,0,1,5.08,52.09h0a38.94,38.94,0,0,1-3-8.18,26.43,26.43,0,0,1-1-8.34H1A32.35,32.35,0,0,1,4.6,20.72L5,20c-1.57,3.27-1.64,5.72-1.64,9.59a25.38,25.38,0,0,0,25,24.91,24.72,24.72,0,0,0,13.81-4.1,5.71,5.71,0,0,1,.72-.49c.1-.07,1-.23,1.31-.34a8.34,8.34,0,0,1,2.48-.38l.56.13s.85.68-3.73,8.21S35.25,73.18,35.32,88.72Z" transform="translate(-1 -1.24)"/><path class="cls-4" d="M104.91,12.08c8.66,0,15.94,3.34,20.57,9.13,1.36,1.78.84,3.49-1.21,4.45l-4.1,1.94c-1.83.89-3.2.45-4.56-1.11A13.12,13.12,0,0,0,105.36,22c-7.89,0-14.12,5.87-14.12,17s6.23,17,14.12,17a13.26,13.26,0,0,0,10.25-4.53c1.36-1.56,2.73-2,4.56-1.12l4.1,1.93c2,1,2.57,2.68,1.21,4.45-4.71,5.8-11.91,9.14-20.57,9.14C89.41,65.83,79,55.22,79,39s10.39-26.88,25.89-26.88" transform="translate(-1 -1.24)"/><path class="cls-4" d="M140.74,22.63a6.77,6.77,0,1,1,.14,0h-.14m-2.43,3.87h4.86a3,3,0,0,1,3.34,2.61,2.91,2.91,0,0,1,0,.66V61.68a3,3,0,0,1-2.7,3.26,3.53,3.53,0,0,1-.65,0h-4.86A3,3,0,0,1,135,61.68V29.75a3,3,0,0,1,2.72-3.26,2.33,2.33,0,0,1,.59,0" transform="translate(-1 -1.24)"/><path class="cls-4" d="M166.26,62.34l-12-32.08c-.83-2.23.3-3.79,2.73-3.79h5a3.62,3.62,0,0,1,3.73,2.75l8,25,8-25a3.58,3.58,0,0,1,3.67-2.72h5c2.44,0,3.57,1.56,2.73,3.79l-12,32.08a3.69,3.69,0,0,1-3.8,2.6H170a3.66,3.66,0,0,1-3.79-2.6" transform="translate(-1 -1.24)"/><path class="cls-4" d="M207.56,76.91l4.71-12.63-14.05-34c-.91-2.3.08-3.79,2.59-3.79h4.7a3.74,3.74,0,0,1,3.8,2.6l8.35,21.76,7.9-21.76a3.7,3.7,0,0,1,3.87-2.6h4.63c2.43,0,3.5,1.57,2.66,3.79L218.65,78.09a3.66,3.66,0,0,1-3.8,2.59h-4.64c-2.42,0-3.48-1.55-2.65-3.78" transform="translate(-1 -1.24)"/><path class="cls-4" d="M79.72,69h6.09a.63.63,0,0,1,.7.56v.73a.63.63,0,0,1-.57.7.28.28,0,0,1-.13,0H81.56v2.35h3.68a.63.63,0,0,1,.7.56v.74a.64.64,0,0,1-.57.69H81.56V78h4.38a.66.66,0,0,1,.71.57v.74a.64.64,0,0,1-.58.69H79.72a.63.63,0,0,1-.7-.56V69.71a.64.64,0,0,1,.56-.7h.14" transform="translate(-1 -1.24)"/><path class="cls-4" d="M90.75,74.44v4.85a.63.63,0,0,1-.56.69H89a.63.63,0,0,1-.7-.56V72.55a.63.63,0,0,1,.56-.69H90a.63.63,0,0,1,.7.56v.36a3.84,3.84,0,0,1,2.72-1.1,2.76,2.76,0,0,1,2.93,2.58,3.05,3.05,0,0,1,0,.52v4.51a.64.64,0,0,1-.58.69H94.61a.63.63,0,0,1-.7-.56V75c0-1-.43-1.49-1.31-1.49a2.66,2.66,0,0,0-1.88.89" transform="translate(-1 -1.24)"/><path class="cls-4" d="M104.68,71.87h1a.64.64,0,0,1,.71.56v7.13c0,2.57-1.53,4-4.18,4A5.22,5.22,0,0,1,99,82.5c-.37-.31-.29-.7.12-1l.5-.31a.76.76,0,0,1,1,.07,2.59,2.59,0,0,0,1.59.54,1.75,1.75,0,0,0,1.8-1.66,2.44,2.44,0,0,0,0-.27v-.7a3.77,3.77,0,0,1-2.44.94c-2.19,0-3.56-1.61-3.56-4.22s1.38-4.21,3.55-4.21a3.62,3.62,0,0,1,2.44.94v-.38c0-.23.25-.37.7-.37M104,77.5V74.25a2.41,2.41,0,0,0-1.7-.75c-1.23,0-1.84.86-1.84,2.34s.61,2.35,1.84,2.35a2.43,2.43,0,0,0,1.7-.69" transform="translate(-1 -1.24)"/><path class="cls-4" d="M111.7,73.55a3.13,3.13,0,0,0-1.37.32.73.73,0,0,1-1-.09L109,73.5a.61.61,0,0,1,0-1,5.78,5.78,0,0,1,3-.81c2.74,0,3.73,1.4,3.73,3.49V79.3a.63.63,0,0,1-.56.69H114c-.45,0-.7-.2-.7-.58a3.44,3.44,0,0,1-2.33.77,2.66,2.66,0,1,1,0-5.27,3.34,3.34,0,0,1,2.33.77v-.63c0-1-.5-1.5-1.7-1.5m0,3.07c-.8,0-1.26.34-1.26.92s.46.92,1.26.92a2.35,2.35,0,0,0,1.67-.61v-.63a2.44,2.44,0,0,0-1.67-.6" transform="translate(-1 -1.24)"/><path class="cls-4" d="M124.05,71.87h1a.62.62,0,0,1,.7.55v7.14c0,2.57-1.54,4-4.18,4a5.26,5.26,0,0,1-3.27-1c-.38-.31-.3-.7.12-1l.49-.31a.79.79,0,0,1,1,.07,2.58,2.58,0,0,0,1.58.54,1.75,1.75,0,0,0,1.84-1.64,2.71,2.71,0,0,0,0-.29v-.7a3.77,3.77,0,0,1-2.44.94c-2.17,0-3.55-1.57-3.55-4.22s1.38-4.21,3.55-4.21a3.62,3.62,0,0,1,2.44.94V72.3c0-.23.25-.37.69-.37m-.65,5.57V74.25a2.42,2.42,0,0,0-1.68-.71c-1.24,0-1.85.86-1.85,2.35s.61,2.34,1.85,2.34a2.49,2.49,0,0,0,1.68-.69" transform="translate(-1 -1.24)"/><path class="cls-4" d="M129.15,71.05a1.39,1.39,0,0,1-1.32-1.44,1.38,1.38,0,0,1,2.76.07,1.39,1.39,0,0,1-1.41,1.37h0m-.51.82h1a.62.62,0,0,1,.7.55v6.87a.63.63,0,0,1-.56.69h-1.14a.63.63,0,0,1-.7-.56V72.55a.63.63,0,0,1,.56-.69h.14" transform="translate(-1 -1.24)"/><path class="cls-4" d="M134.94,74.44v4.85a.63.63,0,0,1-.56.69h-1.14a.63.63,0,0,1-.7-.56V72.55a.63.63,0,0,1,.56-.69h1.14a.63.63,0,0,1,.7.56v.36a3.84,3.84,0,0,1,2.72-1.1,2.76,2.76,0,0,1,2.93,2.58,3.05,3.05,0,0,1,0,.52v4.51A.64.64,0,0,1,140,80h-1.14a.66.66,0,0,1-.71-.57V75c0-1-.43-1.49-1.31-1.49a2.62,2.62,0,0,0-1.87.89" transform="translate(-1 -1.24)"/><path class="cls-4" d="M148.87,71.87h1a.62.62,0,0,1,.7.55v7.14c0,2.57-1.53,4-4.18,4a5.21,5.21,0,0,1-3.26-1c-.39-.31-.31-.7.11-1l.5-.31a.76.76,0,0,1,1,.07,2.59,2.59,0,0,0,1.59.54,1.74,1.74,0,0,0,1.84-1.62,1.61,1.61,0,0,0,0-.31v-.7a3.77,3.77,0,0,1-2.44.94c-2.17,0-3.55-1.57-3.55-4.22s1.38-4.21,3.55-4.21a3.62,3.62,0,0,1,2.44.94V72.3c0-.23.25-.37.7-.37m-.7,5.67V74.25a2.42,2.42,0,0,0-1.68-.71c-1.23,0-1.84.86-1.84,2.35s.61,2.34,1.84,2.34a2.4,2.4,0,0,0,1.68-.69" transform="translate(-1 -1.24)"/><path class="cls-4" d="M162.54,68.83a5.31,5.31,0,0,1,4.33,1.93.56.56,0,0,1,0,.79.61.61,0,0,1-.26.15l-.86.41a.74.74,0,0,1-1-.24,2.79,2.79,0,0,0-2.16-1c-1.67,0-3,1.24-3,3.58s1.31,3.59,3,3.59a2.84,2.84,0,0,0,2.16-1,.71.71,0,0,1,1-.25h0l.86.41a.55.55,0,0,1,.4.68.68.68,0,0,1-.15.26,5.42,5.42,0,0,1-4.33,1.93c-3.26,0-5.46-2.24-5.46-5.68s2.2-5.66,5.46-5.66" transform="translate(-1 -1.24)"/><path class="cls-4" d="M170.09,71.05a1.38,1.38,0,1,1,1.43-1.37,1.41,1.41,0,0,1-1.43,1.37h0m-.52.82h1a.64.64,0,0,1,.71.56v6.86a.64.64,0,0,1-.58.69h-1.13a.63.63,0,0,1-.7-.56V72.55a.63.63,0,0,1,.56-.69h.14" transform="translate(-1 -1.24)"/><path class="cls-4" d="M174.05,76.83V73.69h-.71a.62.62,0,0,1-.7-.55v-.59a.63.63,0,0,1,.56-.69h.85V70.12a.63.63,0,0,1,.56-.69h1.14a.63.63,0,0,1,.69.57v1.86h1.25a.66.66,0,0,1,.71.57V73a.64.64,0,0,1-.58.7h-1.38v3.38c0,.91.31,1.23,1.27,1.23,0,0,.69.26.69.69v.51a.62.62,0,0,1-.53.69.41.41,0,0,1-.11,0H177c-2.25,0-3-1-3-3.33" transform="translate(-1 -1.24)"/><path class="cls-4" d="M181.25,71.05a1.38,1.38,0,1,1,1.45-1.37,1.38,1.38,0,0,1-1.45,1.37h0m-.5.82h1a.64.64,0,0,1,.71.56v6.86a.64.64,0,0,1-.58.69h-1.13a.66.66,0,0,1-.71-.57V72.55a.64.64,0,0,1,.58-.69h.13" transform="translate(-1 -1.24)"/><path class="cls-4" d="M192.47,76a.63.63,0,0,1-.58.68h-5.3a1.9,1.9,0,0,0,2.08,1.61,2.11,2.11,0,0,0,1.36-.46.71.71,0,0,1,1-.13h0l.53.36a.59.59,0,0,1,.3.77.6.6,0,0,1-.19.23,4.44,4.44,0,0,1-3.07,1.11,4.07,4.07,0,0,1-4.39-3.74,4.34,4.34,0,0,1,0-.51,4.15,4.15,0,0,1,8.29-.4,2.67,2.67,0,0,1,0,.4Zm-5.89-.94h3.49a1.76,1.76,0,0,0-3.49,0" transform="translate(-1 -1.24)"/><path class="cls-4" d="M197.13,71.68a5.2,5.2,0,0,1,2.94.85c.41.27.36.66,0,1l-.36.29a.76.76,0,0,1-1,0,2.46,2.46,0,0,0-1.21-.32c-.67,0-1.09.16-1.09.53s.38.63,1.89,1.08,2.58,1.3,2.58,2.62-1.16,2.5-3.38,2.5a5.48,5.48,0,0,1-3.5-1.15c-.38-.3-.32-.69.07-1l.46-.33a.76.76,0,0,1,1,0,2.76,2.76,0,0,0,1.69.59c.77,0,1.15-.24,1.15-.63s-.35-.69-1.65-1.08c-2-.61-2.83-1.41-2.83-2.68s1.17-2.35,3.2-2.35" transform="translate(-1 -1.24)"/></svg>